{
.appVersion = "1075";
copyright = "Copyright 2018 The Jacques Francois Project Authors (https://github.com/cyrealtype/Jacques-Francois)";
customParameters = (
{
name = license;
value = "This Font Software is licensed under the SIL Open Font License, Version 1.1. This license is available with a FAQ at: http://scripts.sil.org/OFL";
},
{
name = licenseURL;
value = "http://scripts.sil.org/OFL";
},
{
name = fsType;
value = (
);
},
{
name = "Use Typo Metrics";
value = 1;
},
{
name = "Disable Last Change";
value = 1;
},
{
name = "Use Line Breaks";
value = 1;
}
);
date = "2018-02-12 11:50:07 +0000";
designer = "Manvel Shmavonyan, Alexei Vanyashin";
designerURL = "http://new.myfonts.com/person/Manvel_Shmavonyan/";
disablesAutomaticAlignment = 1;
familyName = "Jacques Francois";
fontMaster = (
{
alignmentZones = (
"{714, 20}",
"{0, 0}",
"{0, -20}"
);
ascender = 742;
capHeight = 715;
customParameters = (
{
name = typoDescender;
value = 296;
},
{
name = typoLineGap;
value = 0;
},
{
name = hheaLineGap;
value = 0;
},
{
name = hheaAscender;
value = 1023;
},
{
name = typoAscender;
value = 1023;
},
{
name = hheaDescender;
value = -295;
},
{
name = winDescent;
value = 276;
},
{
name = winAscent;
value = 1003;
}
);
descender = -250;
horizontalStems = (
21,
24,
35,
39,
44
);
id = UUID0;
verticalStems = (
135,
57,
67,
86
);
xHeight = 429;
}
);
glyphs = (
{
glyphname = A;
layers = (
{
background = {
paths = (
{
closed = 1;
nodes = (
"405 421 OFFCURVE",
"429 397 OFFCURVE",
"457 397 CURVE SMOOTH",
"485 397 OFFCURVE",
"509 421 OFFCURVE",
"509 449 CURVE SMOOTH",
"509 477 OFFCURVE",
"485 501 OFFCURVE",
"457 501 CURVE SMOOTH",
"429 501 OFFCURVE",
"405 477 OFFCURVE",
"405 449 CURVE SMOOTH"
);
},
{
closed = 1;
nodes = (
"505 -2 OFFCURVE",
"565 0 OFFCURVE",
"618 0 CURVE SMOOTH",
"671 0 OFFCURVE",
"731 -2 OFFCURVE",
"784 -4 CURVE",
"786 1 OFFCURVE",
"786 4 OFFCURVE",
"786 7 CURVE SMOOTH",
"786 11 OFFCURVE",
"785 16 OFFCURVE",
"784 20 CURVE",
"747 24 OFFCURVE",
"694 31 OFFCURVE",
"680 65 CURVE SMOOTH",
"410 732 LINE",
"404 731 OFFCURVE",
"398 728 OFFCURVE",
"394 725 CURVE",
"389 681 OFFCURVE",
"371 654 OFFCURVE",
"332 628 CURVE",
"343 599 LINE",
"133 70 LINE SMOOTH",
"121 38 OFFCURVE",
"68 26 OFFCURVE",
"17 20 CURVE",
"16 17 OFFCURVE",
"15 12 OFFCURVE",
"15 8 CURVE SMOOTH",
"15 5 OFFCURVE",
"16 -1 OFFCURVE",
"17 -4 CURVE",
"72 -2 OFFCURVE",
"119 0 OFFCURVE",
"153 0 CURVE SMOOTH",
"187 0 OFFCURVE",
"221 -2 OFFCURVE",
"276 -4 CURVE",
"277 0 OFFCURVE",
"278 4 OFFCURVE",
"278 7 CURVE SMOOTH",
"278 11 OFFCURVE",
"277 16 OFFCURVE",
"276 20 CURVE",
"237 25 OFFCURVE",
"181 28 OFFCURVE",
"181 59 CURVE SMOOTH",
"181 65 LINE",
"256 255 LINE",
"310 256 OFFCURVE",
"350 257 OFFCURVE",
"390 257 CURVE SMOOTH",
"417 257 OFFCURVE",
"445 257 OFFCURVE",
"477 256 CURVE",
"548 74 LINE SMOOTH",
"549 70 OFFCURVE",
"550 60 OFFCURVE",
"550 57 CURVE SMOOTH",
"550 33 OFFCURVE",
"487 24 OFFCURVE",
"451 20 CURVE",
"450 17 OFFCURVE",
"449 12 OFFCURVE",
"449 8 CURVE SMOOTH",
"449 5 OFFCURVE",
"450 -1 OFFCURVE",
"451 -4 CURVE"
);
},
{
closed = 1;
nodes = (
"355 295 OFFCURVE",
"319 295 OFFCURVE",
"273 297 CURVE",
"366 536 LINE",
"368 536 LINE",
"461 296 LINE",
"435 295 OFFCURVE",
"413 295 OFFCURVE",
"390 295 CURVE SMOOTH"
);
}
);
};
layerId = UUID0;
paths = (
{
closed = 1;
nodes = (
"505 -2 OFFCURVE",
"562 0 OFFCURVE",
"615 0 CURVE SMOOTH",
"668 0 OFFCURVE",
"720 -2 OFFCURVE",
"773 -4 CURVE",
"775 1 OFFCURVE",
"775 4 OFFCURVE",
"775 7 CURVE SMOOTH",
"775 11 OFFCURVE",
"774 16 OFFCURVE",
"773 20 CURVE",
"736 24 OFFCURVE",
"683 31 OFFCURVE",
"669 65 CURVE SMOOTH",
"402 732 LINE",
"396 731 OFFCURVE",
"390 728 OFFCURVE",
"386 725 CURVE",
"381 681 OFFCURVE",
"371 654 OFFCURVE",
"332 628 CURVE",
"343 599 LINE",
"133 70 LINE SMOOTH",
"121 38 OFFCURVE",
"68 26 OFFCURVE",
"17 20 CURVE",
"16 17 OFFCURVE",
"15 12 OFFCURVE",
"15 8 CURVE SMOOTH",
"15 5 OFFCURVE",
"16 -1 OFFCURVE",
"17 -4 CURVE",
"72 -2 OFFCURVE",
"119 0 OFFCURVE",
"153 0 CURVE SMOOTH",
"187 0 OFFCURVE",
"221 -2 OFFCURVE",
"276 -4 CURVE",
"277 0 OFFCURVE",
"278 4 OFFCURVE",
"278 7 CURVE SMOOTH",
"278 11 OFFCURVE",
"277 16 OFFCURVE",
"276 20 CURVE",
"237 25 OFFCURVE",
"181 28 OFFCURVE",
"181 59 CURVE SMOOTH",
"181 65 LINE",
"256 255 LINE",
"310 256 OFFCURVE",
"350 257 OFFCURVE",
"390 257 CURVE SMOOTH",
"417 257 OFFCURVE",
"445 257 OFFCURVE",
"477 256 CURVE",
"548 74 LINE SMOOTH",
"549 70 OFFCURVE",
"550 60 OFFCURVE",
"550 57 CURVE SMOOTH",
"550 33 OFFCURVE",
"487 24 OFFCURVE",
"451 20 CURVE",
"450 17 OFFCURVE",
"449 12 OFFCURVE",
"449 8 CURVE SMOOTH",
"449 5 OFFCURVE",
"450 -1 OFFCURVE",
"451 -4 CURVE"
);
},
{
closed = 1;
nodes = (
"355 295 OFFCURVE",
"319 295 OFFCURVE",
"273 297 CURVE",
"366 536 LINE",
"368 536 LINE",
"461 296 LINE",
"435 295 OFFCURVE",
"413 295 OFFCURVE",
"390 295 CURVE SMOOTH"
);
}
);
width = 795;
}
);
unicode = 0041;
},
{
glyphname = AE;
layers = (
{
hints = (
{
place = "{652, -86}";
},
{
place = "{839, 33}";
},
{
place = "{971, 34}";
},
{
horizontal = 1;
place = "{700, -39}";
},
{
horizontal = 1;
place = "{335, 39}";
},
{
horizontal = 1;
place = "{211, 39}";
},
{
horizontal = 1;
place = "{0, 39}";
}
);
layerId = UUID0;
paths = (
{
closed = 1;
nodes = (
"1030 0 LINE",
"1039 73 OFFCURVE",
"1072 126 OFFCURVE",
"1102 182 CURVE",
"1099 188 OFFCURVE",
"1093 192 OFFCURVE",
"1085 195 CURVE",
"1041 113 OFFCURVE",
"956 43 OFFCURVE",
"757 30 CURVE",
"621 30 LINE",
"618 158 OFFCURVE",
"616 249 OFFCURVE",
"616 339 CURVE",
"616 343 LINE",
"735 343 LINE",
"822 343 OFFCURVE",
"848 268 OFFCURVE",
"890 192 CURVE",
"898 195 OFFCURVE",
"906 199 OFFCURVE",
"909 205 CURVE",
"882 251 OFFCURVE",
"860 304 OFFCURVE",
"860 358 CURVE SMOOTH",
"860 398 OFFCURVE",
"882 464 OFFCURVE",
"909 511 CURVE",
"906 517 OFFCURVE",
"898 521 OFFCURVE",
"890 524 CURVE",
"847 442 OFFCURVE",
"822 373 OFFCURVE",
"735 373 CURVE",
"616 373 LINE",
"616 465 OFFCURVE",
"618 557 OFFCURVE",
"622 684 CURVE",
"737 684 LINE",
"936 671 OFFCURVE",
"1021 601 OFFCURVE",
"1065 519 CURVE",
"1073 522 OFFCURVE",
"1079 526 OFFCURVE",
"1082 532 CURVE",
"1052 584 OFFCURVE",
"1019 645 OFFCURVE",
"1010 718 CURVE",
"874 714 OFFCURVE",
"758 715 OFFCURVE",
"622 714 CURVE",
"566 714 LINE",
"508 714 OFFCURVE",
"450 716 OFFCURVE",
"395 718 CURVE",
"394 714 OFFCURVE",
"393 711 OFFCURVE",
"393 707 CURVE SMOOTH",
"393 703 OFFCURVE",
"394 699 OFFCURVE",
"395 695 CURVE",
"419 692 OFFCURVE",
"452 689 OFFCURVE",
"476 680 CURVE",
"116 70 LINE SMOOTH",
"98 40 OFFCURVE",
"53 26 OFFCURVE",
"2 20 CURVE",
"1 17 OFFCURVE",
"0 12 OFFCURVE",
"0 8 CURVE SMOOTH",
"0 5 OFFCURVE",
"1 -1 OFFCURVE",
"2 -4 CURVE",
"57 -2 OFFCURVE",
"104 0 OFFCURVE",
"138 0 CURVE SMOOTH",
"172 0 OFFCURVE",
"206 -2 OFFCURVE",
"261 -4 CURVE",
"262 0 OFFCURVE",
"263 4 OFFCURVE",
"263 7 CURVE SMOOTH",
"263 11 OFFCURVE",
"262 16 OFFCURVE",
"261 20 CURVE",
"222 25 OFFCURVE",
"162 24 OFFCURVE",
"162 55 CURVE SMOOTH",
"162 57 OFFCURVE",
"165 66 OFFCURVE",
"167 71 CURVE",
"326 343 LINE",
"513 343 LINE",
"512 250 OFFCURVE",
"510 158 OFFCURVE",
"507 67 CURVE",
"506 31 OFFCURVE",
"436 24 OFFCURVE",
"394 20 CURVE",
"393 15 OFFCURVE",
"392 11 OFFCURVE",
"392 7 CURVE SMOOTH",
"392 4 OFFCURVE",
"393 0 OFFCURVE",
"394 -3 CURVE",
"457 -1 OFFCURVE",
"555 0 OFFCURVE",
"621 0 CURVE"
);
},
{
closed = 1;
nodes = (
"508 652 LINE",
"512 560 OFFCURVE",
"513 465 OFFCURVE",
"513 375 CURVE",
"513 373 LINE",
"344 373 LINE",
"506 652 LINE"
);
}
);
width = 1122;
}
);
unicode = 00C6;
},
{
glyphname = B;
layers = (
{
hints = (
{
place = "{153, 135}";
},
{
place = "{472, 146}";
},
{
place = "{559, 156}";
},
{
place = "{294, -141}";
},
{
horizontal = 1;
place = "{-6, 21}";
},
{
horizontal = 1;
place = "{-5, 21}";
},
{
horizontal = 1;
place = "{0, -20}";
target = down;
type = TopGhost;
}
);
layerId = UUID0;
paths = (
{
closed = 1;
nodes = (
"150 31 OFFCURVE",
"79 24 OFFCURVE",
"37 20 CURVE",
"36 15 OFFCURVE",
"35 11 OFFCURVE",
"35 7 CURVE SMOOTH",
"35 4 OFFCURVE",
"36 0 OFFCURVE",
"37 -3 CURVE",
"100 -1 OFFCURVE",
"198 0 OFFCURVE",
"264 0 CURVE SMOOTH",
"412 0 OFFCURVE",
"673 13 OFFCURVE",
"673 220 CURVE SMOOTH",
"673 334 OFFCURVE",
"584 401 OFFCURVE",
"485 419 CURVE",
"485 423 LINE",
"537 445 OFFCURVE",
"592 485 OFFCURVE",
"592 557 CURVE SMOOTH",
"592 703 OFFCURVE",
"435 718 OFFCURVE",
"328 718 CURVE SMOOTH",
"312 718 OFFCURVE",
"280 714 OFFCURVE",
"209 714 CURVE SMOOTH",
"151 714 OFFCURVE",
"93 715 OFFCURVE",
"38 717 CURVE",
"37 713 OFFCURVE",
"36 710 OFFCURVE",
"36 706 CURVE SMOOTH",
"36 702 OFFCURVE",
"37 698 OFFCURVE",
"38 694 CURVE",
"80 690 OFFCURVE",
"150 684 OFFCURVE",
"151 648 CURVE SMOOTH",
"155 556 OFFCURVE",
"156 465 OFFCURVE",
"156 375 CURVE SMOOTH",
"156 272 OFFCURVE",
"154 169 OFFCURVE",
"150 67 CURVE"
);
},
{
closed = 1;
nodes = (
"259 339 LINE",
"259 375 LINE",
"278 377 OFFCURVE",
"296 378 OFFCURVE",
"315 378 CURVE SMOOTH",
"446 378 OFFCURVE",
"544 334 OFFCURVE",
"544 218 CURVE SMOOTH",
"544 49 OFFCURVE",
"398 33 OFFCURVE",
"264 33 CURVE"
);
},
{
closed = 1;
nodes = (
"265 683 LINE",
"283 685 OFFCURVE",
"300 686 OFFCURVE",
"307 686 CURVE SMOOTH",
"392 686 OFFCURVE",
"458 651 OFFCURVE",
"458 557 CURVE SMOOTH",
"458 462 OFFCURVE",
"400 405 OFFCURVE",
"259 405 CURVE"
);
}
);
width = 723;
}
);
unicode = 0042;
},
{
glyphname = C;
layers = (
{
hints = (
{
place = "{60, 151}";
},
{
horizontal = 1;
place = "{5, 54}";
},
{
horizontal = 1;
place = "{740, 22}";
}
);
layerId = UUID0;
paths = (
{
closed = 1;
nodes = (
"65 66 OFFCURVE",
"291 -20 OFFCURVE",
"435 -20 CURVE SMOOTH",
"523 -20 OFFCURVE",
"646 20 OFFCURVE",
"710 114 CURVE",
"710 122 OFFCURVE",
"702 129 OFFCURVE",
"692 129 CURVE",
"642 68 OFFCURVE",
"566 40 OFFCURVE",
"477 40 CURVE SMOOTH",
"279 40 OFFCURVE",
"194 190 OFFCURVE",
"194 356 CURVE SMOOTH",
"194 506 OFFCURVE",
"252 699 OFFCURVE",
"435 699 CURVE SMOOTH",
"603 699 OFFCURVE",
"666 572 OFFCURVE",
"712 470 CURVE",
"719 471 OFFCURVE",
"728 475 OFFCURVE",
"730 481 CURVE",
"710 530 OFFCURVE",
"704 588 OFFCURVE",
"704 631 CURVE SMOOTH",
"704 659 OFFCURVE",
"706 681 OFFCURVE",
"710 693 CURVE",
"625 703 OFFCURVE",
"559 734 OFFCURVE",
"435 734 CURVE SMOOTH",
"291 734 OFFCURVE",
"65 646 OFFCURVE",
"65 356 CURVE SMOOTH"
);
}
);
width = 758;
}
);
unicode = 0043;
},
{
glyphname = D;
layers = (
{
hints = (
{
place = "{143, 135}";
},
{
place = "{673, 156}";
},
{
place = "{283, -140}";
},
{
horizontal = 1;
place = "{772, -20}";
target = down;
type = TopGhost;
},
{
horizontal = 1;
place = "{771, -20}";
target = down;
type = TopGhost;
}
);
layerId = UUID0;
paths = (
{
closed = 1;
nodes = (
"150 31 OFFCURVE",
"79 24 OFFCURVE",
"37 20 CURVE",
"36 15 OFFCURVE",
"35 11 OFFCURVE",
"35 7 CURVE SMOOTH",
"35 4 OFFCURVE",
"36 0 OFFCURVE",
"37 -3 CURVE",
"100 -1 OFFCURVE",
"198 0 OFFCURVE",
"264 0 CURVE SMOOTH",
"315 0 LINE SMOOTH",
"516 0 OFFCURVE",
"757 73 OFFCURVE",
"775 361 CURVE",
"775 661 OFFCURVE",
"561 718 OFFCURVE",
"363 718 CURVE SMOOTH",
"299 718 OFFCURVE",
"274 716 OFFCURVE",
"213 714 CURVE SMOOTH",
"209 714 LINE SMOOTH",
"151 714 OFFCURVE",
"93 716 OFFCURVE",
"38 718 CURVE",
"37 714 OFFCURVE",
"36 711 OFFCURVE",
"36 707 CURVE SMOOTH",
"36 703 OFFCURVE",
"37 699 OFFCURVE",
"38 695 CURVE",
"80 691 OFFCURVE",
"150 684 OFFCURVE",
"151 648 CURVE",
"155 556 OFFCURVE",
"156 465 OFFCURVE",
"156 375 CURVE SMOOTH",
"156 272 OFFCURVE",
"154 169 OFFCURVE",
"150 67 CURVE"
);
},
{
closed = 1;
nodes = (
"265 677 LINE",
"294 681 OFFCURVE",
"328 683 OFFCURVE",
"357 683 CURVE SMOOTH",
"584 683 OFFCURVE",
"646 501 OFFCURVE",
"646 361 CURVE SMOOTH",
"646 171 OFFCURVE",
"539 35 OFFCURVE",
"324 35 CURVE SMOOTH",
"305 35 OFFCURVE",
"285 35 OFFCURVE",
"264 36 CURVE",
"261 158 OFFCURVE",
"259 249 OFFCURVE",
"259 339 CURVE SMOOTH",
"259 443 OFFCURVE",
"261 546 OFFCURVE",
"265 648 CURVE"
);
}
);
width = 840;
}
);
unicode = 0044;
},
{
glyphname = Eth;
layers = (
{
hints = (
{
place = "{160, 98}";
},
{
place = "{741, 113}";
},
{
place = "{143, 135}";
},
{
place = "{673, 156}";
},
{
place = "{283, -140}";
},
{
horizontal = 1;
place = "{0, 44}";
},
{
horizontal = 1;
place = "{383, 44}";
},
{
horizontal = 1;
place = "{747, 44}";
},
{
horizontal = 1;
place = "{772, -20}";
target = down;
type = TopGhost;
},
{
horizontal = 1;
place = "{771, -20}";
target = down;
type = TopGhost;
}
);
layerId = UUID0;
paths = (
{
closed = 1;
nodes = (
"36 15 OFFCURVE",
"35 11 OFFCURVE",
"35 7 CURVE SMOOTH",
"35 4 OFFCURVE",
"36 0 OFFCURVE",
"37 -3 CURVE",
"100 -1 OFFCURVE",
"198 0 OFFCURVE",
"264 0 CURVE SMOOTH",
"315 0 LINE SMOOTH",
"516 0 OFFCURVE",
"757 73 OFFCURVE",
"775 361 CURVE",
"775 661 OFFCURVE",
"561 718 OFFCURVE",
"363 718 CURVE SMOOTH",
"299 718 OFFCURVE",
"274 716 OFFCURVE",
"213 714 CURVE SMOOTH",
"209 714 LINE SMOOTH",
"151 714 OFFCURVE",
"93 716 OFFCURVE",
"38 718 CURVE",
"37 714 OFFCURVE",
"36 711 OFFCURVE",
"36 707 CURVE SMOOTH",
"36 703 OFFCURVE",
"37 699 OFFCURVE",
"38 695 CURVE",
"80 691 OFFCURVE",
"150 684 OFFCURVE",
"151 648 CURVE SMOOTH",
"155 556 OFFCURVE",
"156 465 OFFCURVE",
"156 375 CURVE",
"156 374 LINE",
"117 375 OFFCURVE",
"78 376 OFFCURVE",
"40 378 CURVE",
"40 331 LINE",
"78 332 OFFCURVE",
"117 333 OFFCURVE",
"156 333 CURVE",
"155 244 OFFCURVE",
"153 155 OFFCURVE",
"150 67 CURVE",
"149 31 OFFCURVE",
"79 24 OFFCURVE",
"37 20 CURVE"
);
},
{
closed = 1;
nodes = (
"264 67 LINE",
"261 156 OFFCURVE",
"259 245 OFFCURVE",
"259 334 CURVE",
"314 334 OFFCURVE",
"369 332 OFFCURVE",
"424 331 CURVE",
"424 378 LINE",
"369 375 OFFCURVE",
"314 374 OFFCURVE",
"259 374 CURVE",
"259 466 OFFCURVE",
"261 557 OFFCURVE",
"265 677 CURVE",
"294 681 OFFCURVE",
"328 683 OFFCURVE",
"357 683 CURVE SMOOTH",
"584 683 OFFCURVE",
"646 501 OFFCURVE",
"646 361 CURVE SMOOTH",
"646 171 OFFCURVE",
"539 35 OFFCURVE",
"324 35 CURVE SMOOTH",
"305 35 OFFCURVE",
"285 35 OFFCURVE",
"264 36 CURVE"
);
}
);
width = 840;
}
);
unicode = 00D0;
},
{
glyphname = E;
layers = (
{
layerId = UUID0;
paths = (
{
closed = 1;
nodes = (
"693 0 LINE",
"702 73 OFFCURVE",
"735 126 OFFCURVE",
"765 182 CURVE",
"762 188 OFFCURVE",
"756 192 OFFCURVE",
"748 195 CURVE",
"704 113 OFFCURVE",
"619 43 OFFCURVE",
"420 30 CURVE",
"264 30 LINE",
"261 158 OFFCURVE",
"259 249 OFFCURVE",
"259 339 CURVE",
"259 343 LINE",
"398 343 LINE",
"485 343 OFFCURVE",
"511 268 OFFCURVE",
"553 192 CURVE",
"561 195 OFFCURVE",
"569 199 OFFCURVE",
"572 205 CURVE",
"545 251 OFFCURVE",
"523 304 OFFCURVE",
"523 358 CURVE SMOOTH",
"523 398 OFFCURVE",
"545 464 OFFCURVE",
"572 511 CURVE",
"569 517 OFFCURVE",
"561 521 OFFCURVE",
"553 524 CURVE",
"510 442 OFFCURVE",
"485 373 OFFCURVE",
"398 373 CURVE",
"259 373 LINE",
"259 465 OFFCURVE",
"261 557 OFFCURVE",
"265 684 CURVE",
"400 684 LINE",
"599 671 OFFCURVE",
"684 601 OFFCURVE",
"728 519 CURVE",
"736 522 OFFCURVE",
"742 526 OFFCURVE",
"745 532 CURVE",
"715 584 OFFCURVE",
"682 645 OFFCURVE",
"673 718 CURVE",
"537 714 OFFCURVE",
"401 715 OFFCURVE",
"265 714 CURVE",
"209 714 LINE",
"151 714 OFFCURVE",
"93 716 OFFCURVE",
"38 718 CURVE",
"37 714 OFFCURVE",
"36 711 OFFCURVE",
"36 707 CURVE SMOOTH",
"36 703 OFFCURVE",
"37 699 OFFCURVE",
"38 695 CURVE",
"80 691 OFFCURVE",
"150 684 OFFCURVE",
"151 648 CURVE SMOOTH",
"155 556 OFFCURVE",
"156 465 OFFCURVE",
"156 375 CURVE SMOOTH",
"156 272 OFFCURVE",
"154 169 OFFCURVE",
"150 67 CURVE",
"149 31 OFFCURVE",
"79 24 OFFCURVE",
"37 20 CURVE",
"36 15 OFFCURVE",
"35 11 OFFCURVE",
"35 7 CURVE SMOOTH",
"35 4 OFFCURVE",
"36 0 OFFCURVE",
"37 -3 CURVE",
"100 -1 OFFCURVE",
"198 0 OFFCURVE",
"264 0 CURVE"
);
}
);
width = 785;
}
);
unicode = 0045;
},
{
glyphname = F;
layers = (
{
layerId = UUID0;
paths = (
{
closed = 1;
nodes = (
"150 31 OFFCURVE",
"79 24 OFFCURVE",
"37 20 CURVE",
"36 15 OFFCURVE",
"35 11 OFFCURVE",
"35 7 CURVE SMOOTH",
"35 4 OFFCURVE",
"36 0 OFFCURVE",
"37 -3 CURVE",
"92 -1 OFFCURVE",
"149 0 OFFCURVE",
"207 0 CURVE SMOOTH",
"264 0 OFFCURVE",
"322 -1 OFFCURVE",
"377 -3 CURVE",
"378 0 OFFCURVE",
"379 4 OFFCURVE",
"379 7 CURVE SMOOTH",
"379 11 OFFCURVE",
"378 15 OFFCURVE",
"377 20 CURVE",
"335 24 OFFCURVE",
"265 31 OFFCURVE",
"264 67 CURVE",
"261 156 OFFCURVE",
"259 246 OFFCURVE",
"259 335 CURVE",
"398 335 LINE",
"473 335 OFFCURVE",
"500 264 OFFCURVE",
"533 184 CURVE",
"541 187 OFFCURVE",
"549 191 OFFCURVE",
"552 197 CURVE",
"534 243 OFFCURVE",
"523 296 OFFCURVE",
"523 350 CURVE SMOOTH",
"523 403 OFFCURVE",
"534 457 OFFCURVE",
"552 503 CURVE",
"550 509 OFFCURVE",
"540 512 OFFCURVE",
"533 515 CURVE",
"495 433 OFFCURVE",
"473 365 OFFCURVE",
"398 365 CURVE",
"259 365 LINE",
"259 460 OFFCURVE",
"261 554 OFFCURVE",
"265 684 CURVE",
"389 684 LINE",
"588 671 OFFCURVE",
"673 601 OFFCURVE",
"717 519 CURVE",
"725 522 OFFCURVE",
"731 526 OFFCURVE",
"734 532 CURVE",
"704 584 OFFCURVE",
"671 645 OFFCURVE",
"662 718 CURVE",
"526 714 OFFCURVE",
"401 715 OFFCURVE",
"265 714 CURVE",
"209 714 LINE",
"151 714 OFFCURVE",
"93 715 OFFCURVE",
"38 717 CURVE",
"37 713 OFFCURVE",
"36 710 OFFCURVE",
"36 706 CURVE SMOOTH",
"36 702 OFFCURVE",
"37 698 OFFCURVE",
"38 694 CURVE",
"80 690 OFFCURVE",
"150 684 OFFCURVE",
"151 648 CURVE",
"155 556 OFFCURVE",
"156 465 OFFCURVE",
"156 375 CURVE SMOOTH",
"156 272 OFFCURVE",
"154 169 OFFCURVE",
"150 67 CURVE"
);
}
);
width = 734;
}
);
unicode = 0046;
},
{
glyphname = G;
layers = (
{
hints = (
{
place = "{60, 151}";
},
{
place = "{584, 140}";
},
{
horizontal = 1;
place = "{698, -20}";
target = down;
type = TopGhost;
}
);
layerId = UUID0;
paths = (
{
closed = 1;
nodes = (
"728 497 OFFCURVE",
"737 501 OFFCURVE",
"739 507 CURVE",
"721 553 OFFCURVE",
"715 599 OFFCURVE",
"715 636 CURVE SMOOTH",
"715 663 OFFCURVE",
"718 685 OFFCURVE",
"722 698 CURVE",
"637 708 OFFCURVE",
"565 734 OFFCURVE",
"441 734 CURVE SMOOTH",
"297 734 OFFCURVE",
"65 656 OFFCURVE",
"65 356 CURVE SMOOTH",
"65 56 OFFCURVE",
"301 -20 OFFCURVE",
"445 -20 CURVE SMOOTH",
"559 -20 OFFCURVE",
"635 2 OFFCURVE",
"730 37 CURVE",
"716 75 OFFCURVE",
"708 115 OFFCURVE",
"708 189 CURVE SMOOTH",
"708 261 LINE SMOOTH",
"708 297 OFFCURVE",
"779 304 OFFCURVE",
"821 308 CURVE",
"822 312 OFFCURVE",
"823 316 OFFCURVE",
"823 320 CURVE SMOOTH",
"823 324 OFFCURVE",
"822 327 OFFCURVE",
"821 331 CURVE",
"766 329 OFFCURVE",
"708 327 OFFCURVE",
"651 327 CURVE SMOOTH",
"593 327 OFFCURVE",
"536 329 OFFCURVE",
"481 331 CURVE",
"480 327 OFFCURVE",
"479 324 OFFCURVE",
"479 320 CURVE SMOOTH",
"479 316 OFFCURVE",
"480 312 OFFCURVE",
"481 308 CURVE",
"523 304 OFFCURVE",
"594 297 OFFCURVE",
"594 261 CURVE SMOOTH",
"594 63 LINE",
"559 23 OFFCURVE",
"497 15 OFFCURVE",
"445 15 CURVE SMOOTH",
"262 15 OFFCURVE",
"194 206 OFFCURVE",
"194 356 CURVE SMOOTH",
"194 506 OFFCURVE",
"258 699 OFFCURVE",
"441 699 CURVE SMOOTH",
"609 699 OFFCURVE",
"675 598 OFFCURVE",
"721 496 CURVE"
);
}
);
width = 848;
}
);
unicode = 0047;
},
{
glyphname = H;
layers = (
{
layerId = UUID0;
paths = (
{
closed = 1;
nodes = (
"598 31 OFFCURVE",
"527 24 OFFCURVE",
"485 20 CURVE",
"483 15 OFFCURVE",
"483 11 OFFCURVE",
"483 7 CURVE SMOOTH",
"483 4 OFFCURVE",
"484 0 OFFCURVE",
"485 -3 CURVE",
"540 -1 OFFCURVE",
"597 0 OFFCURVE",
"655 0 CURVE SMOOTH",
"712 0 OFFCURVE",
"770 -1 OFFCURVE",
"825 -3 CURVE",
"826 0 OFFCURVE",
"827 4 OFFCURVE",
"827 7 CURVE SMOOTH",
"827 11 OFFCURVE",
"826 16 OFFCURVE",
"825 20 CURVE",
"783 24 OFFCURVE",
"713 31 OFFCURVE",
"712 67 CURVE",
"708 164 OFFCURVE",
"707 261 OFFCURVE",
"707 357 CURVE SMOOTH",
"707 454 OFFCURVE",
"708 551 OFFCURVE",
"712 648 CURVE",
"713 684 OFFCURVE",
"783 691 OFFCURVE",
"825 695 CURVE",
"826 699 OFFCURVE",
"827 703 OFFCURVE",
"827 707 CURVE SMOOTH",
"827 711 OFFCURVE",
"826 714 OFFCURVE",
"825 718 CURVE",
"770 716 OFFCURVE",
"712 714 OFFCURVE",
"655 714 CURVE SMOOTH",
"597 714 OFFCURVE",
"540 716 OFFCURVE",
"485 718 CURVE",
"484 714 OFFCURVE",
"483 711 OFFCURVE",
"483 707 CURVE SMOOTH",
"483 703 OFFCURVE",
"484 699 OFFCURVE",
"485 695 CURVE",
"527 691 OFFCURVE",
"597 684 OFFCURVE",
"598 648 CURVE",
"601 558 OFFCURVE",
"602 467 OFFCURVE",
"603 377 CURVE",
"543 375 OFFCURVE",
"483 374 OFFCURVE",
"423 374 CURVE SMOOTH",
"368 374 OFFCURVE",
"313 374 OFFCURVE",
"259 376 CURVE",
"259 468 OFFCURVE",
"261 558 OFFCURVE",
"265 648 CURVE",
"266 684 OFFCURVE",
"336 691 OFFCURVE",
"378 695 CURVE",
"379 699 OFFCURVE",
"380 703 OFFCURVE",
"380 707 CURVE SMOOTH",
"380 711 OFFCURVE",
"379 714 OFFCURVE",
"378 718 CURVE",
"323 716 OFFCURVE",
"265 714 OFFCURVE",
"208 714 CURVE SMOOTH",
"150 714 OFFCURVE",
"93 716 OFFCURVE",
"38 718 CURVE",
"37 715 OFFCURVE",
"36 711 OFFCURVE",
"36 707 CURVE SMOOTH",
"36 703 OFFCURVE",
"37 699 OFFCURVE",
"38 695 CURVE",
"80 691 OFFCURVE",
"150 684 OFFCURVE",
"151 648 CURVE",
"155 556 OFFCURVE",
"156 465 OFFCURVE",
"156 375 CURVE SMOOTH",
"156 272 OFFCURVE",
"154 169 OFFCURVE",
"150 67 CURVE",
"149 31 OFFCURVE",
"79 24 OFFCURVE",
"37 20 CURVE",
"35 15 OFFCURVE",
"35 11 OFFCURVE",
"35 7 CURVE SMOOTH",
"35 4 OFFCURVE",
"36 0 OFFCURVE",
"37 -3 CURVE",
"92 -1 OFFCURVE",
"149 0 OFFCURVE",
"207 0 CURVE SMOOTH",
"264 0 OFFCURVE",
"322 -1 OFFCURVE",
"377 -3 CURVE",
"378 0 OFFCURVE",
"379 4 OFFCURVE",
"379 7 CURVE SMOOTH",
"379 11 OFFCURVE",
"378 15 OFFCURVE",
"377 20 CURVE",
"335 24 OFFCURVE",
"265 31 OFFCURVE",
"264 67 CURVE",
"261 155 OFFCURVE",
"259 244 OFFCURVE",
"259 332 CURVE",
"313 333 OFFCURVE",
"368 334 OFFCURVE",
"423 334 CURVE SMOOTH",
"483 334 OFFCURVE",
"543 333 OFFCURVE",
"603 331 CURVE",
"602 244 OFFCURVE",
"600 155 OFFCURVE",
"598 67 CURVE"
);
}
);
width = 862;
}
);
unicode = 0048;
},
{
glyphname = I;
layers = (
{
layerId = UUID0;
paths = (
{
closed = 1;
nodes = (
"150 31 OFFCURVE",
"79 24 OFFCURVE",
"37 20 CURVE",
"35 15 OFFCURVE",
"35 11 OFFCURVE",
"35 7 CURVE SMOOTH",
"35 4 OFFCURVE",
"36 0 OFFCURVE",
"37 -3 CURVE",
"92 -1 OFFCURVE",
"149 0 OFFCURVE",
"207 0 CURVE SMOOTH",
"264 0 OFFCURVE",
"322 -1 OFFCURVE",
"377 -3 CURVE",
"378 0 OFFCURVE",
"379 4 OFFCURVE",
"379 7 CURVE SMOOTH",
"379 11 OFFCURVE",
"379 14 OFFCURVE",
"377 20 CURVE",
"335 24 OFFCURVE",
"265 31 OFFCURVE",
"264 67 CURVE SMOOTH",
"261 158 OFFCURVE",
"259 249 OFFCURVE",
"259 339 CURVE SMOOTH",
"259 443 OFFCURVE",
"261 546 OFFCURVE",
"265 648 CURVE SMOOTH",
"266 684 OFFCURVE",
"336 691 OFFCURVE",
"378 695 CURVE",
"379 698 OFFCURVE",
"380 703 OFFCURVE",
"380 707 CURVE SMOOTH",
"380 711 OFFCURVE",
"379 714 OFFCURVE",
"378 718 CURVE",
"323 716 OFFCURVE",
"265 714 OFFCURVE",
"208 714 CURVE SMOOTH",
"150 714 OFFCURVE",
"93 716 OFFCURVE",
"38 718 CURVE",
"37 715 OFFCURVE",
"36 711 OFFCURVE",
"36 707 CURVE SMOOTH",
"36 703 OFFCURVE",
"37 699 OFFCURVE",
"38 695 CURVE",
"80 691 OFFCURVE",
"150 684 OFFCURVE",
"151 648 CURVE",
"155 556 OFFCURVE",
"156 465 OFFCURVE",
"156 375 CURVE SMOOTH",
"156 272 OFFCURVE",
"154 169 OFFCURVE",
"150 67 CURVE"
);
}
);
width = 415;
}
);
unicode = 0049;
},
{
glyphname = J;
layers = (
{
hints = (
{
place = "{-85, 173}";
},
{
place = "{174, 146}";
},
{
place = "{180, 140}";
},
{
place = "{326, -152}";
},
{
horizontal = 1;
place = "{-260, 21}";
},
{
horizontal = 1;
place = "{735, -20}";
target = down;
type = TopGhost;
}
);
layerId = UUID0;
paths = (
{
closed = 1;
nodes = (
"302 684 OFFCURVE",
"373 691 OFFCURVE",
"415 695 CURVE",
"416 698 OFFCURVE",
"417 703 OFFCURVE",
"417 707 CURVE SMOOTH",
"417 711 OFFCURVE",
"416 714 OFFCURVE",
"415 718 CURVE",
"360 716 OFFCURVE",
"302 714 OFFCURVE",
"245 714 CURVE SMOOTH",
"187 714 OFFCURVE",
"127 716 OFFCURVE",
"72 718 CURVE",
"71 715 OFFCURVE",
"70 711 OFFCURVE",
"70 707 CURVE SMOOTH",
"70 703 OFFCURVE",
"71 699 OFFCURVE",
"72 695 CURVE",
"114 691 OFFCURVE",
"184 684 OFFCURVE",
"185 648 CURVE",
"189 537 OFFCURVE",
"190 440 OFFCURVE",
"190 27 CURVE SMOOTH",
"190 -148 OFFCURVE",
"176 -229 OFFCURVE",
"84 -229 CURVE SMOOTH",
"49 -229 OFFCURVE",
"30 -211 OFFCURVE",
"30 -187 CURVE SMOOTH",
"30 -179 OFFCURVE",
"83 -168 OFFCURVE",
"83 -120 CURVE SMOOTH",
"83 -76 OFFCURVE",
"48 -58 OFFCURVE",
"13 -58 CURVE SMOOTH",
"-32 -58 OFFCURVE",
"-65 -88 OFFCURVE",
"-65 -143 CURVE SMOOTH",
"-65 -201 OFFCURVE",
"-16 -260 OFFCURVE",
"84 -260 CURVE SMOOTH",
"282 -260 OFFCURVE",
"295 -47 OFFCURVE",
"299 280 CURVE SMOOTH",
"301 457 OFFCURVE",
"301 547 OFFCURVE",
"302 648 CURVE SMOOTH"
);
}
);
width = 442;
}
);
unicode = 004A;
},
{
glyphname = K;
layers = (
{
hints = (
{
place = "{139, 135}";
},
{
place = "{145, 129}";
},
{
horizontal = 1;
place = "{-10, 21}";
}
);
layerId = UUID0;
paths = (
{
closed = 1;
nodes = (
"150 31 OFFCURVE",
"79 24 OFFCURVE",
"37 20 CURVE",
"35 15 OFFCURVE",
"35 11 OFFCURVE",
"35 7 CURVE SMOOTH",
"35 4 OFFCURVE",
"36 0 OFFCURVE",
"37 -3 CURVE",
"92 -1 OFFCURVE",
"149 0 OFFCURVE",
"207 0 CURVE SMOOTH",
"264 0 OFFCURVE",
"322 -1 OFFCURVE",
"377 -3 CURVE",
"378 0 OFFCURVE",
"379 4 OFFCURVE",
"379 7 CURVE SMOOTH",
"379 11 OFFCURVE",
"379 14 OFFCURVE",
"377 20 CURVE",
"335 24 OFFCURVE",
"265 31 OFFCURVE",
"264 67 CURVE",
"261 158 OFFCURVE",
"259 249 OFFCURVE",
"259 339 CURVE",
"278 340 LINE",
"516 93 LINE",
"527 79 OFFCURVE",
"542 67 OFFCURVE",
"542 53 CURVE SMOOTH",
"542 31 OFFCURVE",
"529 22 OFFCURVE",
"464 20 CURVE",
"463 17 OFFCURVE",
"462 12 OFFCURVE",
"462 8 CURVE SMOOTH",
"462 5 OFFCURVE",
"463 -1 OFFCURVE",
"464 -4 CURVE",
"518 -2 OFFCURVE",
"596 0 OFFCURVE",
"649 0 CURVE SMOOTH",
"702 0 OFFCURVE",
"752 -1 OFFCURVE",
"805 -4 CURVE",
"807 1 OFFCURVE",
"807 4 OFFCURVE",
"807 7 CURVE SMOOTH",
"807 11 OFFCURVE",
"806 16 OFFCURVE",
"805 20 CURVE",
"763 22 OFFCURVE",
"719 47 OFFCURVE",
"668 93 CURVE",
"358 408 LINE",
"610 648 LINE",
"656 686 OFFCURVE",
"703 691 OFFCURVE",
"745 695 CURVE",
"746 699 OFFCURVE",
"747 703 OFFCURVE",
"747 707 CURVE SMOOTH",
"747 711 OFFCURVE",
"746 714 OFFCURVE",
"745 718 CURVE",
"690 716 OFFCURVE",
"668 714 OFFCURVE",
"611 714 CURVE SMOOTH",
"553 714 OFFCURVE",
"521 716 OFFCURVE",
"466 718 CURVE",
"465 714 OFFCURVE",
"464 711 OFFCURVE",
"464 707 CURVE SMOOTH",
"464 703 OFFCURVE",
"465 699 OFFCURVE",
"466 695 CURVE",
"525 691 OFFCURVE",
"556 688 OFFCURVE",
"556 662 CURVE SMOOTH",
"556 658 OFFCURVE",
"553 653 OFFCURVE",
"550 648 CURVE",
"273 381 LINE",
"259 381 LINE",
"259 471 OFFCURVE",
"261 559 OFFCURVE",
"265 648 CURVE",
"266 684 OFFCURVE",
"336 691 OFFCURVE",
"378 695 CURVE",
"379 698 OFFCURVE",
"380 703 OFFCURVE",
"380 707 CURVE SMOOTH",
"380 711 OFFCURVE",
"379 714 OFFCURVE",
"378 718 CURVE",
"323 716 OFFCURVE",
"265 714 OFFCURVE",
"208 714 CURVE SMOOTH",
"150 714 OFFCURVE",
"93 716 OFFCURVE",
"38 718 CURVE",
"37 715 OFFCURVE",
"36 711 OFFCURVE",
"36 707 CURVE SMOOTH",
"36 703 OFFCURVE",
"37 699 OFFCURVE",
"38 695 CURVE",
"80 691 OFFCURVE",
"150 684 OFFCURVE",
"151 648 CURVE",
"155 556 OFFCURVE",
"156 465 OFFCURVE",
"156 375 CURVE SMOOTH",
"156 272 OFFCURVE",
"154 169 OFFCURVE",
"150 67 CURVE"
);
}
);
width = 799;
}
);
unicode = 004B;
},
{
glyphname = L;
layers = (
{
hints = (
{
place = "{143, 135}";
},
{
place = "{149, 134}";
},
{
horizontal = 1;
place = "{767, -20}";
target = down;
type = TopGhost;
}
);
layerId = UUID0;
paths = (
{
closed = 1;
nodes = (
"688 0 LINE",
"697 73 OFFCURVE",
"730 136 OFFCURVE",
"760 192 CURVE",
"757 198 OFFCURVE",
"751 202 OFFCURVE",
"743 205 CURVE",
"699 123 OFFCURVE",
"614 43 OFFCURVE",
"415 30 CURVE",
"264 30 LINE",
"261 158 OFFCURVE",
"259 249 OFFCURVE",
"259 339 CURVE SMOOTH",
"259 443 OFFCURVE",
"261 546 OFFCURVE",
"265 648 CURVE",
"266 684 OFFCURVE",
"336 691 OFFCURVE",
"378 695 CURVE",
"379 699 OFFCURVE",
"380 703 OFFCURVE",
"380 707 CURVE SMOOTH",
"380 711 OFFCURVE",
"379 714 OFFCURVE",
"378 718 CURVE",
"323 716 OFFCURVE",
"265 714 OFFCURVE",
"208 714 CURVE SMOOTH",
"150 714 OFFCURVE",
"93 716 OFFCURVE",
"38 718 CURVE",
"37 715 OFFCURVE",
"36 711 OFFCURVE",
"36 707 CURVE SMOOTH",
"36 703 OFFCURVE",
"37 699 OFFCURVE",
"38 695 CURVE",
"80 691 OFFCURVE",
"150 684 OFFCURVE",
"151 648 CURVE",
"155 556 OFFCURVE",
"156 465 OFFCURVE",
"156 375 CURVE SMOOTH",
"156 272 OFFCURVE",
"154 169 OFFCURVE",
"150 67 CURVE",
"149 31 OFFCURVE",
"79 24 OFFCURVE",
"37 20 CURVE",
"36 15 OFFCURVE",
"35 11 OFFCURVE",
"35 7 CURVE SMOOTH",
"35 4 OFFCURVE",
"36 0 OFFCURVE",
"37 -3 CURVE",
"100 -1 OFFCURVE",
"198 0 OFFCURVE",
"264 0 CURVE"
);
}
);
width = 780;
}
);
unicode = 004C;
},
{
glyphname = M;
layers = (
{
hints = (
{
place = "{162, 27}";
},
{
place = "{680, 141}";
},
{
place = "{686, 135}";
},
{
horizontal = 1;
place = "{16, 21}";
},
{
horizontal = 1;
place = "{778, -20}";
target = down;
type = TopGhost;
},
{
horizontal = 1;
place = "{777, -20}";
target = down;
type = TopGhost;
}
);
layerId = UUID0;
paths = (
{
closed = 1;
nodes = (
"140 33 OFFCURVE",
"74 24 OFFCURVE",
"32 20 CURVE",
"30 15 OFFCURVE",
"30 11 OFFCURVE",
"30 7 CURVE SMOOTH",
"30 4 OFFCURVE",
"31 0 OFFCURVE",
"32 -3 CURVE",
"124 0 OFFCURVE",
"126 0 OFFCURVE",
"163 0 CURVE SMOOTH",
"192 0 OFFCURVE",
"250 -1 OFFCURVE",
"302 -3 CURVE",
"303 0 OFFCURVE",
"304 4 OFFCURVE",
"304 7 CURVE SMOOTH",
"304 11 OFFCURVE",
"303 15 OFFCURVE",
"302 20 CURVE",
"260 24 OFFCURVE",
"195 33 OFFCURVE",
"194 74 CURVE",
"191 165 OFFCURVE",
"189 249 OFFCURVE",
"189 339 CURVE SMOOTH",
"189 422 OFFCURVE",
"190 523 OFFCURVE",
"193 612 CURVE",
"198 612 LINE",
"436 12 LINE",
"441 12 LINE",
"664 600 LINE",
"668 600 LINE",
"671 512 OFFCURVE",
"673 427 OFFCURVE",
"673 339 CURVE SMOOTH",
"673 249 OFFCURVE",
"671 158 OFFCURVE",
"668 67 CURVE",
"667 31 OFFCURVE",
"597 24 OFFCURVE",
"555 20 CURVE",
"553 15 OFFCURVE",
"553 11 OFFCURVE",
"553 7 CURVE SMOOTH",
"553 4 OFFCURVE",
"554 0 OFFCURVE",
"555 -3 CURVE",
"610 -1 OFFCURVE",
"667 0 OFFCURVE",
"725 0 CURVE SMOOTH",
"782 0 OFFCURVE",
"840 -1 OFFCURVE",
"895 -3 CURVE",
"896 0 OFFCURVE",
"897 4 OFFCURVE",
"897 7 CURVE SMOOTH",
"897 11 OFFCURVE",
"896 16 OFFCURVE",
"895 20 CURVE",
"853 24 OFFCURVE",
"783 31 OFFCURVE",
"782 67 CURVE",
"778 169 OFFCURVE",
"776 272 OFFCURVE",
"776 375 CURVE SMOOTH",
"776 465 OFFCURVE",
"777 556 OFFCURVE",
"781 648 CURVE",
"782 684 OFFCURVE",
"852 691 OFFCURVE",
"894 695 CURVE",
"895 699 OFFCURVE",
"896 703 OFFCURVE",
"896 707 CURVE SMOOTH",
"896 711 OFFCURVE",
"895 714 OFFCURVE",
"894 718 CURVE",
"839 716 OFFCURVE",
"781 714 OFFCURVE",
"723 714 CURVE",
"667 714 LINE",
"470 202 LINE",
"468 202 LINE",
"279 714 LINE",
"176 714 OFFCURVE",
"71 717 OFFCURVE",
"48 718 CURVE",
"46 714 OFFCURVE",
"46 711 OFFCURVE",
"46 708 CURVE SMOOTH",
"46 705 OFFCURVE",
"46 703 OFFCURVE",
"48 699 CURVE",
"120 689 OFFCURVE",
"141 682 OFFCURVE",
"143 602 CURVE SMOOTH",
"145 522 OFFCURVE",
"146 445 OFFCURVE",
"146 375 CURVE SMOOTH",
"146 272 OFFCURVE",
"144 176 OFFCURVE",
"140 74 CURVE"
);
}
);
width = 932;
}
);
unicode = 004D;
},
{
glyphname = N;
layers = (
{
background = {
paths = (
{
closed = 1;
nodes = (
"273 491 OFFCURVE",
"297 467 OFFCURVE",
"325 467 CURVE SMOOTH",
"353 467 OFFCURVE",
"377 491 OFFCURVE",
"377 519 CURVE SMOOTH",
"377 547 OFFCURVE",
"353 571 OFFCURVE",
"325 571 CURVE SMOOTH",
"297 571 OFFCURVE",
"273 547 OFFCURVE",
"273 519 CURVE SMOOTH"
);
}
);
};
hints = (
{
place = "{146, 27}";
},
{
place = "{686, 22}";
},
{
place = "{713, -27}";
},
{
horizontal = 1;
place = "{-2, 21}";
},
{
horizontal = 1;
place = "{0, -20}";
target = down;
type = TopGhost;
},
{
horizontal = 1;
place = "{751, -20}";
target = down;
type = TopGhost;
}
);
layerId = UUID0;
paths = (
{
closed = 1;
nodes = (
"140 33 OFFCURVE",
"74 24 OFFCURVE",
"32 20 CURVE",
"30 15 OFFCURVE",
"30 11 OFFCURVE",
"30 7 CURVE SMOOTH",
"30 4 OFFCURVE",
"31 0 OFFCURVE",
"32 -3 CURVE",
"124 0 OFFCURVE",
"126 0 OFFCURVE",
"163 0 CURVE SMOOTH",
"192 0 OFFCURVE",
"250 -1 OFFCURVE",
"302 -3 CURVE",
"303 0 OFFCURVE",
"304 4 OFFCURVE",
"304 7 CURVE SMOOTH",
"304 11 OFFCURVE",
"303 15 OFFCURVE",
"302 20 CURVE",
"260 24 OFFCURVE",
"195 33 OFFCURVE",
"194 74 CURVE",
"191 165 OFFCURVE",
"189 249 OFFCURVE",
"189 339 CURVE SMOOTH",
"189 418 OFFCURVE",
"190 510 OFFCURVE",
"192 594 CURVE",
"197 594 LINE",
"682 -3 LINE",
"691 -2 LINE",
"687 90 OFFCURVE",
"686 250 OFFCURVE",
"686 340 CURVE SMOOTH",
"686 443 OFFCURVE",
"688 539 OFFCURVE",
"692 641 CURVE",
"693 682 OFFCURVE",
"758 691 OFFCURVE",
"800 695 CURVE",
"802 700 OFFCURVE",
"802 704 OFFCURVE",
"802 708 CURVE SMOOTH",
"802 711 OFFCURVE",
"801 715 OFFCURVE",
"800 718 CURVE",
"708 715 OFFCURVE",
"706 715 OFFCURVE",
"669 715 CURVE SMOOTH",
"640 715 OFFCURVE",
"582 716 OFFCURVE",
"530 718 CURVE",
"529 715 OFFCURVE",
"528 711 OFFCURVE",
"528 708 CURVE SMOOTH",
"528 704 OFFCURVE",
"529 700 OFFCURVE",
"530 695 CURVE",
"572 691 OFFCURVE",
"637 682 OFFCURVE",
"638 641 CURVE",
"641 550 OFFCURVE",
"643 466 OFFCURVE",
"643 376 CURVE SMOOTH",
"643 319 OFFCURVE",
"642 272 OFFCURVE",
"641 225 CURVE",
"637 225 LINE",
"637 225 OFFCURVE",
"604 253 OFFCURVE",
"240 714 CURVE",
"178 714 OFFCURVE",
"98 715 OFFCURVE",
"38 718 CURVE",
"36 715 OFFCURVE",
"35 710 OFFCURVE",
"35 706 CURVE SMOOTH",
"35 702 OFFCURVE",
"36 699 OFFCURVE",
"38 695 CURVE",
"81 692 OFFCURVE",
"112 681 OFFCURVE",
"142 655 CURVE",
"145 566 OFFCURVE",
"146 460 OFFCURVE",
"146 375 CURVE SMOOTH",
"146 272 OFFCURVE",
"144 176 OFFCURVE",
"140 74 CURVE"
);
}
);
width = 832;
}
);
unicode = 004E;
},
{
glyphname = O;
layers = (
{
layerId = UUID0;
paths = (
{
closed = 1;
nodes = (
"65 56 OFFCURVE",
"291 -20 OFFCURVE",
"435 -20 CURVE SMOOTH",
"579 -20 OFFCURVE",
"805 56 OFFCURVE",
"805 356 CURVE SMOOTH",
"805 656 OFFCURVE",
"579 734 OFFCURVE",
"435 734 CURVE SMOOTH",
"291 734 OFFCURVE",
"65 656 OFFCURVE",
"65 356 CURVE SMOOTH"
);
},
{
closed = 1;
nodes = (
"676 206 OFFCURVE",
"618 15 OFFCURVE",
"435 15 CURVE SMOOTH",
"252 15 OFFCURVE",
"194 206 OFFCURVE",
"194 356 CURVE SMOOTH",
"194 506 OFFCURVE",
"252 699 OFFCURVE",
"435 699 CURVE SMOOTH",
"618 699 OFFCURVE",
"676 506 OFFCURVE",
"676 356 CURVE SMOOTH"
);
}
);
width = 870;
}
);
unicode = 004F;
},
{
glyphname = Oslash;
layers = (
{
hints = (
{
place = "{43, 113}";
},
{
place = "{731, 113}";
},
{
horizontal = 1;
place = "{-9, 44}";
},
{
horizontal = 1;
place = "{756, 44}";
}
);
layerId = UUID0;
paths = (
{
closed = 1;
nodes = (
"760 759 LINE",
"717 791 LINE",
"638 681 LINE",
"571 720 OFFCURVE",
"496 734 OFFCURVE",
"435 734 CURVE SMOOTH",
"291 734 OFFCURVE",
"65 656 OFFCURVE",
"65 356 CURVE SMOOTH",
"65 209 OFFCURVE",
"119 116 OFFCURVE",
"192 59 CURVE",
"109 -57 LINE",
"152 -89 LINE",
"236 29 LINE",
"302 -7 OFFCURVE",
"375 -20 OFFCURVE",
"435 -20 CURVE SMOOTH",
"579 -20 OFFCURVE",
"805 56 OFFCURVE",
"805 356 CURVE SMOOTH",
"805 500 OFFCURVE",
"752 593 OFFCURVE",
"682 650 CURVE"
);
},
{
closed = 1;
nodes = (
"194 506 OFFCURVE",
"252 699 OFFCURVE",
"435 699 CURVE SMOOTH",
"507 699 OFFCURVE",
"559 669 OFFCURVE",
"597 623 CURVE",
"244 132 LINE",
"208 198 OFFCURVE",
"194 282 OFFCURVE",
"194 356 CURVE SMOOTH"
);
},
{
closed = 1;
nodes = (
"676 206 OFFCURVE",
"618 15 OFFCURVE",
"435 15 CURVE SMOOTH",
"365 15 OFFCURVE",
"314 43 OFFCURVE",
"277 85 CURVE",
"628 575 LINE",
"662 510 OFFCURVE",
"676 428 OFFCURVE",
"676 356 CURVE SMOOTH"
);
}
);
width = 870;
}
);
unicode = 00D8;
},
{
glyphname = OE;
layers = (
{
hints = (
{
place = "{44, 113}";
},
{
place = "{570, 98}";
},
{
place = "{902, 37}";
},
{
place = "{1050, 38}";
},
{
horizontal = 1;
place = "{800, -41}";
},
{
horizontal = 1;
place = "{791, -44}";
},
{
horizontal = 1;
place = "{379, 44}";
},
{
horizontal = 1;
place = "{0, 44}";
},
{
horizontal = 1;
place = "{-9, 41}";
}
);
layerId = UUID0;
paths = (
{
closed = 1;
nodes = (
"65 56 OFFCURVE",
"291 -20 OFFCURVE",
"435 -20 CURVE SMOOTH",
"474 -20 OFFCURVE",
"524 -14 OFFCURVE",
"572 0 CURVE",
"1091 0 LINE",
"1100 73 OFFCURVE",
"1133 126 OFFCURVE",
"1163 182 CURVE",
"1160 188 OFFCURVE",
"1154 192 OFFCURVE",
"1146 195 CURVE",
"1102 113 OFFCURVE",
"1017 43 OFFCURVE",
"818 30 CURVE",
"672 30 LINE",
"669 121 OFFCURVE",
"667 250 OFFCURVE",
"667 343 CURVE",
"796 343 LINE",
"883 343 OFFCURVE",
"909 268 OFFCURVE",
"951 192 CURVE",
"959 195 OFFCURVE",
"967 199 OFFCURVE",
"970 205 CURVE",
"943 251 OFFCURVE",
"921 304 OFFCURVE",
"921 358 CURVE SMOOTH",
"921 398 OFFCURVE",
"943 464 OFFCURVE",
"970 511 CURVE",
"967 517 OFFCURVE",
"959 521 OFFCURVE",
"951 524 CURVE",
"908 442 OFFCURVE",
"883 373 OFFCURVE",
"796 373 CURVE",
"667 373 LINE",
"667 471 OFFCURVE",
"669 593 OFFCURVE",
"672 684 CURVE",
"798 684 LINE",
"997 671 OFFCURVE",
"1082 601 OFFCURVE",
"1126 519 CURVE",
"1134 522 OFFCURVE",
"1140 526 OFFCURVE",
"1143 532 CURVE",
"1113 584 OFFCURVE",
"1080 645 OFFCURVE",
"1071 718 CURVE",
"940 714 OFFCURVE",
"710 715 OFFCURVE",
"571 714 CURVE",
"523 728 OFFCURVE",
"474 734 OFFCURVE",
"435 734 CURVE SMOOTH",
"291 734 OFFCURVE",
"65 656 OFFCURVE",
"65 356 CURVE SMOOTH"
);
},
{
closed = 1;
nodes = (
"194 506 OFFCURVE",
"252 699 OFFCURVE",
"435 699 CURVE SMOOTH",
"480 699 OFFCURVE",
"523 686 OFFCURVE",
"559 665 CURVE",
"563 575 OFFCURVE",
"564 461 OFFCURVE",
"564 375 CURVE SMOOTH",
"564 280 OFFCURVE",
"562 149 OFFCURVE",
"559 49 CURVE",
"524 27 OFFCURVE",
"482 15 OFFCURVE",
"435 15 CURVE SMOOTH",
"252 15 OFFCURVE",
"194 206 OFFCURVE",
"194 356 CURVE SMOOTH"
);
}
);
width = 1183;
}
);
unicode = 0152;
},
{
glyphname = P;
layers = (
{
layerId = UUID0;
paths = (
{
closed = 1;
nodes = (
"154 247 OFFCURVE",
"153 161 OFFCURVE",
"150 67 CURVE",
"149 31 OFFCURVE",
"79 24 OFFCURVE",
"37 20 CURVE",
"35 15 OFFCURVE",
"35 11 OFFCURVE",
"35 7 CURVE SMOOTH",
"35 4 OFFCURVE",
"36 0 OFFCURVE",
"37 -3 CURVE",
"92 -1 OFFCURVE",
"149 0 OFFCURVE",
"207 0 CURVE SMOOTH",
"264 0 OFFCURVE",
"322 -1 OFFCURVE",
"377 -3 CURVE",
"378 0 OFFCURVE",
"379 4 OFFCURVE",
"379 7 CURVE SMOOTH",
"379 11 OFFCURVE",
"378 15 OFFCURVE",
"377 20 CURVE",
"335 24 OFFCURVE",
"265 31 OFFCURVE",
"264 67 CURVE",
"262 159 OFFCURVE",
"261 242 OFFCURVE",
"261 324 CURVE",
"304 302 OFFCURVE",
"349 297 OFFCURVE",
"379 297 CURVE SMOOTH",
"530 297 OFFCURVE",
"606 388 OFFCURVE",
"606 505 CURVE SMOOTH",
"606 629 OFFCURVE",
"521 718 OFFCURVE",
"349 718 CURVE SMOOTH",
"297 718 OFFCURVE",
"224 714 OFFCURVE",
"178 714 CURVE SMOOTH",
"134 714 OFFCURVE",
"87 717 OFFCURVE",
"44 718 CURVE",
"43 714 OFFCURVE",
"42 712 OFFCURVE",
"42 707 CURVE SMOOTH",
"42 703 OFFCURVE",
"43 699 OFFCURVE",
"44 695 CURVE",
"83 691 OFFCURVE",
"145 685 OFFCURVE",
"149 653 CURVE",
"151 538 OFFCURVE",
"154 437 OFFCURVE",
"154 331 CURVE SMOOTH"
);
},
{
closed = 1;
nodes = (
"277 685 OFFCURVE",
"290 686 OFFCURVE",
"301 686 CURVE SMOOTH",
"442 686 OFFCURVE",
"479 603 OFFCURVE",
"479 506 CURVE SMOOTH",
"479 405 OFFCURVE",
"435 339 OFFCURVE",
"341 339 CURVE SMOOTH",
"313 339 OFFCURVE",
"287 345 OFFCURVE",
"261 357 CURVE",
"261 463 OFFCURVE",
"262 567 OFFCURVE",
"264 684 CURVE"
);
}
);
width = 641;
}
);
unicode = 0050;
},
{
glyphname = Thorn;
layers = (
{
hints = (
{
place = "{127, 97}";
},
{
place = "{582, 113}";
},
{
horizontal = 1;
place = "{0, 38}";
},
{
horizontal = 1;
place = "{133, 44}";
},
{
horizontal = 1;
place = "{645, 44}";
},
{
horizontal = 1;
place = "{753, 38}";
}
);
layerId = UUID0;
paths = (
{
closed = 1;
nodes = (
"265 684 OFFCURVE",
"336 691 OFFCURVE",
"378 695 CURVE",
"379 698 OFFCURVE",
"380 703 OFFCURVE",
"380 707 CURVE SMOOTH",
"380 711 OFFCURVE",
"379 714 OFFCURVE",
"378 718 CURVE",
"323 716 OFFCURVE",
"265 714 OFFCURVE",
"208 714 CURVE SMOOTH",
"150 714 OFFCURVE",
"93 716 OFFCURVE",
"38 718 CURVE",
"37 715 OFFCURVE",
"36 711 OFFCURVE",
"36 707 CURVE SMOOTH",
"36 703 OFFCURVE",
"37 699 OFFCURVE",
"38 695 CURVE",
"80 691 OFFCURVE",
"150 684 OFFCURVE",
"151 648 CURVE",
"155 556 OFFCURVE",
"156 465 OFFCURVE",
"156 375 CURVE SMOOTH",
"156 272 OFFCURVE",
"154 169 OFFCURVE",
"150 67 CURVE",
"149 31 OFFCURVE",
"79 24 OFFCURVE",
"37 20 CURVE",
"35 15 OFFCURVE",
"35 11 OFFCURVE",
"35 7 CURVE SMOOTH",
"35 4 OFFCURVE",
"36 0 OFFCURVE",
"37 -3 CURVE",
"92 -1 OFFCURVE",
"149 0 OFFCURVE",
"207 0 CURVE SMOOTH",
"264 0 OFFCURVE",
"322 -1 OFFCURVE",
"377 -3 CURVE",
"378 0 OFFCURVE",
"379 4 OFFCURVE",
"379 7 CURVE SMOOTH",
"379 11 OFFCURVE",
"379 14 OFFCURVE",
"377 20 CURVE",
"335 24 OFFCURVE",
"265 31 OFFCURVE",
"264 67 CURVE",
"262 106 OFFCURVE",
"261 145 OFFCURVE",
"260 183 CURVE",
"306 164 OFFCURVE",
"353 162 OFFCURVE",
"385 162 CURVE SMOOTH",
"536 162 OFFCURVE",
"612 260 OFFCURVE",
"612 377 CURVE SMOOTH",
"612 501 OFFCURVE",
"527 583 OFFCURVE",
"391 583 CURVE SMOOTH",
"334 583 OFFCURVE",
"292 576 OFFCURVE",
"262 563 CURVE",
"263 591 OFFCURVE",
"263 620 OFFCURVE",
"265 648 CURVE"
);
},
{
closed = 1;
nodes = (
"448 541 OFFCURVE",
"485 475 OFFCURVE",
"485 378 CURVE SMOOTH",
"485 277 OFFCURVE",
"441 204 OFFCURVE",
"347 204 CURVE SMOOTH",
"316 204 OFFCURVE",
"288 206 OFFCURVE",
"260 215 CURVE",
"259 257 OFFCURVE",
"259 298 OFFCURVE",
"259 339 CURVE SMOOTH",
"259 402 OFFCURVE",
"259 465 OFFCURVE",
"261 528 CURVE",
"281 535 OFFCURVE",
"300 541 OFFCURVE",
"352 541 CURVE SMOOTH"
);
}
);
width = 652;
}
);
unicode = 00DE;
},
{
glyphname = Q;
layers = (
{
hints = (
{
place = "{65, 157}";
},
{
place = "{682, 157}";
},
{
horizontal = 1;
place = "{-205, 21}";
},
{
horizontal = 1;
place = "{773, -20}";
target = down;
type = TopGhost;
}
);
layerId = UUID0;
paths = (
{
closed = 1;
nodes = (
"805 656 OFFCURVE",
"579 734 OFFCURVE",
"435 734 CURVE SMOOTH",
"291 734 OFFCURVE",
"65 656 OFFCURVE",
"65 356 CURVE SMOOTH",
"65 104 OFFCURVE",
"223 10 OFFCURVE",
"359 -13 CURVE",
"436 -167 OFFCURVE",
"604 -238 OFFCURVE",
"781 -238 CURVE",
"783 -236 OFFCURVE",
"784 -232 OFFCURVE",
"784 -227 CURVE SMOOTH",
"784 -223 OFFCURVE",
"783 -219 OFFCURVE",
"780 -215 CURVE",
"597 -155 OFFCURVE",
"557 -79 OFFCURVE",
"525 -10 CURVE",
"658 18 OFFCURVE",
"805 114 OFFCURVE",
"805 356 CURVE SMOOTH"
);
},
{
closed = 1;
nodes = (
"676 206 OFFCURVE",
"618 15 OFFCURVE",
"435 15 CURVE SMOOTH",
"252 15 OFFCURVE",
"194 206 OFFCURVE",
"194 356 CURVE SMOOTH",
"194 506 OFFCURVE",
"252 699 OFFCURVE",
"435 699 CURVE SMOOTH",
"618 699 OFFCURVE",
"676 506 OFFCURVE",
"676 356 CURVE SMOOTH"
);
}
);
width = 870;
}
);
unicode = 0051;
},
{
glyphname = R;
layers = (
{
layerId = UUID0;
paths = (
{
closed = 1;
nodes = (
"150 31 OFFCURVE",
"79 24 OFFCURVE",
"37 20 CURVE",
"35 15 OFFCURVE",
"35 11 OFFCURVE",
"35 7 CURVE SMOOTH",
"35 4 OFFCURVE",
"36 0 OFFCURVE",
"37 -3 CURVE",
"92 -1 OFFCURVE",
"149 0 OFFCURVE",
"207 0 CURVE SMOOTH",
"264 0 OFFCURVE",
"322 -1 OFFCURVE",
"377 -3 CURVE",
"378 0 OFFCURVE",
"379 4 OFFCURVE",
"379 7 CURVE SMOOTH",
"379 11 OFFCURVE",
"378 15 OFFCURVE",
"377 20 CURVE",
"335 24 OFFCURVE",
"265 31 OFFCURVE",
"264 67 CURVE",
"261 149 OFFCURVE",
"259 230 OFFCURVE",
"259 312 CURVE",
"287 305 OFFCURVE",
"315 301 OFFCURVE",
"341 301 CURVE",
"405 182 OFFCURVE",
"478 86 OFFCURVE",
"552 0 CURVE",
"618 -1 OFFCURVE",
"685 0 OFFCURVE",
"751 -3 CURVE",
"752 0 OFFCURVE",
"753 4 OFFCURVE",
"753 8 CURVE SMOOTH",
"753 12 OFFCURVE",
"752 16 OFFCURVE",
"751 20 CURVE",
"667 28 OFFCURVE",
"601 99 OFFCURVE",
"538 183 CURVE SMOOTH",
"506 225 OFFCURVE",
"475 268 OFFCURVE",
"448 316 CURVE",
"545 348 OFFCURVE",
"603 428 OFFCURVE",
"603 521 CURVE SMOOTH",
"603 635 OFFCURVE",
"518 718 OFFCURVE",
"370 718 CURVE SMOOTH",
"313 718 OFFCURVE",
"259 714 OFFCURVE",
"208 714 CURVE SMOOTH",
"154 714 OFFCURVE",
"91 716 OFFCURVE",
"38 718 CURVE",
"37 714 OFFCURVE",
"36 711 OFFCURVE",
"36 707 CURVE SMOOTH",
"36 703 OFFCURVE",
"37 699 OFFCURVE",
"38 695 CURVE",
"80 691 OFFCURVE",
"150 684 OFFCURVE",
"151 648 CURVE SMOOTH",
"155 556 OFFCURVE",
"156 465 OFFCURVE",
"156 375 CURVE SMOOTH",
"156 272 OFFCURVE",
"154 169 OFFCURVE",
"150 67 CURVE"
);
},
{
closed = 1;
nodes = (
"265 684 LINE",
"287 686 OFFCURVE",
"301 686 OFFCURVE",
"323 686 CURVE SMOOTH",
"425 686 OFFCURVE",
"476 614 OFFCURVE",
"476 521 CURVE SMOOTH",
"476 437 OFFCURVE",
"439 338 OFFCURVE",
"328 338 CURVE SMOOTH",
"307 338 OFFCURVE",
"284 341 OFFCURVE",
"259 349 CURVE",
"259 449 OFFCURVE",
"261 586 OFFCURVE",
"264 684 CURVE"
);
}
);
width = 758;
}
);
unicode = 0052;
},
{
glyphname = S;
layers = (
{
layerId = UUID0;
paths = (
{
closed = 1;
nodes = (
"512 510 OFFCURVE",
"516 509 OFFCURVE",
"520 509 CURVE SMOOTH",
"524 509 OFFCURVE",
"527 510 OFFCURVE",
"531 511 CURVE",
"523 541 OFFCURVE",
"519 585 OFFCURVE",
"519 629 CURVE SMOOTH",
"519 650 OFFCURVE",
"520 670 OFFCURVE",
"522 689 CURVE",
"480 707 OFFCURVE",
"407 734 OFFCURVE",
"321 734 CURVE SMOOTH",
"220 734 OFFCURVE",
"86 691 OFFCURVE",
"86 533 CURVE SMOOTH",
"86 411 OFFCURVE",
"181 348 OFFCURVE",
"314 315 CURVE SMOOTH",
"431 286 OFFCURVE",
"461 247 OFFCURVE",
"461 161 CURVE SMOOTH",
"461 77 OFFCURVE",
"407 16 OFFCURVE",
"302 16 CURVE SMOOTH",
"216 16 OFFCURVE",
"112 85 OFFCURVE",
"83 260 CURVE",
"79 262 OFFCURVE",
"75 263 OFFCURVE",
"71 263 CURVE SMOOTH",
"68 263 OFFCURVE",
"64 262 OFFCURVE",
"60 260 CURVE",
"69 207 OFFCURVE",
"73 153 OFFCURVE",
"73 101 CURVE SMOOTH",
"73 79 OFFCURVE",
"72 57 OFFCURVE",
"71 36 CURVE",
"123 12 OFFCURVE",
"210 -20 OFFCURVE",
"302 -20 CURVE SMOOTH",
"417 -20 OFFCURVE",
"567 50 OFFCURVE",
"567 205 CURVE SMOOTH",
"567 367 OFFCURVE",
"449 408 OFFCURVE",
"337 435 CURVE SMOOTH",
"198 469 OFFCURVE",
"178 508 OFFCURVE",
"178 581 CURVE SMOOTH",
"178 651 OFFCURVE",
"228 699 OFFCURVE",
"321 699 CURVE SMOOTH",
"413 699 OFFCURVE",
"483 631 OFFCURVE",
"508 511 CURVE"
);
}
);
width = 627;
}
);
unicode = 0053;
},
{
glyphname = T;
layers = (
{
layerId = UUID0;
paths = (
{
closed = 1;
nodes = (
"340 31 OFFCURVE",
"269 24 OFFCURVE",
"227 20 CURVE",
"226 15 OFFCURVE",
"225 11 OFFCURVE",
"225 7 CURVE SMOOTH",
"225 4 OFFCURVE",
"226 0 OFFCURVE",
"227 -3 CURVE",
"282 -1 OFFCURVE",
"339 0 OFFCURVE",
"397 0 CURVE SMOOTH",
"454 0 OFFCURVE",
"512 -1 OFFCURVE",
"567 -3 CURVE",
"568 0 OFFCURVE",
"569 4 OFFCURVE",
"569 7 CURVE SMOOTH",
"569 11 OFFCURVE",
"568 15 OFFCURVE",
"567 20 CURVE",
"525 24 OFFCURVE",
"455 31 OFFCURVE",
"454 67 CURVE",
"450 164 OFFCURVE",
"449 270 OFFCURVE",
"449 377 CURVE SMOOTH",
"449 482 OFFCURVE",
"450 589 OFFCURVE",
"454 686 CURVE",
"654 672 OFFCURVE",
"729 601 OFFCURVE",
"773 519 CURVE",
"781 522 OFFCURVE",
"787 526 OFFCURVE",
"790 532 CURVE",
"762 587 OFFCURVE",
"727 645 OFFCURVE",
"718 718 CURVE",
"611 714 OFFCURVE",
"504 714 OFFCURVE",
"397 714 CURVE SMOOTH",
"291 714 OFFCURVE",
"183 714 OFFCURVE",
"77 718 CURVE",
"68 645 OFFCURVE",
"33 586 OFFCURVE",
"5 532 CURVE",
"8 526 OFFCURVE",
"14 522 OFFCURVE",
"22 519 CURVE",
"64 598 OFFCURVE",
"145 675 OFFCURVE",
"340 686 CURVE",
"343 589 OFFCURVE",
"345 482 OFFCURVE",
"345 377 CURVE SMOOTH",
"345 270 OFFCURVE",
"343 164 OFFCURVE",
"340 67 CURVE"
);
}
);
width = 795;
}
);
unicode = 0054;
},
{
glyphname = U;
layers = (
{
layerId = UUID0;
paths = (
{
closed = 1;
nodes = (
"249 684 OFFCURVE",
"320 691 OFFCURVE",
"362 695 CURVE",
"363 699 OFFCURVE",
"364 703 OFFCURVE",
"364 707 CURVE SMOOTH",
"364 711 OFFCURVE",
"363 714 OFFCURVE",
"362 718 CURVE",
"307 716 OFFCURVE",
"249 715 OFFCURVE",
"192 715 CURVE SMOOTH",
"134 715 OFFCURVE",
"77 716 OFFCURVE",
"22 718 CURVE",
"21 714 OFFCURVE",
"20 711 OFFCURVE",
"20 707 CURVE SMOOTH",
"20 703 OFFCURVE",
"21 699 OFFCURVE",
"22 695 CURVE",
"64 691 OFFCURVE",
"134 684 OFFCURVE",
"135 648 CURVE",
"139 555 OFFCURVE",
"140 463 OFFCURVE",
"140 371 CURVE",
"140 291 LINE",
"140 35 OFFCURVE",
"272 -20 OFFCURVE",
"454 -20 CURVE SMOOTH",
"565 -20 OFFCURVE",
"733 43 OFFCURVE",
"733 291 CURVE SMOOTH",
"733 408 OFFCURVE",
"733 525 OFFCURVE",
"738 641 CURVE",
"740 682 OFFCURVE",
"804 691 OFFCURVE",
"846 695 CURVE",
"848 700 OFFCURVE",
"848 704 OFFCURVE",
"848 708 CURVE SMOOTH",
"848 711 OFFCURVE",
"847 715 OFFCURVE",
"846 718 CURVE",
"754 715 OFFCURVE",
"752 715 OFFCURVE",
"715 715 CURVE SMOOTH",
"686 715 OFFCURVE",
"628 716 OFFCURVE",
"576 718 CURVE",
"575 715 OFFCURVE",
"574 711 OFFCURVE",
"574 708 CURVE SMOOTH",
"574 704 OFFCURVE",
"575 700 OFFCURVE",
"576 695 CURVE",
"618 691 OFFCURVE",
"683 682 OFFCURVE",
"684 641 CURVE",
"687 524 OFFCURVE",
"687 408 OFFCURVE",
"687 291 CURVE SMOOTH",
"687 120 OFFCURVE",
"602 26 OFFCURVE",
"452 26 CURVE SMOOTH",
"300 26 OFFCURVE",
"247 110 OFFCURVE",
"247 291 CURVE",
"247 517 OFFCURVE",
"247 583 OFFCURVE",
"249 648 CURVE"
);
}
);
width = 863;
}
);
unicode = 0055;
},
{
glyphname = V;
layers = (
{
hints = (
{
horizontal = 1;
place = "{-10, 21}";
},
{
horizontal = 1;
place = "{730, -20}";
target = down;
type = TopGhost;
},
{
horizontal = 1;
place = "{731, -20}";
target = down;
type = TopGhost;
}
);
layerId = UUID0;
paths = (
{
closed = 1;
nodes = (
"688 641 LINE",
"707 681 OFFCURVE",
"744 691 OFFCURVE",
"786 695 CURVE",
"788 700 OFFCURVE",
"788 704 OFFCURVE",
"788 708 CURVE SMOOTH",
"788 711 OFFCURVE",
"787 715 OFFCURVE",
"786 718 CURVE",
"749 716 OFFCURVE",
"700 715 OFFCURVE",
"675 715 CURVE SMOOTH",
"647 715 OFFCURVE",
"603 716 OFFCURVE",
"561 718 CURVE",
"560 715 OFFCURVE",
"559 711 OFFCURVE",
"559 708 CURVE SMOOTH",
"559 704 OFFCURVE",
"560 700 OFFCURVE",
"561 695 CURVE",
"614 689 OFFCURVE",
"639 683 OFFCURVE",
"639 660 CURVE SMOOTH",
"639 655 OFFCURVE",
"638 646 OFFCURVE",
"636 641 CURVE SMOOTH",
"446 163 LINE",
"441 163 LINE",
"238 635 LINE SMOOTH",
"237 638 OFFCURVE",
"231 653 OFFCURVE",
"231 659 CURVE SMOOTH",
"231 684 OFFCURVE",
"255 692 OFFCURVE",
"341 695 CURVE",
"342 698 OFFCURVE",
"343 703 OFFCURVE",
"343 707 CURVE SMOOTH",
"343 711 OFFCURVE",
"342 714 OFFCURVE",
"341 718 CURVE",
"286 715 OFFCURVE",
"233 714 OFFCURVE",
"176 714 CURVE SMOOTH",
"118 714 OFFCURVE",
"57 716 OFFCURVE",
"2 718 CURVE",
"1 715 OFFCURVE",
"0 711 OFFCURVE",
"0 707 CURVE SMOOTH",
"0 703 OFFCURVE",
"1 699 OFFCURVE",
"2 695 CURVE",
"44 691 OFFCURVE",
"98 678 OFFCURVE",
"117 635 CURVE SMOOTH",
"401 -14 LINE",
"424 -14 LINE"
);
}
);
width = 783;
}
);
unicode = 0056;
},
{
glyphname = W;
layers = (
{
hints = (
{
horizontal = 1;
place = "{-6, 21}";
},
{
horizontal = 1;
place = "{0, -20}";
target = down;
type = TopGhost;
}
);
layerId = UUID0;
paths = (
{
closed = 1;
nodes = (
"417 163 LINE",
"225 635 LINE",
"223 642 OFFCURVE",
"218 653 OFFCURVE",
"218 662 CURVE SMOOTH",
"218 678 OFFCURVE",
"231 692 OFFCURVE",
"292 695 CURVE",
"293 698 OFFCURVE",
"294 703 OFFCURVE",
"294 707 CURVE SMOOTH",
"294 711 OFFCURVE",
"293 714 OFFCURVE",
"292 718 CURVE",
"240 715 OFFCURVE",
"220 714 OFFCURVE",
"166 714 CURVE SMOOTH",
"112 714 OFFCURVE",
"54 716 OFFCURVE",
"2 718 CURVE",
"1 715 OFFCURVE",
"0 711 OFFCURVE",
"0 707 CURVE SMOOTH",
"0 703 OFFCURVE",
"1 699 OFFCURVE",
"2 695 CURVE",
"42 691 OFFCURVE",
"93 678 OFFCURVE",
"111 635 CURVE",
"379 -14 LINE",
"401 -14 LINE",
"540 358 LINE",
"687 -14 LINE",
"709 -14 LINE",
"957 641 LINE",
"975 681 OFFCURVE",
"1010 691 OFFCURVE",
"1050 695 CURVE",
"1052 700 OFFCURVE",
"1052 704 OFFCURVE",
"1052 708 CURVE SMOOTH",
"1052 711 OFFCURVE",
"1051 715 OFFCURVE",
"1050 718 CURVE",
"1015 716 OFFCURVE",
"969 715 OFFCURVE",
"945 715 CURVE SMOOTH",
"919 715 OFFCURVE",
"870 716 OFFCURVE",
"830 718 CURVE",
"829 715 OFFCURVE",
"828 711 OFFCURVE",
"828 708 CURVE SMOOTH",
"828 704 OFFCURVE",
"829 700 OFFCURVE",
"830 695 CURVE",
"880 689 OFFCURVE",
"911 683 OFFCURVE",
"911 660 CURVE SMOOTH",
"911 655 OFFCURVE",
"910 646 OFFCURVE",
"908 641 CURVE",
"730 163 LINE",
"725 163 LINE",
"545 635 LINE",
"544 638 OFFCURVE",
"538 653 OFFCURVE",
"538 659 CURVE SMOOTH",
"538 684 OFFCURVE",
"551 692 OFFCURVE",
"632 695 CURVE",
"633 698 OFFCURVE",
"634 703 OFFCURVE",
"634 707 CURVE SMOOTH",
"634 711 OFFCURVE",
"633 714 OFFCURVE",
"632 718 CURVE",
"580 715 OFFCURVE",
"540 714 OFFCURVE",
"486 714 CURVE SMOOTH",
"432 714 OFFCURVE",
"385 715 OFFCURVE",
"333 718 CURVE",
"332 715 OFFCURVE",
"331 711 OFFCURVE",
"331 707 CURVE SMOOTH",
"331 703 OFFCURVE",
"332 699 OFFCURVE",
"333 695 CURVE",
"373 691 OFFCURVE",
"414 678 OFFCURVE",
"431 635 CURVE",
"517 417 LINE",
"422 163 LINE"
);
}
);
width = 1047;
}
);
unicode = 0057;
},
{
glyphname = X;
layers = (
{
hints = (
{
horizontal = 1;
place = "{10, 21}";
},
{
horizontal = 1;
place = "{771, -20}";
target = down;
type = TopGhost;
}
);
layerId = UUID0;
paths = (
{
closed = 1;
nodes = (
"124 74 LINE",
"96 36 OFFCURVE",
"54 24 OFFCURVE",
"12 20 CURVE",
"10 15 OFFCURVE",
"10 11 OFFCURVE",
"10 7 CURVE SMOOTH",
"10 4 OFFCURVE",
"11 0 OFFCURVE",
"12 -3 CURVE",
"49 -1 OFFCURVE",
"108 0 OFFCURVE",
"133 0 CURVE SMOOTH",
"161 0 OFFCURVE",
"210 -1 OFFCURVE",
"252 -3 CURVE",
"253 0 OFFCURVE",
"254 4 OFFCURVE",
"254 7 CURVE SMOOTH",
"254 11 OFFCURVE",
"253 15 OFFCURVE",
"252 20 CURVE",
"207 25 OFFCURVE",
"170 32 OFFCURVE",
"170 54 CURVE SMOOTH",
"170 58 OFFCURVE",
"171 66 OFFCURVE",
"177 75 CURVE SMOOTH",
"349 311 LINE",
"498 74 LINE SMOOTH",
"500 71 OFFCURVE",
"503 62 OFFCURVE",
"503 53 CURVE SMOOTH",
"503 34 OFFCURVE",
"461 22 OFFCURVE",
"390 19 CURVE",
"389 16 OFFCURVE",
"388 11 OFFCURVE",
"388 7 CURVE SMOOTH",
"388 3 OFFCURVE",
"389 0 OFFCURVE",
"390 -4 CURVE",
"445 -1 OFFCURVE",
"503 0 OFFCURVE",
"560 0 CURVE SMOOTH",
"618 0 OFFCURVE",
"687 -2 OFFCURVE",
"742 -4 CURVE",
"743 -1 OFFCURVE",
"744 3 OFFCURVE",
"744 7 CURVE SMOOTH",
"744 11 OFFCURVE",
"743 15 OFFCURVE",
"742 19 CURVE",
"700 23 OFFCURVE",
"649 34 OFFCURVE",
"619 74 CURVE",
"414 401 LINE",
"586 641 LINE SMOOTH",
"613 680 OFFCURVE",
"656 691 OFFCURVE",
"698 695 CURVE",
"700 700 OFFCURVE",
"700 704 OFFCURVE",
"700 708 CURVE SMOOTH",
"700 711 OFFCURVE",
"699 715 OFFCURVE",
"698 718 CURVE",
"661 716 OFFCURVE",
"602 715 OFFCURVE",
"577 715 CURVE SMOOTH",
"549 715 OFFCURVE",
"505 716 OFFCURVE",
"463 718 CURVE",
"462 715 OFFCURVE",
"461 711 OFFCURVE",
"461 708 CURVE SMOOTH",
"461 704 OFFCURVE",
"462 700 OFFCURVE",
"463 695 CURVE",
"508 690 OFFCURVE",
"540 683 OFFCURVE",
"540 661 CURVE SMOOTH",
"540 655 OFFCURVE",
"538 646 OFFCURVE",
"535 641 CURVE SMOOTH",
"390 438 LINE",
"270 629 LINE SMOOTH",
"258 649 OFFCURVE",
"257 653 OFFCURVE",
"257 659 CURVE SMOOTH",
"257 684 OFFCURVE",
"286 692 OFFCURVE",
"357 695 CURVE",
"358 698 OFFCURVE",
"359 703 OFFCURVE",
"359 707 CURVE SMOOTH",
"359 711 OFFCURVE",
"358 714 OFFCURVE",
"357 718 CURVE",
"302 715 OFFCURVE",
"259 714 OFFCURVE",
"202 714 CURVE SMOOTH",
"144 714 OFFCURVE",
"80 716 OFFCURVE",
"25 718 CURVE",
"24 715 OFFCURVE",
"23 711 OFFCURVE",
"23 707 CURVE SMOOTH",
"23 703 OFFCURVE",
"24 699 OFFCURVE",
"25 695 CURVE",
"67 691 OFFCURVE",
"108 687 OFFCURVE",
"138 648 CURVE",
"326 348 LINE"
);
}
);
width = 744;
}
);
unicode = 0058;
},
{
glyphname = Y;
layers = (
{
hints = (
{
place = "{438, -146}";
},
{
horizontal = 1;
place = "{32, 21}";
}
);
layerId = UUID0;
paths = (
{
closed = 1;
nodes = (
"242 637 LINE SMOOTH",
"235 651 OFFCURVE",
"234 653 OFFCURVE",
"234 659 CURVE SMOOTH",
"234 684 OFFCURVE",
"273 692 OFFCURVE",
"344 695 CURVE",
"345 698 OFFCURVE",
"346 703 OFFCURVE",
"346 707 CURVE SMOOTH",
"346 711 OFFCURVE",
"345 714 OFFCURVE",
"344 718 CURVE",
"289 715 OFFCURVE",
"236 714 OFFCURVE",
"179 714 CURVE SMOOTH",
"121 714 OFFCURVE",
"57 716 OFFCURVE",
"2 718 CURVE",
"1 715 OFFCURVE",
"0 711 OFFCURVE",
"0 707 CURVE SMOOTH",
"0 703 OFFCURVE",
"1 699 OFFCURVE",
"2 695 CURVE",
"44 691 OFFCURVE",
"87 683 OFFCURVE",
"115 648 CURVE",
"306 314 LINE",
"305 228 OFFCURVE",
"303 152 OFFCURVE",
"300 67 CURVE SMOOTH",
"299 31 OFFCURVE",
"229 24 OFFCURVE",
"187 20 CURVE",
"185 15 OFFCURVE",
"185 11 OFFCURVE",
"185 7 CURVE SMOOTH",
"185 4 OFFCURVE",
"186 0 OFFCURVE",
"187 -3 CURVE",
"242 -1 OFFCURVE",
"299 0 OFFCURVE",
"357 0 CURVE SMOOTH",
"414 0 OFFCURVE",
"472 -1 OFFCURVE",
"527 -3 CURVE",
"528 0 OFFCURVE",
"529 4 OFFCURVE",
"529 7 CURVE SMOOTH",
"529 11 OFFCURVE",
"529 14 OFFCURVE",
"527 20 CURVE",
"485 24 OFFCURVE",
"415 31 OFFCURVE",
"414 67 CURVE SMOOTH",
"411 152 OFFCURVE",
"409 229 OFFCURVE",
"409 314 CURVE",
"612 641 LINE SMOOTH",
"637 681 OFFCURVE",
"672 691 OFFCURVE",
"714 695 CURVE",
"716 700 OFFCURVE",
"716 704 OFFCURVE",
"716 708 CURVE SMOOTH",
"716 711 OFFCURVE",
"715 715 OFFCURVE",
"714 718 CURVE",
"677 716 OFFCURVE",
"628 715 OFFCURVE",
"603 715 CURVE SMOOTH",
"575 715 OFFCURVE",
"531 716 OFFCURVE",
"489 718 CURVE",
"488 715 OFFCURVE",
"487 711 OFFCURVE",
"487 708 CURVE SMOOTH",
"487 704 OFFCURVE",
"488 700 OFFCURVE",
"489 695 CURVE",
"534 690 OFFCURVE",
"566 683 OFFCURVE",
"566 661 CURVE SMOOTH",
"566 655 OFFCURVE",
"563 646 OFFCURVE",
"560 641 CURVE SMOOTH",
"396 368 LINE",
"392 368 LINE"
);
}
);
width = 716;
}
);
unicode = 0059;
},
{
glyphname = Z;
layers = (
{
hints = (
{
horizontal = 1;
place = "{724, 21}";
},
{
horizontal = 1;
place = "{751, -20}";
target = down;
type = TopGhost;
},
{
horizontal = 1;
place = "{0, -20}";
target = down;
type = TopGhost;
}
);
layerId = UUID0;
paths = (
{
closed = 1;
nodes = (
"196 639 OFFCURVE",
"254 685 OFFCURVE",
"492 686 CURVE",
"338 457 OFFCURVE",
"184 235 OFFCURVE",
"28 16 CURVE",
"28 10 OFFCURVE",
"32 0 OFFCURVE",
"35 -3 CURVE",
"88 0 OFFCURVE",
"101 0 OFFCURVE",
"139 0 CURVE SMOOTH",
"658 0 LINE",
"658 81 OFFCURVE",
"663 166 OFFCURVE",
"697 253 CURVE",
"694 259 OFFCURVE",
"686 262 OFFCURVE",
"678 263 CURVE",
"624 111 OFFCURVE",
"550 30 OFFCURVE",
"324 30 CURVE SMOOTH",
"163 30 LINE",
"316 255 OFFCURVE",
"470 477 OFFCURVE",
"625 696 CURVE",
"625 708 OFFCURVE",
"620 714 OFFCURVE",
"609 718 CURVE",
"560 714 OFFCURVE",
"552 714 OFFCURVE",
"511 714 CURVE SMOOTH",
"400 714 OFFCURVE",
"263 717 OFFCURVE",
"152 718 CURVE",
"131 652 OFFCURVE",
"94 584 OFFCURVE",
"40 527 CURVE",
"44 520 OFFCURVE",
"50 516 OFFCURVE",
"60 516 CURVE"
);
}
);
width = 717;
}
);
unicode = 005A;
},
{
glyphname = a;
layers = (
{
hints = (
{
horizontal = 1;
place = "{-7, 21}";
},
{
horizontal = 1;
place = "{446, -20}";
target = down;
type = TopGhost;
}
);
layerId = UUID0;
paths = (
{
closed = 1;
nodes = (
"83 281 OFFCURVE",
"113 262 OFFCURVE",
"139 262 CURVE SMOOTH",
"177 262 OFFCURVE",
"195 289 OFFCURVE",
"195 314 CURVE SMOOTH",
"195 340 OFFCURVE",
"182 361 OFFCURVE",
"147 366 CURVE",
"153 387 OFFCURVE",
"183 409 OFFCURVE",
"229 409 CURVE SMOOTH",
"275 409 OFFCURVE",
"309 380 OFFCURVE",
"309 311 CURVE SMOOTH",
"309 243 LINE",
"121 195 OFFCURVE",
"65 163 OFFCURVE",
"65 77 CURVE SMOOTH",
"65 47 OFFCURVE",
"80 -14 OFFCURVE",
"168 -14 CURVE SMOOTH",
"233 -14 OFFCURVE",
"281 39 OFFCURVE",
"309 65 CURVE",
"313 13 OFFCURVE",
"338 -7 OFFCURVE",
"368 -7 CURVE SMOOTH",
"420 -7 OFFCURVE",
"450 48 OFFCURVE",
"482 94 CURVE",
"478 103 OFFCURVE",
"469 109 OFFCURVE",
"458 110 CURVE",
"449 96 OFFCURVE",
"430 71 OFFCURVE",
"417 71 CURVE SMOOTH",
"399 71 OFFCURVE",
"397 86 OFFCURVE",
"397 98 CURVE SMOOTH",
"397 301 LINE SMOOTH",
"397 404 OFFCURVE",
"358 444 OFFCURVE",
"248 444 CURVE SMOOTH",
"162 444 OFFCURVE",
"83 395 OFFCURVE",
"83 321 CURVE SMOOTH"
);
},
{
closed = 1;
nodes = (
"309 110 LINE",
"290 85 OFFCURVE",
"257 48 OFFCURVE",
"213 48 CURVE SMOOTH",
"186 48 OFFCURVE",
"163 66 OFFCURVE",
"163 100 CURVE SMOOTH",
"163 149 OFFCURVE",
"187 184 OFFCURVE",
"309 212 CURVE"
);
}
);
width = 507;
}
);
unicode = 0061;
},
{
glyphname = ae;
layers = (
{
hints = (
{
place = "{25, 90}";
},
{
place = "{281, 82}";
},
{
place = "{542, 90}";
},
{
horizontal = 1;
place = "{444, -35}";
},
{
horizontal = 1;
place = "{252, 35}";
},
{
horizontal = 1;
place = "{233, 37}";
},
{
horizontal = 1;
place = "{-9, 46}";
}
);
layerId = UUID0;
paths = (
{
closed = 1;
nodes = (
"83 281 OFFCURVE",
"113 262 OFFCURVE",
"139 262 CURVE SMOOTH",
"177 262 OFFCURVE",
"195 289 OFFCURVE",
"195 314 CURVE SMOOTH",
"195 340 OFFCURVE",
"182 361 OFFCURVE",
"147 366 CURVE",
"153 387 OFFCURVE",
"183 409 OFFCURVE",
"229 409 CURVE SMOOTH",
"275 409 OFFCURVE",
"309 380 OFFCURVE",
"309 311 CURVE SMOOTH",
"309 243 LINE",
"121 195 OFFCURVE",
"65 163 OFFCURVE",
"65 77 CURVE SMOOTH",
"65 47 OFFCURVE",
"80 -14 OFFCURVE",
"168 -14 CURVE SMOOTH",
"246 -14 OFFCURVE",
"285 18 OFFCURVE",
"345 68 CURVE",
"383 10 OFFCURVE",
"445 -14 OFFCURVE",
"506 -14 CURVE SMOOTH",
"580 -14 OFFCURVE",
"659 24 OFFCURVE",
"693 116 CURVE",
"689 121 OFFCURVE",
"683 125 OFFCURVE",
"674 127 CURVE",
"651 97 OFFCURVE",
"627 47 OFFCURVE",
"549 47 CURVE SMOOTH",
"457 47 OFFCURVE",
"399 111 OFFCURVE",
"397 207 CURVE SMOOTH",
"397 212 LINE SMOOTH",
"397 229 OFFCURVE",
"398 244 OFFCURVE",
"399 259 CURVE",
"665 259 LINE",
"670 274 OFFCURVE",
"673 291 OFFCURVE",
"673 309 CURVE SMOOTH",
"673 376 OFFCURVE",
"635 444 OFFCURVE",
"523 444 CURVE SMOOTH",
"511 444 LINE",
"462 441 OFFCURVE",
"416 421 OFFCURVE",
"381 387 CURVE",
"360 427 OFFCURVE",
"319 444 OFFCURVE",
"248 444 CURVE SMOOTH",
"241 444 OFFCURVE",
"239 444 OFFCURVE",
"229 443 CURVE SMOOTH",
"147 436 OFFCURVE",
"83 388 OFFCURVE",
"83 321 CURVE SMOOTH"
);
},
{
closed = 1;
nodes = (
"309 87 LINE",
"284 65 OFFCURVE",
"257 48 OFFCURVE",
"213 48 CURVE SMOOTH",
"186 48 OFFCURVE",
"163 66 OFFCURVE",
"163 100 CURVE SMOOTH",
"163 149 OFFCURVE",
"187 184 OFFCURVE",
"309 212 CURVE"
);
},
{
closed = 1;
nodes = (
"567 412 OFFCURVE",
"585 369 OFFCURVE",
"585 324 CURVE SMOOTH",
"585 313 OFFCURVE",
"583 303 OFFCURVE",
"580 292 CURVE",
"404 292 LINE",
"423 379 OFFCURVE",
"471 412 OFFCURVE",
"511 412 CURVE SMOOTH"
);
}
);
width = 733;
}
);
unicode = 00E6;
},
{
glyphname = b;
layers = (
{
hints = (
{
place = "{86, 93}";
},
{
place = "{183, -97}";
},
{
horizontal = 1;
place = "{-11, 21}";
},
{
horizontal = 1;
place = "{728, -20}";
target = down;
type = TopGhost;
},
{
horizontal = 1;
place = "{0, -20}";
target = down;
type = TopGhost;
}
);
layerId = UUID0;
paths = (
{
closed = 1;
nodes = (
"1 698 OFFCURVE",
"0 695 OFFCURVE",
"0 691 CURVE SMOOTH",
"0 687 OFFCURVE",
"1 683 OFFCURVE",
"2 679 CURVE",
"44 677 OFFCURVE",
"76 671 OFFCURVE",
"96 659 CURVE",
"96 582 OFFCURVE",
"97 423 OFFCURVE",
"97 283 CURVE SMOOTH",
"97 195 OFFCURVE",
"97 96 OFFCURVE",
"96 48 CURVE",
"144 8 OFFCURVE",
"208 -14 OFFCURVE",
"272 -14 CURVE SMOOTH",
"443 -14 OFFCURVE",
"507 123 OFFCURVE",
"507 237 CURVE SMOOTH",
"507 366 OFFCURVE",
"435 444 OFFCURVE",
"337 444 CURVE SMOOTH",
"291 444 OFFCURVE",
"242 427 OFFCURVE",
"184 370 CURVE",
"184 729 LINE",
"181 735 OFFCURVE",
"175 739 OFFCURVE",
"167 742 CURVE",
"121 722 OFFCURVE",
"64 708 OFFCURVE",
"2 702 CURVE"
);
},
{
closed = 1;
nodes = (
"371 380 OFFCURVE",
"408 304 OFFCURVE",
"408 214 CURVE SMOOTH",
"408 55 OFFCURVE",
"333 18 OFFCURVE",
"289 18 CURVE SMOOTH",
"247 18 OFFCURVE",
"210 35 OFFCURVE",
"186 76 CURVE",
"185 125 OFFCURVE",
"184 223 OFFCURVE",
"184 332 CURVE",
"214 361 OFFCURVE",
"243 380 OFFCURVE",
"290 380 CURVE SMOOTH"
);
}
);
width = 567;
}
);
unicode = 0062;
},
{
glyphname = c;
layers = (
{
hints = (
{
horizontal = 1;
place = "{-18, 21}";
},
{
horizontal = 1;
place = "{450, -20}";
target = down;
type = TopGhost;
}
);
layerId = UUID0;
paths = (
{
closed = 1;
nodes = (
"408 97 OFFCURVE",
"372 47 OFFCURVE",
"294 47 CURVE SMOOTH",
"196 47 OFFCURVE",
"161 120 OFFCURVE",
"161 207 CURVE SMOOTH",
"161 384 OFFCURVE",
"235 412 OFFCURVE",
"287 412 CURVE SMOOTH",
"339 412 OFFCURVE",
"359 387 OFFCURVE",
"362 377 CURVE",
"343 372 OFFCURVE",
"324 359 OFFCURVE",
"324 330 CURVE SMOOTH",
"324 304 OFFCURVE",
"346 279 OFFCURVE",
"383 279 CURVE SMOOTH",
"416 279 OFFCURVE",
"442 304 OFFCURVE",
"442 339 CURVE SMOOTH",
"442 400 OFFCURVE",
"379 444 OFFCURVE",
"287 444 CURVE SMOOTH",
"160 444 OFFCURVE",
"60 351 OFFCURVE",
"60 207 CURVE SMOOTH",
"60 48 OFFCURVE",
"167 -14 OFFCURVE",
"263 -14 CURVE SMOOTH",
"337 -14 OFFCURVE",
"416 24 OFFCURVE",
"450 116 CURVE",
"446 121 OFFCURVE",
"440 125 OFFCURVE",
"431 127 CURVE"
);
}
);
width = 480;
}
);
unicode = 0063;
},
{
glyphname = d;
layers = (
{
hints = (
{
place = "{368, 93}";
},
{
place = "{372, 89}";
},
{
horizontal = 1;
place = "{-8, 21}";
},
{
horizontal = 1;
place = "{-7, 21}";
},
{
horizontal = 1;
place = "{0, -20}";
target = down;
type = TopGhost;
},
{
horizontal = 1;
place = "{709, -20}";
target = down;
type = TopGhost;
}
);
layerId = UUID0;
paths = (
{
closed = 1;
nodes = (
"285 698 OFFCURVE",
"284 695 OFFCURVE",
"284 691 CURVE SMOOTH",
"284 687 OFFCURVE",
"285 683 OFFCURVE",
"286 679 CURVE",
"328 677 OFFCURVE",
"360 671 OFFCURVE",
"380 659 CURVE",
"380 608 OFFCURVE",
"380 521 OFFCURVE",
"381 428 CURVE",
"353 437 OFFCURVE",
"325 444 OFFCURVE",
"295 444 CURVE SMOOTH",
"124 444 OFFCURVE",
"60 305 OFFCURVE",
"60 197 CURVE SMOOTH",
"60 64 OFFCURVE",
"132 -14 OFFCURVE",
"230 -14 CURVE SMOOTH",
"274 -14 OFFCURVE",
"322 9 OFFCURVE",
"379 65 CURVE",
"379 33 OFFCURVE",
"379 24 OFFCURVE",
"377 12 CURVE",
"380 5 OFFCURVE",
"380 2 OFFCURVE",
"389 -3 CURVE",
"429 -1 OFFCURVE",
"446 1 OFFCURVE",
"463 1 CURVE SMOOTH",
"483 1 OFFCURVE",
"501 -1 OFFCURVE",
"545 -3 CURVE",
"546 1 OFFCURVE",
"547 4 OFFCURVE",
"547 8 CURVE SMOOTH",
"547 12 OFFCURVE",
"546 16 OFFCURVE",
"545 20 CURVE",
"519 24 OFFCURVE",
"473 31 OFFCURVE",
"472 67 CURVE",
"468 176 OFFCURVE",
"468 516 OFFCURVE",
"468 729 CURVE",
"465 735 OFFCURVE",
"459 739 OFFCURVE",
"451 742 CURVE",
"405 722 OFFCURVE",
"348 708 OFFCURVE",
"286 702 CURVE"
);
},
{
closed = 1;
nodes = (
"196 50 OFFCURVE",
"159 126 OFFCURVE",
"159 216 CURVE SMOOTH",
"159 381 OFFCURVE",
"234 412 OFFCURVE",
"278 412 CURVE SMOOTH",
"320 412 OFFCURVE",
"357 395 OFFCURVE",
"381 354 CURVE",
"381 283 LINE SMOOTH",
"381 214 OFFCURVE",
"381 150 OFFCURVE",
"380 102 CURVE",
"350 73 OFFCURVE",
"317 50 OFFCURVE",
"277 50 CURVE SMOOTH"
);
}
);
width = 582;
}
);
unicode = 0064;
},
{
glyphname = eth;
layers = (
{
hints = (
{
place = "{26, 84}";
},
{
place = "{322, 84}";
},
{
horizontal = 1;
place = "{-8, 31}";
},
{
horizontal = 1;
place = "{362, 31}";
},
{
horizontal = 1;
place = "{619, -20}";
target = down;
type = TopGhost;
}
);
layerId = UUID0;
paths = (
{
closed = 1;
nodes = (
"191 520 LINE",
"272 602 LINE",
"319 546 OFFCURVE",
"351 476 OFFCURVE",
"359 421 CURVE",
"340 435 OFFCURVE",
"302 444 OFFCURVE",
"269 444 CURVE SMOOTH",
"105 444 OFFCURVE",
"60 304 OFFCURVE",
"60 215 CURVE SMOOTH",
"60 35 OFFCURVE",
"186 -14 OFFCURVE",
"269 -14 CURVE SMOOTH",
"358 -14 OFFCURVE",
"480 43 OFFCURVE",
"480 214 CURVE SMOOTH",
"480 370 OFFCURVE",
"456 504 OFFCURVE",
"312 640 CURVE",
"386 714 LINE",
"356 740 LINE",
"278 664 LINE",
"242 690 OFFCURVE",
"184 722 OFFCURVE",
"144 740 CURVE",
"129 715 LINE",
"156 697 OFFCURVE",
"206 666 OFFCURVE",
"242 629 CURVE",
"162 551 LINE"
);
},
{
closed = 1;
nodes = (
"330 412 OFFCURVE",
"379 359 OFFCURVE",
"379 214 CURVE SMOOTH",
"379 150 OFFCURVE",
"369 18 OFFCURVE",
"269 18 CURVE SMOOTH",
"172 18 OFFCURVE",
"161 150 OFFCURVE",
"161 214 CURVE",
"161 288 OFFCURVE",
"175 412 OFFCURVE",
"269 412 CURVE SMOOTH"
);
}
);
width = 550;
}
);
unicode = 00F0;
},
{
glyphname = e;
layers = (
{
hints = (
{
horizontal = 1;
place = "{-7, 21}";
},
{
horizontal = 1;
place = "{442, -20}";
target = down;
type = TopGhost;
}
);
layerId = UUID0;
paths = (
{
closed = 1;
nodes = (
"420 259 LINE",
"425 274 OFFCURVE",
"428 291 OFFCURVE",
"428 309 CURVE SMOOTH",
"428 376 OFFCURVE",
"390 444 OFFCURVE",
"278 444 CURVE SMOOTH",
"157 444 OFFCURVE",
"60 346 OFFCURVE",
"60 207 CURVE SMOOTH",
"60 48 OFFCURVE",
"165 -14 OFFCURVE",
"261 -14 CURVE SMOOTH",
"335 -14 OFFCURVE",
"414 24 OFFCURVE",
"448 116 CURVE",
"444 121 OFFCURVE",
"438 125 OFFCURVE",
"429 127 CURVE",
"406 97 OFFCURVE",
"382 47 OFFCURVE",
"304 47 CURVE SMOOTH",
"212 47 OFFCURVE",
"154 111 OFFCURVE",
"152 207 CURVE SMOOTH",
"152 212 LINE SMOOTH",
"152 229 OFFCURVE",
"153 244 OFFCURVE",
"154 259 CURVE"
);
},
{
closed = 1;
nodes = (
"322 412 OFFCURVE",
"340 369 OFFCURVE",
"340 324 CURVE SMOOTH",
"340 313 OFFCURVE",
"338 303 OFFCURVE",
"335 292 CURVE",
"159 292 LINE",
"178 379 OFFCURVE",
"226 412 OFFCURVE",
"266 412 CURVE SMOOTH"
);
}
);
width = 488;
}
);
unicode = 0065;
},
{
glyphname = f;
layers = (
{
hints = (
{
place = "{118, 93}";
},
{
horizontal = 1;
place = "{11, 21}";
},
{
horizontal = 1;
place = "{724, -20}";
target = down;
type = TopGhost;
}
);
layerId = UUID0;
paths = (
{
closed = 1;
nodes = (
"313 0 OFFCURVE",
"314 3 OFFCURVE",
"314 7 CURVE SMOOTH",
"314 11 OFFCURVE",
"313 15 OFFCURVE",
"312 20 CURVE",
"274 24 OFFCURVE",
"214 31 OFFCURVE",
"213 67 CURVE",
"210 124 OFFCURVE",
"209 249 OFFCURVE",
"209 385 CURVE",
"315 385 LINE",
"317 390 OFFCURVE",
"318 396 OFFCURVE",
"318 402 CURVE SMOOTH",
"318 409 OFFCURVE",
"317 415 OFFCURVE",
"315 420 CURVE",
"209 420 LINE",
"209 585 LINE SMOOTH",
"209 657 OFFCURVE",
"256 702 OFFCURVE",
"314 702 CURVE SMOOTH",
"350 702 OFFCURVE",
"366 699 OFFCURVE",
"380 677 CURVE",
"358 669 OFFCURVE",
"347 648 OFFCURVE",
"347 631 CURVE SMOOTH",
"347 605 OFFCURVE",
"368 585 OFFCURVE",
"404 585 CURVE SMOOTH",
"441 585 OFFCURVE",
"465 616 OFFCURVE",
"465 649 CURVE SMOOTH",
"465 706 OFFCURVE",
"411 742 OFFCURVE",
"345 742 CURVE SMOOTH",
"194 742 OFFCURVE",
"122 612 OFFCURVE",
"122 471 CURVE SMOOTH",
"122 420 LINE",
"56 420 LINE",
"54 415 OFFCURVE",
"53 409 OFFCURVE",
"53 402 CURVE SMOOTH",
"53 396 OFFCURVE",
"54 390 OFFCURVE",
"56 385 CURVE",
"122 385 LINE",
"122 283 LINE",
"122 195 OFFCURVE",
"122 115 OFFCURVE",
"120 67 CURVE",
"119 31 OFFCURVE",
"67 24 OFFCURVE",
"37 20 CURVE",
"36 15 OFFCURVE",
"35 12 OFFCURVE",
"35 8 CURVE SMOOTH",
"35 4 OFFCURVE",
"36 1 OFFCURVE",
"37 -3 CURVE",
"80 -1 OFFCURVE",
"121 0 OFFCURVE",
"161 0 CURVE SMOOTH",
"202 0 OFFCURVE",
"269 -1 OFFCURVE",
"312 -3 CURVE"
);
}
);
width = 362;
}
);
unicode = 0066;
},
{
glyphname = g;
layers = (
{
hints = (
{
horizontal = 1;
place = "{-263, 21}";
},
{
horizontal = 1;
place = "{447, -20}";
target = down;
type = TopGhost;
}
);
layerId = UUID0;
paths = (
{
closed = 1;
nodes = (
"412 326 OFFCURVE",
"400 363 OFFCURVE",
"375 385 CURVE",
"377 387 LINE",
"409 367 OFFCURVE",
"428 347 OFFCURVE",
"460 347 CURVE SMOOTH",
"486 347 OFFCURVE",
"504 370 OFFCURVE",
"504 396 CURVE SMOOTH",
"504 422 OFFCURVE",
"481 446 OFFCURVE",
"457 446 CURVE SMOOTH",
"429 446 OFFCURVE",
"412 424 OFFCURVE",
"409 400 CURVE",
"325 424 OFFCURVE",
"313 444 OFFCURVE",
"237 444 CURVE SMOOTH",
"135 444 OFFCURVE",
"60 360 OFFCURVE",
"60 284 CURVE SMOOTH",
"60 230 OFFCURVE",
"76 178 OFFCURVE",
"148 138 CURVE",
"109 109 OFFCURVE",
"69 74 OFFCURVE",
"69 32 CURVE SMOOTH",
"69 -8 OFFCURVE",
"102 -32 OFFCURVE",
"163 -41 CURVE",
"96 -77 OFFCURVE",
"67 -124 OFFCURVE",
"67 -165 CURVE SMOOTH",
"67 -223 OFFCURVE",
"120 -275 OFFCURVE",
"240 -275 CURVE SMOOTH",
"392 -275 OFFCURVE",
"495 -155 OFFCURVE",
"495 -72 CURVE SMOOTH",
"495 -21 OFFCURVE",
"475 40 OFFCURVE",
"359 40 CURVE SMOOTH",
"326 40 OFFCURVE",
"295 38 OFFCURVE",
"271 38 CURVE SMOOTH",
"179 38 OFFCURVE",
"149 52 OFFCURVE",
"149 80 CURVE SMOOTH",
"149 97 OFFCURVE",
"159 114 OFFCURVE",
"178 126 CURVE",
"190 124 OFFCURVE",
"220 121 OFFCURVE",
"241 121 CURVE SMOOTH",
"332 121 OFFCURVE",
"412 184 OFFCURVE",
"412 291 CURVE SMOOTH"
);
},
{
closed = 1;
nodes = (
"157 -96 OFFCURVE",
"175 -64 OFFCURVE",
"205 -43 CURVE",
"232 -43 OFFCURVE",
"293 -39 OFFCURVE",
"325 -39 CURVE SMOOTH",
"410 -39 OFFCURVE",
"422 -77 OFFCURVE",
"422 -123 CURVE SMOOTH",
"422 -156 OFFCURVE",
"386 -234 OFFCURVE",
"272 -234 CURVE SMOOTH",
"185 -234 OFFCURVE",
"157 -179 OFFCURVE",
"157 -130 CURVE SMOOTH"
);
},
{
closed = 1;
nodes = (
"159 380 OFFCURVE",
"196 412 OFFCURVE",
"235 412 CURVE SMOOTH",
"265 412 OFFCURVE",
"313 389 OFFCURVE",
"313 292 CURVE SMOOTH",
"313 188 OFFCURVE",
"283 153 OFFCURVE",
"237 153 CURVE SMOOTH",
"199 153 OFFCURVE",
"159 177 OFFCURVE",
"159 283 CURVE SMOOTH"
);
}
);
width = 514;
}
);
unicode = 0067;
},
{
glyphname = h;
layers = (
{
layerId = UUID0;
paths = (
{
closed = 1;
nodes = (
"340 16 OFFCURVE",
"339 13 OFFCURVE",
"339 9 CURVE SMOOTH",
"339 5 OFFCURVE",
"340 1 OFFCURVE",
"341 -3 CURVE",
"383 -1 OFFCURVE",
"419 0 OFFCURVE",
"456 0 CURVE SMOOTH",
"492 0 OFFCURVE",
"529 -1 OFFCURVE",
"571 -3 CURVE",
"572 0 OFFCURVE",
"573 3 OFFCURVE",
"573 7 CURVE SMOOTH",
"573 11 OFFCURVE",
"572 15 OFFCURVE",
"571 20 CURVE",
"545 24 OFFCURVE",
"499 31 OFFCURVE",
"498 67 CURVE",
"494 315 LINE",
"493 401 OFFCURVE",
"467 444 OFFCURVE",
"391 444 CURVE SMOOTH",
"326 444 OFFCURVE",
"265 398 OFFCURVE",
"214 354 CURVE",
"214 729 LINE",
"211 735 OFFCURVE",
"205 739 OFFCURVE",
"197 742 CURVE",
"151 722 OFFCURVE",
"94 708 OFFCURVE",
"32 702 CURVE",
"31 698 OFFCURVE",
"30 695 OFFCURVE",
"30 691 CURVE SMOOTH",
"30 687 OFFCURVE",
"31 683 OFFCURVE",
"32 679 CURVE",
"74 677 OFFCURVE",
"106 671 OFFCURVE",
"126 659 CURVE",
"126 582 OFFCURVE",
"127 423 OFFCURVE",
"127 283 CURVE SMOOTH",
"127 195 OFFCURVE",
"127 115 OFFCURVE",
"125 67 CURVE",
"124 31 OFFCURVE",
"72 24 OFFCURVE",
"42 20 CURVE",
"41 15 OFFCURVE",
"40 12 OFFCURVE",
"40 8 CURVE SMOOTH",
"40 4 OFFCURVE",
"41 1 OFFCURVE",
"42 -3 CURVE",
"85 -1 OFFCURVE",
"126 0 OFFCURVE",
"166 0 CURVE SMOOTH",
"207 0 OFFCURVE",
"248 -1 OFFCURVE",
"291 -3 CURVE",
"293 0 OFFCURVE",
"294 4 OFFCURVE",
"294 8 CURVE SMOOTH",
"294 12 OFFCURVE",
"293 16 OFFCURVE",
"291 20 CURVE",
"265 24 OFFCURVE",
"219 31 OFFCURVE",
"218 67 CURVE",
"216 116 OFFCURVE",
"215 213 OFFCURVE",
"214 323 CURVE",
"266 361 OFFCURVE",
"314 387 OFFCURVE",
"352 387 CURVE SMOOTH",
"389 387 OFFCURVE",
"405 357 OFFCURVE",
"405 299 CURVE",
"404 67 LINE",
"404 31 OFFCURVE",
"367 24 OFFCURVE",
"341 20 CURVE"
);
}
);
width = 598;
}
);
unicode = 0068;
},
{
glyphname = i;
layers = (
{
layerId = UUID0;
paths = (
{
closed = 1;
nodes = (
"36 398 OFFCURVE",
"35 395 OFFCURVE",
"35 391 CURVE SMOOTH",
"35 387 OFFCURVE",
"36 383 OFFCURVE",
"37 379 CURVE",
"79 377 OFFCURVE",
"111 371 OFFCURVE",
"131 359 CURVE",
"131 282 OFFCURVE",
"132 236 OFFCURVE",
"132 184 CURVE SMOOTH",
"132 151 OFFCURVE",
"132 115 OFFCURVE",
"130 67 CURVE",
"129 31 OFFCURVE",
"77 24 OFFCURVE",
"47 20 CURVE",
"46 15 OFFCURVE",
"45 12 OFFCURVE",
"45 8 CURVE SMOOTH",
"45 4 OFFCURVE",
"46 1 OFFCURVE",
"47 -3 CURVE",
"90 -1 OFFCURVE",
"131 0 OFFCURVE",
"171 0 CURVE SMOOTH",
"212 0 OFFCURVE",
"253 -1 OFFCURVE",
"296 -3 CURVE",
"298 0 OFFCURVE",
"299 4 OFFCURVE",
"299 8 CURVE SMOOTH",
"299 12 OFFCURVE",
"298 16 OFFCURVE",
"296 20 CURVE",
"270 24 OFFCURVE",
"224 31 OFFCURVE",
"223 67 CURVE",
"219 176 OFFCURVE",
"219 216 OFFCURVE",
"219 429 CURVE",
"216 435 OFFCURVE",
"210 439 OFFCURVE",
"202 442 CURVE",
"156 422 OFFCURVE",
"99 408 OFFCURVE",
"37 402 CURVE"
);
},
{
closed = 1;
nodes = (
"114 573 OFFCURVE",
"141 546 OFFCURVE",
"174 546 CURVE SMOOTH",
"207 546 OFFCURVE",
"234 573 OFFCURVE",
"234 606 CURVE SMOOTH",
"234 639 OFFCURVE",
"207 666 OFFCURVE",
"174 666 CURVE SMOOTH",
"141 666 OFFCURVE",
"114 639 OFFCURVE",
"114 606 CURVE SMOOTH"
);
}
);
width = 329;
}
);
unicode = 0069;
},
{
glyphname = idotless;
layers = (
{
layerId = UUID0;
paths = (
{
closed = 1;
nodes = (
"36 398 OFFCURVE",
"35 395 OFFCURVE",
"35 391 CURVE SMOOTH",
"35 387 OFFCURVE",
"36 383 OFFCURVE",
"37 379 CURVE",
"79 377 OFFCURVE",
"111 371 OFFCURVE",
"131 359 CURVE",
"131 282 OFFCURVE",
"132 236 OFFCURVE",
"132 184 CURVE SMOOTH",
"132 151 OFFCURVE",
"132 115 OFFCURVE",
"130 67 CURVE",
"129 31 OFFCURVE",
"77 24 OFFCURVE",
"47 20 CURVE",
"46 15 OFFCURVE",
"45 12 OFFCURVE",
"45 8 CURVE SMOOTH",
"45 4 OFFCURVE",
"46 1 OFFCURVE",
"47 -3 CURVE",
"90 -1 OFFCURVE",
"131 0 OFFCURVE",
"171 0 CURVE SMOOTH",
"212 0 OFFCURVE",
"253 -1 OFFCURVE",
"296 -3 CURVE",
"298 0 OFFCURVE",
"299 4 OFFCURVE",
"299 8 CURVE SMOOTH",
"299 12 OFFCURVE",
"298 16 OFFCURVE",
"296 20 CURVE",
"270 24 OFFCURVE",
"224 31 OFFCURVE",
"223 67 CURVE",
"219 176 OFFCURVE",
"219 216 OFFCURVE",
"219 429 CURVE",
"216 435 OFFCURVE",
"210 439 OFFCURVE",
"202 442 CURVE",
"156 422 OFFCURVE",
"99 408 OFFCURVE",
"37 402 CURVE"
);
}
);
width = 329;
}
);
unicode = 0131;
},
{
glyphname = j;
layers = (
{
hints = (
{
place = "{121, 93}";
},
{
place = "{125, 89}";
},
{
horizontal = 1;
place = "{-268, 21}";
},
{
horizontal = 1;
place = "{-267, 21}";
},
{
horizontal = 1;
place = "{676, -20}";
target = down;
type = TopGhost;
}
);
layerId = UUID0;
paths = (
{
closed = 1;
nodes = (
"122 -115 LINE",
"122 -211 OFFCURVE",
"101 -243 OFFCURVE",
"60 -243 CURVE SMOOTH",
"42 -243 OFFCURVE",
"21 -237 OFFCURVE",
"16 -214 CURVE",
"46 -209 OFFCURVE",
"59 -185 OFFCURVE",
"59 -164 CURVE SMOOTH",
"59 -130 OFFCURVE",
"38 -110 OFFCURVE",
"3 -110 CURVE SMOOTH",
"-36 -110 OFFCURVE",
"-60 -138 OFFCURVE",
"-60 -175 CURVE SMOOTH",
"-60 -232 OFFCURVE",
"-12 -275 OFFCURVE",
"56 -275 CURVE SMOOTH",
"180 -275 OFFCURVE",
"210 -146 OFFCURVE",
"210 -35 CURVE SMOOTH",
"210 144 OFFCURVE",
"208 216 OFFCURVE",
"208 429 CURVE",
"205 435 OFFCURVE",
"199 439 OFFCURVE",
"191 442 CURVE",
"145 422 OFFCURVE",
"88 408 OFFCURVE",
"26 402 CURVE",
"25 398 OFFCURVE",
"24 395 OFFCURVE",
"24 391 CURVE SMOOTH",
"24 387 OFFCURVE",
"25 383 OFFCURVE",
"26 379 CURVE",
"68 377 OFFCURVE",
"100 371 OFFCURVE",
"120 359 CURVE",
"120 282 OFFCURVE",
"121 236 OFFCURVE",
"121 184 CURVE SMOOTH",
"121 151 OFFCURVE",
"121 115 OFFCURVE",
"122 67 CURVE"
);
},
{
closed = 1;
nodes = (
"103 573 OFFCURVE",
"130 546 OFFCURVE",
"163 546 CURVE SMOOTH",
"196 546 OFFCURVE",
"223 573 OFFCURVE",
"223 606 CURVE SMOOTH",
"223 639 OFFCURVE",
"196 666 OFFCURVE",
"163 666 CURVE SMOOTH",
"130 666 OFFCURVE",
"103 639 OFFCURVE",
"103 606 CURVE SMOOTH"
);
}
);
width = 308;
}
);
unicode = 006A;
},
{
glyphname = k;
layers = (
{
hints = (
{
place = "{134, 89}";
},
{
horizontal = 1;
place = "{11, 21}";
},
{
horizontal = 1;
place = "{10, 21}";
},
{
horizontal = 1;
place = "{721, -20}";
target = down;
type = TopGhost;
}
);
layerId = UUID0;
paths = (
{
closed = 1;
nodes = (
"339 16 OFFCURVE",
"338 13 OFFCURVE",
"338 9 CURVE SMOOTH",
"338 5 OFFCURVE",
"339 1 OFFCURVE",
"340 -3 CURVE",
"382 -1 OFFCURVE",
"415 0 OFFCURVE",
"452 0 CURVE SMOOTH",
"490 0 OFFCURVE",
"524 -1 OFFCURVE",
"566 -3 CURVE",
"567 0 OFFCURVE",
"568 4 OFFCURVE",
"568 7 CURVE SMOOTH",
"568 11 OFFCURVE",
"567 15 OFFCURVE",
"566 20 CURVE",
"540 24 OFFCURVE",
"505 32 OFFCURVE",
"478 67 CURVE",
"306 284 LINE",
"384 363 LINE SMOOTH",
"417 397 OFFCURVE",
"458 405 OFFCURVE",
"507 410 CURVE",
"508 415 OFFCURVE",
"509 419 OFFCURVE",
"509 423 CURVE SMOOTH",
"509 426 OFFCURVE",
"508 430 OFFCURVE",
"507 433 CURVE",
"465 431 OFFCURVE",
"432 430 OFFCURVE",
"403 430 CURVE SMOOTH",
"357 430 OFFCURVE",
"344 431 OFFCURVE",
"302 433 CURVE",
"301 429 OFFCURVE",
"300 425 OFFCURVE",
"300 421 CURVE SMOOTH",
"300 417 OFFCURVE",
"301 414 OFFCURVE",
"302 410 CURVE",
"321 408 OFFCURVE",
"348 404 OFFCURVE",
"348 385 CURVE SMOOTH",
"348 378 OFFCURVE",
"345 370 OFFCURVE",
"339 363 CURVE",
"240 269 LINE",
"215 269 LINE",
"214 414 OFFCURVE",
"214 596 OFFCURVE",
"214 729 CURVE",
"211 735 OFFCURVE",
"205 739 OFFCURVE",
"197 742 CURVE",
"151 722 OFFCURVE",
"94 708 OFFCURVE",
"32 702 CURVE",
"31 698 OFFCURVE",
"30 695 OFFCURVE",
"30 691 CURVE SMOOTH",
"30 687 OFFCURVE",
"31 683 OFFCURVE",
"32 679 CURVE",
"74 677 OFFCURVE",
"106 671 OFFCURVE",
"126 659 CURVE",
"126 582 OFFCURVE",
"127 423 OFFCURVE",
"127 283 CURVE SMOOTH",
"127 195 OFFCURVE",
"127 115 OFFCURVE",
"125 67 CURVE",
"124 31 OFFCURVE",
"72 24 OFFCURVE",
"42 20 CURVE",
"41 15 OFFCURVE",
"40 12 OFFCURVE",
"40 8 CURVE SMOOTH",
"40 4 OFFCURVE",
"41 1 OFFCURVE",
"42 -3 CURVE",
"85 -1 OFFCURVE",
"126 0 OFFCURVE",
"166 0 CURVE SMOOTH",
"207 0 OFFCURVE",
"245 -1 OFFCURVE",
"288 -3 CURVE",
"290 0 OFFCURVE",
"291 4 OFFCURVE",
"291 8 CURVE SMOOTH",
"291 12 OFFCURVE",
"290 16 OFFCURVE",
"288 20 CURVE",
"262 24 OFFCURVE",
"218 31 OFFCURVE",
"218 67 CURVE",
"216 103 OFFCURVE",
"215 164 OFFCURVE",
"215 238 CURVE",
"239 238 LINE",
"372 67 LINE",
"380 57 OFFCURVE",
"383 49 OFFCURVE",
"383 43 CURVE SMOOTH",
"383 26 OFFCURVE",
"359 22 OFFCURVE",
"340 20 CURVE"
);
}
);
width = 546;
}
);
unicode = 006B;
},
{
glyphname = l;
layers = (
{
hints = (
{
place = "{88, 89}";
},
{
place = "{181, -93}";
},
{
horizontal = 1;
place = "{7, 21}";
},
{
horizontal = 1;
place = "{723, -20}";
target = down;
type = TopGhost;
}
);
layerId = UUID0;
paths = (
{
closed = 1;
nodes = (
"31 698 OFFCURVE",
"30 695 OFFCURVE",
"30 691 CURVE SMOOTH",
"30 687 OFFCURVE",
"31 683 OFFCURVE",
"32 679 CURVE",
"74 677 OFFCURVE",
"106 671 OFFCURVE",
"126 659 CURVE",
"126 582 OFFCURVE",
"127 423 OFFCURVE",
"127 283 CURVE SMOOTH",
"127 195 OFFCURVE",
"127 115 OFFCURVE",
"125 67 CURVE",
"124 31 OFFCURVE",
"72 24 OFFCURVE",
"42 20 CURVE",
"41 15 OFFCURVE",
"40 12 OFFCURVE",
"40 8 CURVE SMOOTH",
"40 4 OFFCURVE",
"41 1 OFFCURVE",
"42 -3 CURVE",
"85 -1 OFFCURVE",
"126 0 OFFCURVE",
"166 0 CURVE SMOOTH",
"207 0 OFFCURVE",
"248 -1 OFFCURVE",
"291 -3 CURVE",
"293 0 OFFCURVE",
"294 4 OFFCURVE",
"294 8 CURVE SMOOTH",
"294 12 OFFCURVE",
"293 16 OFFCURVE",
"291 20 CURVE",
"265 24 OFFCURVE",
"219 31 OFFCURVE",
"218 67 CURVE",
"214 176 OFFCURVE",
"214 516 OFFCURVE",
"214 729 CURVE",
"211 735 OFFCURVE",
"205 739 OFFCURVE",
"197 742 CURVE",
"151 722 OFFCURVE",
"94 708 OFFCURVE",
"32 702 CURVE"
);
}
);
width = 324;
}
);
unicode = 006C;
},
{
glyphname = m;
layers = (
{
hints = (
{
place = "{126, 92}";
},
{
place = "{390, 92}";
},
{
place = "{654, 92}";
},
{
horizontal = 1;
place = "{7, 21}";
},
{
horizontal = 1;
place = "{442, -20}";
target = down;
type = TopGhost;
}
);
layerId = UUID0;
paths = (
{
closed = 1;
nodes = (
"615 16 OFFCURVE",
"614 13 OFFCURVE",
"614 9 CURVE SMOOTH",
"614 5 OFFCURVE",
"615 1 OFFCURVE",
"616 -3 CURVE",
"658 -1 OFFCURVE",
"689 0 OFFCURVE",
"726 0 CURVE SMOOTH",
"764 0 OFFCURVE",
"800 -1 OFFCURVE",
"842 -3 CURVE",
"843 0 OFFCURVE",
"844 4 OFFCURVE",
"844 7 CURVE SMOOTH",
"844 11 OFFCURVE",
"843 15 OFFCURVE",
"842 20 CURVE",
"816 24 OFFCURVE",
"770 31 OFFCURVE",
"769 67 CURVE",
"764 315 LINE",
"763 401 OFFCURVE",
"737 444 OFFCURVE",
"661 444 CURVE SMOOTH",
"594 444 OFFCURVE",
"539 395 OFFCURVE",
"489 350 CURVE",
"481 413 OFFCURVE",
"453 444 OFFCURVE",
"388 444 CURVE SMOOTH",
"322 444 OFFCURVE",
"268 397 OFFCURVE",
"219 352 CURVE",
"219 429 LINE",
"216 435 OFFCURVE",
"210 439 OFFCURVE",
"202 442 CURVE",
"156 422 OFFCURVE",
"99 408 OFFCURVE",
"37 402 CURVE",
"36 398 OFFCURVE",
"35 395 OFFCURVE",
"35 391 CURVE SMOOTH",
"35 387 OFFCURVE",
"36 383 OFFCURVE",
"37 379 CURVE",
"79 377 OFFCURVE",
"111 371 OFFCURVE",
"131 359 CURVE",
"131 282 OFFCURVE",
"132 236 OFFCURVE",
"132 184 CURVE SMOOTH",
"132 151 OFFCURVE",
"132 115 OFFCURVE",
"130 67 CURVE SMOOTH",
"129 31 OFFCURVE",
"77 24 OFFCURVE",
"47 20 CURVE",
"46 15 OFFCURVE",
"45 12 OFFCURVE",
"45 8 CURVE SMOOTH",
"45 4 OFFCURVE",
"46 1 OFFCURVE",
"47 -3 CURVE",
"90 -1 OFFCURVE",
"131 0 OFFCURVE",
"171 0 CURVE SMOOTH",
"212 0 OFFCURVE",
"248 -1 OFFCURVE",
"291 -3 CURVE",
"293 1 OFFCURVE",
"294 5 OFFCURVE",
"294 8 CURVE SMOOTH",
"294 12 OFFCURVE",
"293 16 OFFCURVE",
"291 20 CURVE",
"265 24 OFFCURVE",
"224 31 OFFCURVE",
"223 67 CURVE SMOOTH",
"220 151 OFFCURVE",
"219 207 OFFCURVE",
"219 322 CURVE",
"270 360 OFFCURVE",
"311 387 OFFCURVE",
"349 387 CURVE SMOOTH",
"386 387 OFFCURVE",
"402 357 OFFCURVE",
"402 299 CURVE",
"401 67 LINE",
"401 31 OFFCURVE",
"369 24 OFFCURVE",
"343 20 CURVE",
"342 16 OFFCURVE",
"341 13 OFFCURVE",
"341 9 CURVE SMOOTH",
"341 5 OFFCURVE",
"342 1 OFFCURVE",
"343 -3 CURVE",
"385 -1 OFFCURVE",
"416 0 OFFCURVE",
"453 0 CURVE SMOOTH",
"491 0 OFFCURVE",
"526 -1 OFFCURVE",
"568 -3 CURVE",
"569 0 OFFCURVE",
"570 4 OFFCURVE",
"570 7 CURVE SMOOTH",
"570 11 OFFCURVE",
"569 15 OFFCURVE",
"568 20 CURVE",
"542 24 OFFCURVE",
"496 31 OFFCURVE",
"495 67 CURVE",
"491 315 LINE",
"491 321 LINE",
"542 360 OFFCURVE",
"584 387 OFFCURVE",
"622 387 CURVE SMOOTH",
"659 387 OFFCURVE",
"675 357 OFFCURVE",
"675 299 CURVE",
"674 67 LINE",
"674 31 OFFCURVE",
"642 24 OFFCURVE",
"616 20 CURVE"
);
}
);
width = 869;
}
);
unicode = 006D;
},
{
glyphname = n;
layers = (
{
layerId = UUID0;
paths = (
{
closed = 1;
nodes = (
"270 24 OFFCURVE",
"224 31 OFFCURVE",
"223 67 CURVE",
"220 151 OFFCURVE",
"219 207 OFFCURVE",
"219 321 CURVE",
"272 360 OFFCURVE",
"321 387 OFFCURVE",
"359 387 CURVE SMOOTH",
"396 387 OFFCURVE",
"412 357 OFFCURVE",
"412 299 CURVE",
"411 67 LINE",
"411 31 OFFCURVE",
"374 24 OFFCURVE",
"348 20 CURVE",
"347 16 OFFCURVE",
"346 13 OFFCURVE",
"346 9 CURVE SMOOTH",
"346 5 OFFCURVE",
"347 1 OFFCURVE",
"348 -3 CURVE",
"390 -1 OFFCURVE",
"426 0 OFFCURVE",
"463 0 CURVE SMOOTH",
"501 0 OFFCURVE",
"537 -1 OFFCURVE",
"579 -3 CURVE",
"580 0 OFFCURVE",
"581 4 OFFCURVE",
"581 7 CURVE SMOOTH",
"581 11 OFFCURVE",
"580 15 OFFCURVE",
"579 20 CURVE",
"553 24 OFFCURVE",
"507 31 OFFCURVE",
"506 67 CURVE",
"501 315 LINE",
"500 401 OFFCURVE",
"474 444 OFFCURVE",
"398 444 CURVE SMOOTH",
"332 444 OFFCURVE",
"270 397 OFFCURVE",
"219 352 CURVE",
"219 429 LINE",
"216 435 OFFCURVE",
"210 439 OFFCURVE",
"202 442 CURVE",
"156 422 OFFCURVE",
"99 408 OFFCURVE",
"37 402 CURVE",
"36 398 OFFCURVE",
"35 395 OFFCURVE",
"35 391 CURVE SMOOTH",
"35 387 OFFCURVE",
"36 383 OFFCURVE",
"37 379 CURVE",
"79 377 OFFCURVE",
"111 371 OFFCURVE",
"131 359 CURVE",
"131 282 OFFCURVE",
"132 236 OFFCURVE",
"132 184 CURVE SMOOTH",
"132 151 OFFCURVE",
"132 115 OFFCURVE",
"130 67 CURVE",
"129 31 OFFCURVE",
"77 24 OFFCURVE",
"47 20 CURVE",
"46 15 OFFCURVE",
"45 12 OFFCURVE",
"45 8 CURVE SMOOTH",
"45 4 OFFCURVE",
"46 1 OFFCURVE",
"47 -3 CURVE",
"90 -1 OFFCURVE",
"131 0 OFFCURVE",
"171 0 CURVE SMOOTH",
"212 0 OFFCURVE",
"253 -1 OFFCURVE",
"296 -3 CURVE",
"298 1 OFFCURVE",
"299 5 OFFCURVE",
"299 8 CURVE SMOOTH",
"299 12 OFFCURVE",
"298 16 OFFCURVE",
"296 20 CURVE"
);
}
);
width = 606;
}
);
unicode = 006E;
},
{
glyphname = o;
layers = (
{
hints = (
{
horizontal = 1;
place = "{-7, 21}";
},
{
horizontal = 1;
place = "{0, -20}";
target = down;
type = TopGhost;
},
{
horizontal = 1;
place = "{449, -20}";
target = down;
type = TopGhost;
}
);
layerId = UUID0;
paths = (
{
closed = 1;
nodes = (
"401 -14 OFFCURVE",
"480 83 OFFCURVE",
"480 215 CURVE SMOOTH",
"480 347 OFFCURVE",
"401 444 OFFCURVE",
"270 444 CURVE SMOOTH",
"139 444 OFFCURVE",
"60 347 OFFCURVE",
"60 215 CURVE SMOOTH",
"60 83 OFFCURVE",
"139 -14 OFFCURVE",
"270 -14 CURVE SMOOTH"
);
},
{
closed = 1;
nodes = (
"161 356 OFFCURVE",
"208 412 OFFCURVE",
"270 412 CURVE SMOOTH",
"332 412 OFFCURVE",
"379 356 OFFCURVE",
"379 215 CURVE SMOOTH",
"379 74 OFFCURVE",
"332 18 OFFCURVE",
"270 18 CURVE SMOOTH",
"208 18 OFFCURVE",
"161 74 OFFCURVE",
"161 215 CURVE SMOOTH"
);
}
);
width = 540;
}
);
unicode = 006F;
},
{
glyphname = oslash;
layers = (
{
hints = (
{
place = "{32, 95}";
},
{
place = "{366, 95}";
},
{
horizontal = 1;
place = "{-9, 35}";
},
{
horizontal = 1;
place = "{409, 35}";
},
{
horizontal = 1;
place = "{-7, 21}";
},
{
horizontal = 1;
place = "{0, -20}";
target = down;
type = TopGhost;
},
{
horizontal = 1;
place = "{449, -20}";
target = down;
type = TopGhost;
}
);
layerId = UUID0;
paths = (
{
closed = 1;
nodes = (
"67 -21 LINE",
"104 -48 LINE",
"152 19 LINE",
"184 -2 OFFCURVE",
"224 -14 OFFCURVE",
"270 -14 CURVE SMOOTH",
"401 -14 OFFCURVE",
"480 83 OFFCURVE",
"480 215 CURVE SMOOTH",
"480 284 OFFCURVE",
"458 344 OFFCURVE",
"418 385 CURVE",
"470 456 LINE",
"433 483 LINE",
"383 414 LINE",
"352 433 OFFCURVE",
"313 444 OFFCURVE",
"270 444 CURVE SMOOTH",
"139 444 OFFCURVE",
"60 347 OFFCURVE",
"60 215 CURVE SMOOTH",
"60 148 OFFCURVE",
"80 90 OFFCURVE",
"118 49 CURVE"
);
},
{
closed = 1;
nodes = (
"237 18 OFFCURVE",
"208 33 OFFCURVE",
"189 69 CURVE",
"368 315 LINE",
"375 288 OFFCURVE",
"379 255 OFFCURVE",
"379 215 CURVE SMOOTH",
"379 74 OFFCURVE",
"332 18 OFFCURVE",
"270 18 CURVE SMOOTH"
);
},
{
closed = 1;
nodes = (
"161 356 OFFCURVE",
"208 412 OFFCURVE",
"270 412 CURVE SMOOTH",
"301 412 OFFCURVE",
"328 398 OFFCURVE",
"348 366 CURVE",
"170 121 LINE",
"164 147 OFFCURVE",
"161 178 OFFCURVE",
"161 215 CURVE SMOOTH"
);
}
);
width = 540;
}
);
unicode = 00F8;
},
{
glyphname = oe;
layers = (
{
hints = (
{
place = "{362, 92}";
},
{
place = "{633, 90}";
},
{
place = "{29, 95}";
},
{
horizontal = 1;
place = "{409, 35}";
},
{
horizontal = 1;
place = "{251, 35}";
},
{
horizontal = 1;
place = "{-9, 35}";
},
{
horizontal = 1;
place = "{-7, 21}";
},
{
horizontal = 1;
place = "{0, -20}";
target = down;
type = TopGhost;
},
{
horizontal = 1;
place = "{449, -20}";
target = down;
type = TopGhost;
},
{
horizontal = 1;
place = "{-7, 21}";
},
{
horizontal = 1;
place = "{442, -20}";
target = down;
type = TopGhost;
}
);
layerId = UUID0;
paths = (
{
closed = 1;
nodes = (
"725 97 OFFCURVE",
"701 47 OFFCURVE",
"623 47 CURVE SMOOTH",
"531 47 OFFCURVE",
"473 111 OFFCURVE",
"471 207 CURVE",
"471 234 OFFCURVE",
"472 247 OFFCURVE",
"473 259 CURVE",
"739 259 LINE",
"744 274 OFFCURVE",
"747 291 OFFCURVE",
"747 309 CURVE SMOOTH",
"747 376 OFFCURVE",
"709 444 OFFCURVE",
"597 444 CURVE SMOOTH",
"525 444 OFFCURVE",
"470 411 OFFCURVE",
"431 363 CURVE",
"398 413 OFFCURVE",
"343 444 OFFCURVE",
"270 444 CURVE SMOOTH",
"139 444 OFFCURVE",
"60 347 OFFCURVE",
"60 215 CURVE SMOOTH",
"60 83 OFFCURVE",
"139 -14 OFFCURVE",
"270 -14 CURVE SMOOTH",
"339 -14 OFFCURVE",
"390 12 OFFCURVE",
"424 57 CURVE",
"464 7 OFFCURVE",
"523 -14 OFFCURVE",
"580 -14 CURVE SMOOTH",
"654 -14 OFFCURVE",
"733 24 OFFCURVE",
"767 116 CURVE",
"763 121 OFFCURVE",
"757 125 OFFCURVE",
"748 127 CURVE"
);
},
{
closed = 1;
nodes = (
"161 356 OFFCURVE",
"208 412 OFFCURVE",
"270 412 CURVE SMOOTH",
"332 412 OFFCURVE",
"379 356 OFFCURVE",
"379 215 CURVE SMOOTH",
"379 72 OFFCURVE",
"331 18 OFFCURVE",
"270 18 CURVE SMOOTH",
"208 18 OFFCURVE",
"161 74 OFFCURVE",
"161 215 CURVE SMOOTH"
);
},
{
closed = 1;
nodes = (
"641 412 OFFCURVE",
"659 369 OFFCURVE",
"659 324 CURVE SMOOTH",
"659 313 OFFCURVE",
"657 303 OFFCURVE",
"654 292 CURVE",
"478 292 LINE",
"497 379 OFFCURVE",
"545 412 OFFCURVE",
"585 412 CURVE SMOOTH"
);
}
);
width = 814;
}
);
unicode = 0153;
},
{
glyphname = p;
layers = (
{
background = {
paths = (
{
closed = 1;
nodes = (
"6 398 OFFCURVE",
"5 395 OFFCURVE",
"5 391 CURVE SMOOTH",
"5 387 OFFCURVE",
"6 383 OFFCURVE",
"7 379 CURVE",
"49 377 OFFCURVE",
"81 371 OFFCURVE",
"101 359 CURVE",
"101 282 OFFCURVE",
"102 163 OFFCURVE",
"102 23 CURVE SMOOTH",
"102 -65 OFFCURVE",
"102 -145 OFFCURVE",
"100 -193 CURVE SMOOTH",
"99 -229 OFFCURVE",
"47 -236 OFFCURVE",
"17 -240 CURVE",
"16 -245 OFFCURVE",
"15 -248 OFFCURVE",
"15 -252 CURVE SMOOTH",
"15 -256 OFFCURVE",
"16 -259 OFFCURVE",
"17 -263 CURVE",
"60 -261 OFFCURVE",
"101 -260 OFFCURVE",
"141 -260 CURVE SMOOTH",
"182 -260 OFFCURVE",
"223 -261 OFFCURVE",
"266 -263 CURVE",
"268 -260 OFFCURVE",
"269 -256 OFFCURVE",
"269 -252 CURVE SMOOTH",
"269 -248 OFFCURVE",
"268 -244 OFFCURVE",
"266 -240 CURVE",
"240 -236 OFFCURVE",
"194 -229 OFFCURVE",
"193 -193 CURVE SMOOTH",
"191 -151 OFFCURVE",
"190 -79 OFFCURVE",
"190 3 CURVE",
"217 -8 OFFCURVE",
"247 -14 OFFCURVE",
"278 -14 CURVE SMOOTH",
"446 -14 OFFCURVE",
"510 123 OFFCURVE",
"510 237 CURVE SMOOTH",
"510 366 OFFCURVE",
"438 444 OFFCURVE",
"340 444 CURVE SMOOTH",
"295 444 OFFCURVE",
"246 427 OFFCURVE",
"189 372 CURVE",
"189 429 LINE",
"186 435 OFFCURVE",
"180 439 OFFCURVE",
"172 442 CURVE",
"126 422 OFFCURVE",
"69 408 OFFCURVE",
"7 402 CURVE"
);
},
{
closed = 1;
nodes = (
"374 380 OFFCURVE",
"411 304 OFFCURVE",
"411 214 CURVE SMOOTH",
"411 55 OFFCURVE",
"336 18 OFFCURVE",
"292 18 CURVE SMOOTH",
"250 18 OFFCURVE",
"212 31 OFFCURVE",
"189 80 CURVE",
"189 334 LINE",
"218 361 OFFCURVE",
"247 380 OFFCURVE",
"293 380 CURVE SMOOTH"
);
}
);
};
hints = (
{
place = "{96, 93}";
},
{
horizontal = 1;
place = "{-252, 21}";
},
{
horizontal = 1;
place = "{0, -20}";
target = down;
type = TopGhost;
},
{
horizontal = 1;
place = "{442, -20}";
target = down;
type = TopGhost;
}
);
layerId = UUID0;
paths = (
{
closed = 1;
nodes = (
"6 398 OFFCURVE",
"5 395 OFFCURVE",
"5 391 CURVE SMOOTH",
"5 387 OFFCURVE",
"6 383 OFFCURVE",
"7 379 CURVE",
"49 377 OFFCURVE",
"81 371 OFFCURVE",
"101 359 CURVE",
"101 282 OFFCURVE",
"102 163 OFFCURVE",
"102 23 CURVE SMOOTH",
"102 -65 OFFCURVE",
"102 -145 OFFCURVE",
"100 -193 CURVE",
"99 -229 OFFCURVE",
"47 -236 OFFCURVE",
"17 -240 CURVE",
"16 -245 OFFCURVE",
"15 -248 OFFCURVE",
"15 -252 CURVE SMOOTH",
"15 -256 OFFCURVE",
"16 -259 OFFCURVE",
"17 -263 CURVE",
"60 -261 OFFCURVE",
"101 -260 OFFCURVE",
"141 -260 CURVE SMOOTH",
"197 -260 OFFCURVE",
"248 -261 OFFCURVE",
"306 -263 CURVE",
"308 -260 OFFCURVE",
"309 -256 OFFCURVE",
"309 -252 CURVE SMOOTH",
"309 -248 OFFCURVE",
"308 -244 OFFCURVE",
"306 -240 CURVE",
"260 -236 OFFCURVE",
"194 -229 OFFCURVE",
"193 -193 CURVE",
"191 -151 OFFCURVE",
"190 -79 OFFCURVE",
"190 3 CURVE",
"217 -8 OFFCURVE",
"247 -14 OFFCURVE",
"278 -14 CURVE SMOOTH",
"446 -14 OFFCURVE",
"510 123 OFFCURVE",
"510 237 CURVE SMOOTH",
"510 366 OFFCURVE",
"438 444 OFFCURVE",
"340 444 CURVE SMOOTH",
"295 444 OFFCURVE",
"246 427 OFFCURVE",
"189 372 CURVE",
"189 429 LINE",
"186 435 OFFCURVE",
"180 439 OFFCURVE",
"172 442 CURVE",
"126 422 OFFCURVE",
"69 408 OFFCURVE",
"7 402 CURVE"
);
},
{
closed = 1;
nodes = (
"374 380 OFFCURVE",
"411 304 OFFCURVE",
"411 214 CURVE SMOOTH",
"411 55 OFFCURVE",
"336 18 OFFCURVE",
"292 18 CURVE SMOOTH",
"250 18 OFFCURVE",
"212 31 OFFCURVE",
"189 80 CURVE",
"189 334 LINE",
"218 361 OFFCURVE",
"247 380 OFFCURVE",
"293 380 CURVE SMOOTH"
);
}
);
width = 570;
}
);
unicode = 0070;
},
{
glyphname = thorn;
layers = (
{
hints = (
{
place = "{64, 83}";
},
{
place = "{390, 95}";
},
{
place = "{96, 93}";
},
{
horizontal = 1;
place = "{-208, 33}";
},
{
horizontal = 1;
place = "{-9, 35}";
},
{
horizontal = 1;
place = "{409, 34}";
},
{
horizontal = 1;
place = "{791, -23}";
},
{
horizontal = 1;
place = "{-252, 21}";
},
{
horizontal = 1;
place = "{0, -20}";
target = down;
type = TopGhost;
},
{
horizontal = 1;
place = "{442, -20}";
target = down;
type = TopGhost;
}
);
layerId = UUID0;
paths = (
{
closed = 1;
nodes = (
"240 -236 OFFCURVE",
"193 -229 OFFCURVE",
"193 -193 CURVE",
"191 -161 OFFCURVE",
"189 -88 OFFCURVE",
"188 3 CURVE",
"216 -8 OFFCURVE",
"246 -14 OFFCURVE",
"278 -14 CURVE SMOOTH",
"446 -14 OFFCURVE",
"510 123 OFFCURVE",
"510 237 CURVE SMOOTH",
"510 366 OFFCURVE",
"438 444 OFFCURVE",
"340 444 CURVE SMOOTH",
"295 444 OFFCURVE",
"246 427 OFFCURVE",
"188 371 CURVE",
"188 514 OFFCURVE",
"189 649 OFFCURVE",
"189 729 CURVE",
"186 735 OFFCURVE",
"180 739 OFFCURVE",
"172 742 CURVE",
"126 722 OFFCURVE",
"69 708 OFFCURVE",
"7 702 CURVE",
"6 698 OFFCURVE",
"5 695 OFFCURVE",
"5 691 CURVE SMOOTH",
"5 687 OFFCURVE",
"6 683 OFFCURVE",
"7 679 CURVE",
"49 677 OFFCURVE",
"81 671 OFFCURVE",
"101 659 CURVE",
"101 582 OFFCURVE",
"102 313 OFFCURVE",
"102 173 CURVE SMOOTH",
"102 85 OFFCURVE",
"102 -145 OFFCURVE",
"100 -193 CURVE",
"99 -229 OFFCURVE",
"47 -236 OFFCURVE",
"17 -240 CURVE",
"16 -245 OFFCURVE",
"15 -248 OFFCURVE",
"15 -252 CURVE SMOOTH",
"15 -256 OFFCURVE",
"16 -259 OFFCURVE",
"17 -263 CURVE",
"60 -261 OFFCURVE",
"101 -260 OFFCURVE",
"141 -260 CURVE SMOOTH",
"182 -260 OFFCURVE",
"223 -261 OFFCURVE",
"266 -263 CURVE",
"268 -260 OFFCURVE",
"269 -256 OFFCURVE",
"269 -252 CURVE SMOOTH",
"269 -248 OFFCURVE",
"268 -244 OFFCURVE",
"266 -240 CURVE"
);
},
{
closed = 1;
nodes = (
"188 79 LINE",
"188 333 LINE",
"218 361 OFFCURVE",
"247 380 OFFCURVE",
"293 380 CURVE SMOOTH",
"374 380 OFFCURVE",
"411 304 OFFCURVE",
"411 214 CURVE SMOOTH",
"411 55 OFFCURVE",
"336 18 OFFCURVE",
"292 18 CURVE SMOOTH",
"250 18 OFFCURVE",
"212 31 OFFCURVE",
"189 81 CURVE"
);
}
);
width = 570;
}
);
unicode = 00FE;
},
{
glyphname = q;
layers = (
{
hints = (
{
place = "{381, 85}";
},
{
place = "{470, -89}";
},
{
horizontal = 1;
place = "{-252, 21}";
},
{
horizontal = 1;
place = "{443, -20}";
target = down;
type = TopGhost;
}
);
layerId = UUID0;
paths = (
{
closed = 1;
nodes = (
"469 -84 OFFCURVE",
"469 182 OFFCURVE",
"469 395 CURVE",
"466 404 OFFCURVE",
"462 408 OFFCURVE",
"454 412 CURVE",
"404 419 OFFCURVE",
"349 444 OFFCURVE",
"295 444 CURVE SMOOTH",
"124 444 OFFCURVE",
"60 305 OFFCURVE",
"60 197 CURVE SMOOTH",
"60 64 OFFCURVE",
"132 -14 OFFCURVE",
"230 -14 CURVE SMOOTH",
"276 -14 OFFCURVE",
"323 11 OFFCURVE",
"382 73 CURVE",
"382 23 LINE",
"382 -65 OFFCURVE",
"382 -145 OFFCURVE",
"380 -193 CURVE",
"380 -229 OFFCURVE",
"309 -236 OFFCURVE",
"267 -240 CURVE",
"266 -245 OFFCURVE",
"265 -248 OFFCURVE",
"265 -252 CURVE SMOOTH",
"265 -256 OFFCURVE",
"266 -259 OFFCURVE",
"267 -263 CURVE",
"319 -261 OFFCURVE",
"372 -260 OFFCURVE",
"421 -260 CURVE SMOOTH",
"462 -260 OFFCURVE",
"503 -261 OFFCURVE",
"546 -263 CURVE",
"548 -260 OFFCURVE",
"549 -256 OFFCURVE",
"549 -252 CURVE SMOOTH",
"549 -248 OFFCURVE",
"548 -244 OFFCURVE",
"546 -240 CURVE",
"520 -236 OFFCURVE",
"473 -229 OFFCURVE",
"473 -193 CURVE"
);
},
{
closed = 1;
nodes = (
"196 50 OFFCURVE",
"159 126 OFFCURVE",
"159 216 CURVE SMOOTH",
"159 381 OFFCURVE",
"234 412 OFFCURVE",
"278 412 CURVE SMOOTH",
"315 412 OFFCURVE",
"354 399 OFFCURVE",
"381 349 CURVE",
"381 289 OFFCURVE",
"381 207 OFFCURVE",
"382 111 CURVE",
"351 79 OFFCURVE",
"315 50 OFFCURVE",
"277 50 CURVE SMOOTH"
);
}
);
width = 559;
}
);
unicode = 0071;
},
{
glyphname = r;
layers = (
{
hints = (
{
place = "{92, 92}";
},
{
horizontal = 1;
place = "{11, 26}";
},
{
horizontal = 1;
place = "{10, 21}";
},
{
horizontal = 1;
place = "{441, -20}";
target = down;
type = TopGhost;
}
);
layerId = UUID0;
paths = (
{
closed = 1;
nodes = (
"282 24 OFFCURVE",
"224 31 OFFCURVE",
"223 67 CURVE",
"220 141 OFFCURVE",
"219 189 OFFCURVE",
"219 275 CURVE",
"228 318 OFFCURVE",
"274 364 OFFCURVE",
"298 374 CURVE",
"300 340 OFFCURVE",
"322 318 OFFCURVE",
"354 318 CURVE SMOOTH",
"387 318 OFFCURVE",
"414 339 OFFCURVE",
"414 379 CURVE SMOOTH",
"414 420 OFFCURVE",
"386 444 OFFCURVE",
"348 444 CURVE SMOOTH",
"290 444 OFFCURVE",
"238 381 OFFCURVE",
"219 345 CURVE",
"219 429 LINE",
"216 435 OFFCURVE",
"210 439 OFFCURVE",
"202 442 CURVE",
"156 422 OFFCURVE",
"99 408 OFFCURVE",
"37 402 CURVE",
"36 398 OFFCURVE",
"35 395 OFFCURVE",
"35 391 CURVE SMOOTH",
"35 387 OFFCURVE",
"36 383 OFFCURVE",
"37 379 CURVE",
"79 377 OFFCURVE",
"111 371 OFFCURVE",
"131 359 CURVE",
"131 282 OFFCURVE",
"132 236 OFFCURVE",
"132 184 CURVE SMOOTH",
"132 151 OFFCURVE",
"132 115 OFFCURVE",
"130 67 CURVE",
"129 31 OFFCURVE",
"77 24 OFFCURVE",
"47 20 CURVE",
"46 15 OFFCURVE",
"45 12 OFFCURVE",
"45 8 CURVE SMOOTH",
"45 4 OFFCURVE",
"46 1 OFFCURVE",
"47 -3 CURVE",
"90 -1 OFFCURVE",
"131 0 OFFCURVE",
"171 0 CURVE SMOOTH",
"218 0 OFFCURVE",
"267 -1 OFFCURVE",
"316 -3 CURVE",
"318 1 OFFCURVE",
"319 5 OFFCURVE",
"319 8 CURVE SMOOTH",
"319 12 OFFCURVE",
"318 16 OFFCURVE",
"316 20 CURVE"
);
}
);
width = 439;
}
);
unicode = 0072;
},
{
glyphname = s;
layers = (
{
hints = (
{
horizontal = 1;
place = "{-3, 21}";
},
{
horizontal = 1;
place = "{-4, 21}";
},
{
horizontal = 1;
place = "{456, -20}";
target = down;
type = TopGhost;
},
{
horizontal = 1;
place = "{457, -20}";
target = down;
type = TopGhost;
}
);
layerId = UUID0;
paths = (
{
closed = 1;
nodes = (
"318 -14 OFFCURVE",
"388 54 OFFCURVE",
"388 121 CURVE SMOOTH",
"388 201 OFFCURVE",
"345 224 OFFCURVE",
"250 262 CURVE SMOOTH",
"167 296 OFFCURVE",
"127 314 OFFCURVE",
"127 361 CURVE SMOOTH",
"127 398 OFFCURVE",
"165 412 OFFCURVE",
"198 412 CURVE SMOOTH",
"251 412 OFFCURVE",
"287 372 OFFCURVE",
"332 318 CURVE",
"337 318 OFFCURVE",
"347 320 OFFCURVE",
"351 324 CURVE",
"337 362 OFFCURVE",
"327 406 OFFCURVE",
"321 444 CURVE",
"308 444 LINE",
"298 441 OFFCURVE",
"291 437 OFFCURVE",
"273 433 CURVE SMOOTH",
"255 437 OFFCURVE",
"237 444 OFFCURVE",
"207 444 CURVE SMOOTH",
"89 444 OFFCURVE",
"60 371 OFFCURVE",
"60 323 CURVE SMOOTH",
"60 250 OFFCURVE",
"126 218 OFFCURVE",
"206 189 CURVE SMOOTH",
"297 156 OFFCURVE",
"311 128 OFFCURVE",
"311 90 CURVE SMOOTH",
"311 56 OFFCURVE",
"281 18 OFFCURVE",
"220 18 CURVE SMOOTH",
"144 18 OFFCURVE",
"114 76 OFFCURVE",
"93 143 CURVE",
"88 143 OFFCURVE",
"76 143 OFFCURVE",
"70 140 CURVE",
"70 89 OFFCURVE",
"63 15 OFFCURVE",
"60 6 CURVE",
"62 2 OFFCURVE",
"64 0 OFFCURVE",
"69 -3 CURVE",
"79 1 OFFCURVE",
"112 11 OFFCURVE",
"125 11 CURVE SMOOTH",
"153 -3 OFFCURVE",
"176 -14 OFFCURVE",
"226 -14 CURVE SMOOTH"
);
}
);
width = 438;
}
);
unicode = 0073;
},
{
glyphname = germandbls;
layers = (
{
hints = (
{
place = "{81, 84}";
},
{
place = "{383, 95}";
},
{
place = "{341, 86}";
},
{
place = "{229, 90}";
},
{
horizontal = 1;
place = "{756, 35}";
},
{
horizontal = 1;
place = "{402, 33}";
},
{
horizontal = 1;
place = "{0, 33}";
},
{
horizontal = 1;
place = "{-9, 28}";
}
);
layerId = UUID0;
paths = (
{
closed = 1;
nodes = (
"117 283 LINE",
"117 195 OFFCURVE",
"117 115 OFFCURVE",
"115 67 CURVE",
"114 31 OFFCURVE",
"62 24 OFFCURVE",
"32 20 CURVE",
"31 15 OFFCURVE",
"30 12 OFFCURVE",
"30 8 CURVE SMOOTH",
"30 4 OFFCURVE",
"31 1 OFFCURVE",
"32 -3 CURVE",
"75 -1 OFFCURVE",
"116 0 OFFCURVE",
"156 0 CURVE",
"212 0 LINE",
"208 67 LINE",
"205 133 OFFCURVE",
"204 286 OFFCURVE",
"204 444 CURVE",
"204 586 LINE",
"204 696 OFFCURVE",
"264 710 OFFCURVE",
"302 710 CURVE SMOOTH",
"375 710 OFFCURVE",
"379 627 OFFCURVE",
"379 581 CURVE SMOOTH",
"379 494 OFFCURVE",
"363 407 OFFCURVE",
"260 407 CURVE",
"248 407 LINE",
"248 377 LINE",
"262 377 LINE",
"406 377 OFFCURVE",
"417 276 OFFCURVE",
"417 202 CURVE SMOOTH",
"417 36 OFFCURVE",
"392 16 OFFCURVE",
"357 16 CURVE SMOOTH",
"342 16 OFFCURVE",
"332 22 OFFCURVE",
"327 29 CURVE",
"348 41 OFFCURVE",
"354 53 OFFCURVE",
"354 73 CURVE SMOOTH",
"354 99 OFFCURVE",
"332 112 OFFCURVE",
"311 112 CURVE SMOOTH",
"290 112 OFFCURVE",
"265 101 OFFCURVE",
"265 63 CURVE SMOOTH",
"265 29 OFFCURVE",
"288 -14 OFFCURVE",
"360 -14 CURVE SMOOTH",
"465 -14 OFFCURVE",
"518 102 OFFCURVE",
"518 202 CURVE SMOOTH",
"518 322 OFFCURVE",
"461 393 OFFCURVE",
"356 399 CURVE",
"356 403 LINE",
"453 430 OFFCURVE",
"477 505 OFFCURVE",
"477 581 CURVE SMOOTH",
"477 703 OFFCURVE",
"378 742 OFFCURVE",
"302 742 CURVE SMOOTH",
"246 742 OFFCURVE",
"117 722 OFFCURVE",
"117 548 CURVE"
);
}
);
width = 578;
}
);
unicode = 00DF;
},
{
glyphname = t;
layers = (
{
hints = (
{
place = "{102, 93}";
},
{
horizontal = 1;
place = "{-8, 21}";
},
{
horizontal = 1;
place = "{523, -20}";
target = down;
type = TopGhost;
},
{
horizontal = 1;
place = "{0, -20}";
target = down;
type = TopGhost;
}
);
layerId = UUID0;
paths = (
{
closed = 1;
nodes = (
"348 385 LINE",
"350 390 OFFCURVE",
"351 396 OFFCURVE",
"351 402 CURVE SMOOTH",
"351 409 OFFCURVE",
"350 415 OFFCURVE",
"348 420 CURVE",
"200 420 LINE",
"200 527 LINE",
"197 528 OFFCURVE",
"192 529 OFFCURVE",
"187 529 CURVE SMOOTH",
"183 529 OFFCURVE",
"178 528 OFFCURVE",
"176 527 CURVE",
"134 454 OFFCURVE",
"89 431 OFFCURVE",
"42 407 CURVE",
"41 402 OFFCURVE",
"40 399 OFFCURVE",
"40 396 CURVE SMOOTH",
"40 393 OFFCURVE",
"41 389 OFFCURVE",
"42 385 CURVE",
"102 385 LINE",
"102 129 LINE SMOOTH",
"102 49 OFFCURVE",
"131 -14 OFFCURVE",
"220 -14 CURVE SMOOTH",
"290 -14 OFFCURVE",
"349 28 OFFCURVE",
"376 76 CURVE",
"374 81 OFFCURVE",
"368 87 OFFCURVE",
"360 88 CURVE",
"334 65 OFFCURVE",
"310 47 OFFCURVE",
"271 47 CURVE SMOOTH",
"237 47 OFFCURVE",
"200 61 OFFCURVE",
"200 124 CURVE SMOOTH",
"200 385 LINE"
);
}
);
width = 391;
}
);
unicode = 0074;
},
{
glyphname = u;
layers = (
{
hints = (
{
horizontal = 1;
place = "{0, -20}";
target = down;
type = TopGhost;
}
);
layerId = UUID0;
paths = (
{
closed = 1;
nodes = (
"478 397 OFFCURVE",
"480 405 OFFCURVE",
"482 418 CURVE",
"479 425 OFFCURVE",
"479 428 OFFCURVE",
"470 433 CURVE",
"430 431 OFFCURVE",
"411 429 OFFCURVE",
"394 429 CURVE SMOOTH",
"374 429 OFFCURVE",
"356 431 OFFCURVE",
"312 433 CURVE",
"311 429 OFFCURVE",
"310 426 OFFCURVE",
"310 422 CURVE SMOOTH",
"310 418 OFFCURVE",
"311 414 OFFCURVE",
"312 410 CURVE",
"338 406 OFFCURVE",
"384 399 OFFCURVE",
"385 363 CURVE",
"388 278 OFFCURVE",
"389 223 OFFCURVE",
"389 108 CURVE",
"336 70 OFFCURVE",
"287 43 OFFCURVE",
"249 43 CURVE SMOOTH",
"212 43 OFFCURVE",
"196 73 OFFCURVE",
"196 131 CURVE SMOOTH",
"197 363 LINE SMOOTH",
"197 397 OFFCURVE",
"200 405 OFFCURVE",
"201 418 CURVE",
"198 425 OFFCURVE",
"196 430 OFFCURVE",
"187 433 CURVE",
"147 431 OFFCURVE",
"128 429 OFFCURVE",
"111 429 CURVE SMOOTH",
"91 429 OFFCURVE",
"73 431 OFFCURVE",
"29 433 CURVE",
"28 429 OFFCURVE",
"27 426 OFFCURVE",
"27 422 CURVE SMOOTH",
"27 418 OFFCURVE",
"28 414 OFFCURVE",
"29 410 CURVE",
"55 406 OFFCURVE",
"102 399 OFFCURVE",
"102 363 CURVE",
"103 363 LINE",
"107 115 LINE SMOOTH",
"108 29 OFFCURVE",
"134 -14 OFFCURVE",
"210 -14 CURVE SMOOTH",
"275 -14 OFFCURVE",
"337 32 OFFCURVE",
"389 77 CURVE",
"389 1 LINE",
"392 -5 OFFCURVE",
"398 -9 OFFCURVE",
"406 -12 CURVE",
"452 8 OFFCURVE",
"509 22 OFFCURVE",
"571 28 CURVE",
"572 31 OFFCURVE",
"573 35 OFFCURVE",
"573 38 CURVE SMOOTH",
"573 42 OFFCURVE",
"572 46 OFFCURVE",
"571 51 CURVE",
"529 53 OFFCURVE",
"497 59 OFFCURVE",
"477 71 CURVE",
"477 148 OFFCURVE",
"475 193 OFFCURVE",
"475 246 CURVE SMOOTH",
"475 279 OFFCURVE",
"476 315 OFFCURVE",
"478 363 CURVE"
);
}
);
width = 608;
}
);
unicode = 0075;
},
{
glyphname = v;
layers = (
{
hints = (
{
horizontal = 1;
place = "{-4, 21}";
},
{
horizontal = 1;
place = "{428, -20}";
target = down;
type = TopGhost;
},
{
horizontal = 1;
place = "{0, -20}";
target = down;
type = TopGhost;
}
);
layerId = UUID0;
paths = (
{
closed = 1;
nodes = (
"337 408 OFFCURVE",
"366 404 OFFCURVE",
"366 384 CURVE SMOOTH",
"366 378 OFFCURVE",
"364 370 OFFCURVE",
"361 363 CURVE",
"257 116 LINE",
"254 116 LINE",
"165 363 LINE",
"164 366 OFFCURVE",
"161 373 OFFCURVE",
"161 381 CURVE SMOOTH",
"161 405 OFFCURVE",
"204 408 OFFCURVE",
"230 410 CURVE",
"231 414 OFFCURVE",
"232 417 OFFCURVE",
"232 421 CURVE SMOOTH",
"232 425 OFFCURVE",
"231 429 OFFCURVE",
"230 433 CURVE",
"188 431 OFFCURVE",
"152 430 OFFCURVE",
"112 430 CURVE SMOOTH",
"71 430 OFFCURVE",
"25 431 OFFCURVE",
"-18 433 CURVE",
"-20 428 OFFCURVE",
"-20 425 OFFCURVE",
"-20 421 CURVE SMOOTH",
"-20 417 OFFCURVE",
"-20 414 OFFCURVE",
"-18 410 CURVE",
"8 406 OFFCURVE",
"53 399 OFFCURVE",
"67 363 CURVE SMOOTH",
"215 -14 LINE",
"239 -14 LINE",
"406 363 LINE",
"418 389 OFFCURVE",
"439 408 OFFCURVE",
"485 410 CURVE",
"486 415 OFFCURVE",
"487 419 OFFCURVE",
"487 423 CURVE SMOOTH",
"487 426 OFFCURVE",
"486 430 OFFCURVE",
"485 433 CURVE",
"443 431 OFFCURVE",
"410 430 OFFCURVE",
"381 430 CURVE SMOOTH",
"367 430 OFFCURVE",
"329 432 OFFCURVE",
"310 433 CURVE",
"309 429 OFFCURVE",
"308 425 OFFCURVE",
"308 421 CURVE SMOOTH",
"308 417 OFFCURVE",
"309 414 OFFCURVE",
"310 410 CURVE"
);
}
);
width = 477;
}
);
unicode = 0076;
},
{
glyphname = w;
layers = (
{
hints = (
{
horizontal = 1;
place = "{-4, 21}";
},
{
horizontal = 1;
place = "{428, -20}";
target = down;
type = TopGhost;
},
{
horizontal = 1;
place = "{0, -20}";
target = down;
type = TopGhost;
}
);
layerId = UUID0;
paths = (
{
closed = 1;
nodes = (
"471 -14 LINE",
"494 -14 LINE",
"658 363 LINE",
"669 389 OFFCURVE",
"689 408 OFFCURVE",
"733 410 CURVE",
"734 415 OFFCURVE",
"735 419 OFFCURVE",
"735 423 CURVE SMOOTH",
"735 426 OFFCURVE",
"734 430 OFFCURVE",
"733 433 CURVE",
"693 431 OFFCURVE",
"662 430 OFFCURVE",
"634 430 CURVE SMOOTH",
"621 430 OFFCURVE",
"585 432 OFFCURVE",
"567 433 CURVE",
"566 429 OFFCURVE",
"565 425 OFFCURVE",
"565 421 CURVE SMOOTH",
"565 417 OFFCURVE",
"566 414 OFFCURVE",
"567 410 CURVE",
"592 408 OFFCURVE",
"620 404 OFFCURVE",
"620 384 CURVE SMOOTH",
"620 378 OFFCURVE",
"618 370 OFFCURVE",
"615 363 CURVE",
"510 114 LINE",
"508 114 LINE",
"418 363 LINE",
"417 366 OFFCURVE",
"414 373 OFFCURVE",
"414 381 CURVE SMOOTH",
"414 405 OFFCURVE",
"455 408 OFFCURVE",
"479 410 CURVE",
"480 414 OFFCURVE",
"481 417 OFFCURVE",
"481 421 CURVE SMOOTH",
"481 425 OFFCURVE",
"480 429 OFFCURVE",
"479 433 CURVE",
"439 431 OFFCURVE",
"407 430 OFFCURVE",
"368 430 CURVE SMOOTH",
"330 430 OFFCURVE",
"296 431 OFFCURVE",
"255 433 CURVE",
"253 428 OFFCURVE",
"253 425 OFFCURVE",
"253 421 CURVE SMOOTH",
"253 417 OFFCURVE",
"253 414 OFFCURVE",
"255 410 CURVE",
"280 406 OFFCURVE",
"313 399 OFFCURVE",
"326 363 CURVE",
"346 310 LINE",
"257 114 LINE",
"255 114 LINE",
"155 363 LINE",
"154 366 OFFCURVE",
"151 373 OFFCURVE",
"151 381 CURVE SMOOTH",
"151 405 OFFCURVE",
"184 408 OFFCURVE",
"208 410 CURVE",
"209 414 OFFCURVE",
"210 417 OFFCURVE",
"210 421 CURVE SMOOTH",
"210 425 OFFCURVE",
"209 429 OFFCURVE",
"208 433 CURVE",
"168 431 OFFCURVE",
"143 430 OFFCURVE",
"104 430 CURVE SMOOTH",
"66 430 OFFCURVE",
"23 431 OFFCURVE",
"-18 433 CURVE",
"-20 428 OFFCURVE",
"-20 425 OFFCURVE",
"-20 421 CURVE SMOOTH",
"-20 417 OFFCURVE",
"-20 414 OFFCURVE",
"-18 410 CURVE",
"7 406 OFFCURVE",
"48 398 OFFCURVE",
"63 363 CURVE SMOOTH",
"218 -14 LINE",
"241 -14 LINE",
"365 260 LINE"
);
}
);
width = 725;
}
);
unicode = 0077;
},
{
glyphname = x;
layers = (
{
hints = (
{
horizontal = 1;
place = "{11, 21}";
},
{
horizontal = 1;
place = "{10, 21}";
}
);
layerId = UUID0;
paths = (
{
closed = 1;
nodes = (
"465 24 OFFCURVE",
"439 27 OFFCURVE",
"406 67 CURVE",
"288 230 LINE",
"392 363 LINE",
"411 383 OFFCURVE",
"436 408 OFFCURVE",
"482 410 CURVE",
"483 415 OFFCURVE",
"484 419 OFFCURVE",
"484 423 CURVE SMOOTH",
"484 426 OFFCURVE",
"483 430 OFFCURVE",
"482 433 CURVE",
"440 431 OFFCURVE",
"407 430 OFFCURVE",
"378 430 CURVE SMOOTH",
"364 430 OFFCURVE",
"326 432 OFFCURVE",
"307 433 CURVE",
"306 429 OFFCURVE",
"305 425 OFFCURVE",
"305 421 CURVE SMOOTH",
"305 417 OFFCURVE",
"306 414 OFFCURVE",
"307 410 CURVE",
"342 409 OFFCURVE",
"357 401 OFFCURVE",
"357 384 CURVE SMOOTH",
"357 378 OFFCURVE",
"352 371 OFFCURVE",
"346 363 CURVE",
"267 258 LINE",
"192 363 LINE",
"191 366 OFFCURVE",
"186 373 OFFCURVE",
"186 383 CURVE SMOOTH",
"186 405 OFFCURVE",
"216 408 OFFCURVE",
"242 410 CURVE",
"243 414 OFFCURVE",
"244 417 OFFCURVE",
"244 421 CURVE SMOOTH",
"244 425 OFFCURVE",
"243 429 OFFCURVE",
"242 433 CURVE",
"200 431 OFFCURVE",
"174 430 OFFCURVE",
"134 430 CURVE SMOOTH",
"93 430 OFFCURVE",
"52 431 OFFCURVE",
"9 433 CURVE",
"7 428 OFFCURVE",
"7 425 OFFCURVE",
"7 421 CURVE SMOOTH",
"7 417 OFFCURVE",
"7 414 OFFCURVE",
"9 410 CURVE",
"35 406 OFFCURVE",
"61 403 OFFCURVE",
"94 363 CURVE",
"206 208 LINE",
"92 67 LINE",
"73 47 OFFCURVE",
"48 22 OFFCURVE",
"2 20 CURVE",
"1 15 OFFCURVE",
"0 11 OFFCURVE",
"0 7 CURVE SMOOTH",
"0 4 OFFCURVE",
"1 0 OFFCURVE",
"2 -3 CURVE",
"44 -1 OFFCURVE",
"77 0 OFFCURVE",
"106 0 CURVE SMOOTH",
"120 0 OFFCURVE",
"158 -2 OFFCURVE",
"177 -3 CURVE",
"178 1 OFFCURVE",
"179 5 OFFCURVE",
"179 9 CURVE SMOOTH",
"179 13 OFFCURVE",
"178 16 OFFCURVE",
"177 20 CURVE",
"142 21 OFFCURVE",
"127 29 OFFCURVE",
"127 46 CURVE SMOOTH",
"127 52 OFFCURVE",
"132 59 OFFCURVE",
"138 67 CURVE",
"227 179 LINE",
"308 67 LINE",
"311 62 OFFCURVE",
"314 60 OFFCURVE",
"314 47 CURVE SMOOTH",
"314 25 OFFCURVE",
"284 22 OFFCURVE",
"258 20 CURVE",
"257 16 OFFCURVE",
"256 13 OFFCURVE",
"256 9 CURVE SMOOTH",
"256 5 OFFCURVE",
"257 1 OFFCURVE",
"258 -3 CURVE",
"300 -1 OFFCURVE",
"326 0 OFFCURVE",
"366 0 CURVE SMOOTH",
"407 0 OFFCURVE",
"448 -1 OFFCURVE",
"491 -3 CURVE",
"493 2 OFFCURVE",
"493 5 OFFCURVE",
"493 9 CURVE SMOOTH",
"493 13 OFFCURVE",
"493 16 OFFCURVE",
"491 20 CURVE"
);
}
);
width = 493;
}
);
unicode = 0078;
},
{
glyphname = y;
layers = (
{
hints = (
{
horizontal = 1;
place = "{-260, 21}";
},
{
horizontal = 1;
place = "{427, -20}";
target = down;
type = TopGhost;
}
);
layerId = UUID0;
paths = (
{
closed = 1;
nodes = (
"322 408 OFFCURVE",
"351 404 OFFCURVE",
"351 384 CURVE SMOOTH",
"351 378 OFFCURVE",
"349 370 OFFCURVE",
"346 363 CURVE",
"252 116 LINE",
"249 116 LINE",
"150 363 LINE",
"149 366 OFFCURVE",
"146 373 OFFCURVE",
"146 381 CURVE SMOOTH",
"146 405 OFFCURVE",
"194 408 OFFCURVE",
"220 410 CURVE",
"221 414 OFFCURVE",
"222 417 OFFCURVE",
"222 421 CURVE SMOOTH",
"222 425 OFFCURVE",
"221 429 OFFCURVE",
"220 433 CURVE",
"178 431 OFFCURVE",
"137 430 OFFCURVE",
"97 430 CURVE SMOOTH",
"56 430 OFFCURVE",
"10 431 OFFCURVE",
"-33 433 CURVE",
"-35 428 OFFCURVE",
"-35 425 OFFCURVE",
"-35 421 CURVE SMOOTH",
"-35 417 OFFCURVE",
"-35 414 OFFCURVE",
"-33 410 CURVE",
"-7 406 OFFCURVE",
"37 398 OFFCURVE",
"52 363 CURVE SMOOTH",
"204 0 LINE",
"150 -139 LINE",
"118 -223 OFFCURVE",
"103 -233 OFFCURVE",
"85 -233 CURVE SMOOTH",
"81 -233 OFFCURVE",
"71 -231 OFFCURVE",
"69 -222 CURVE",
"80 -215 OFFCURVE",
"90 -203 OFFCURVE",
"90 -185 CURVE SMOOTH",
"90 -165 OFFCURVE",
"75 -142 OFFCURVE",
"44 -142 CURVE SMOOTH",
"13 -142 OFFCURVE",
"-12 -164 OFFCURVE",
"-12 -204 CURVE SMOOTH",
"-12 -247 OFFCURVE",
"21 -275 OFFCURVE",
"64 -275 CURVE SMOOTH",
"117 -275 OFFCURVE",
"146 -247 OFFCURVE",
"187 -140 CURVE",
"241 2 LINE",
"240 2 LINE",
"391 363 LINE SMOOTH",
"402 389 OFFCURVE",
"424 408 OFFCURVE",
"470 410 CURVE",
"471 415 OFFCURVE",
"472 419 OFFCURVE",
"472 423 CURVE SMOOTH",
"472 426 OFFCURVE",
"471 430 OFFCURVE",
"470 433 CURVE",
"428 431 OFFCURVE",
"395 430 OFFCURVE",
"366 430 CURVE SMOOTH",
"352 430 OFFCURVE",
"314 432 OFFCURVE",
"295 433 CURVE",
"294 429 OFFCURVE",
"293 425 OFFCURVE",
"293 421 CURVE SMOOTH",
"293 417 OFFCURVE",
"294 414 OFFCURVE",
"295 410 CURVE"
);
}
);
width = 452;
}
);
unicode = 0079;
},
{
glyphname = z;
layers = (
{
hints = (
{
horizontal = 1;
place = "{10, 21}";
},
{
horizontal = 1;
place = "{427, -20}";
target = down;
type = TopGhost;
}
);
layerId = UUID0;
paths = (
{
closed = 1;
nodes = (
"48 311 LINE",
"51 308 OFFCURVE",
"66 302 OFFCURVE",
"71 302 CURVE",
"107 375 OFFCURVE",
"164 403 OFFCURVE",
"231 403 CURVE SMOOTH",
"296 403 LINE",
"40 17 LINE",
"42 10 OFFCURVE",
"45 2 OFFCURVE",
"53 -3 CURVE",
"110 -1 OFFCURVE",
"171 0 OFFCURVE",
"228 0 CURVE SMOOTH",
"285 0 OFFCURVE",
"342 -1 OFFCURVE",
"399 -3 CURVE",
"430 150 LINE",
"424 153 OFFCURVE",
"419 154 OFFCURVE",
"413 154 CURVE",
"372 82 OFFCURVE",
"344 35 OFFCURVE",
"256 35 CURVE SMOOTH",
"148 35 LINE",
"400 415 LINE",
"400 421 OFFCURVE",
"397 427 OFFCURVE",
"391 433 CURVE",
"337 430 OFFCURVE",
"280 429 OFFCURVE",
"232 429 CURVE SMOOTH",
"183 429 OFFCURVE",
"135 430 OFFCURVE",
"82 433 CURVE"
);
}
);
width = 465;
}
);
unicode = 007A;
},
{
glyphname = ordfeminine;
layers = (
{
hints = (
{
place = "{302, -57}";
},
{
place = "{127, -62}";
},
{
horizontal = 1;
place = "{506, -23}";
},
{
horizontal = 1;
place = "{447, -23}";
},
{
horizontal = 1;
place = "{800, -25}";
}
);
layerId = UUID0;
paths = (
{
closed = 1;
nodes = (
"53 599 OFFCURVE",
"78 583 OFFCURVE",
"100 583 CURVE SMOOTH",
"131 583 OFFCURVE",
"146 606 OFFCURVE",
"146 627 CURVE SMOOTH",
"146 649 OFFCURVE",
"136 666 OFFCURVE",
"106 670 CURVE",
"111 688 OFFCURVE",
"136 706 OFFCURVE",
"174 706 CURVE SMOOTH",
"212 706 OFFCURVE",
"241 682 OFFCURVE",
"241 624 CURVE SMOOTH",
"241 568 LINE",
"84 527 OFFCURVE",
"38 501 OFFCURVE",
"38 430 CURVE SMOOTH",
"38 405 OFFCURVE",
"50 354 OFFCURVE",
"123 354 CURVE SMOOTH",
"177 354 OFFCURVE",
"218 396 OFFCURVE",
"241 419 CURVE",
"245 377 OFFCURVE",
"265 360 OFFCURVE",
"290 360 CURVE SMOOTH",
"333 360 OFFCURVE",
"358 405 OFFCURVE",
"385 444 CURVE",
"381 452 OFFCURVE",
"374 456 OFFCURVE",
"365 457 CURVE",
"357 446 OFFCURVE",
"341 425 OFFCURVE",
"331 425 CURVE SMOOTH",
"316 425 OFFCURVE",
"314 437 OFFCURVE",
"314 447 CURVE SMOOTH",
"314 616 LINE SMOOTH",
"314 702 OFFCURVE",
"282 735 OFFCURVE",
"191 735 CURVE SMOOTH",
"184 735 OFFCURVE",
"183 735 OFFCURVE",
"174 734 CURVE SMOOTH",
"106 728 OFFCURVE",
"53 689 OFFCURVE",
"53 633 CURVE SMOOTH"
);
},
{
closed = 1;
nodes = (
"241 457 LINE",
"225 436 OFFCURVE",
"197 405 OFFCURVE",
"161 405 CURVE SMOOTH",
"138 405 OFFCURVE",
"120 420 OFFCURVE",
"120 449 CURVE SMOOTH",
"120 490 OFFCURVE",
"139 519 OFFCURVE",
"241 542 CURVE"
);
}
);
width = 400;
}
);
unicode = 00AA;
},
{
glyphname = ordmasculine;
layers = (
{
hints = (
{
place = "{53, 67}";
},
{
place = "{287, 67}";
},
{
horizontal = 1;
place = "{424, 26}";
},
{
horizontal = 1;
place = "{483, 24}";
},
{
horizontal = 1;
place = "{775, 25}";
}
);
layerId = UUID0;
paths = (
{
closed = 1;
nodes = (
"309 354 OFFCURVE",
"374 434 OFFCURVE",
"374 544 CURVE SMOOTH",
"374 654 OFFCURVE",
"309 734 OFFCURVE",
"200 734 CURVE SMOOTH",
"92 734 OFFCURVE",
"26 654 OFFCURVE",
"26 544 CURVE SMOOTH",
"26 434 OFFCURVE",
"92 354 OFFCURVE",
"200 354 CURVE SMOOTH"
);
},
{
closed = 1;
nodes = (
"110 661 OFFCURVE",
"149 707 OFFCURVE",
"200 707 CURVE SMOOTH",
"252 707 OFFCURVE",
"291 661 OFFCURVE",
"291 544 CURVE SMOOTH",
"291 427 OFFCURVE",
"252 381 OFFCURVE",
"200 381 CURVE SMOOTH",
"149 381 OFFCURVE",
"110 427 OFFCURVE",
"110 544 CURVE SMOOTH"
);
}
);
width = 400;
}
);
unicode = 00BA;
},
{
glyphname = zero;
layers = (
{
hints = (
{
horizontal = 1;
place = "{3, 21}";
},
{
horizontal = 1;
place = "{490, -20}";
target = down;
type = TopGhost;
},
{
horizontal = 1;
place = "{489, -20}";
target = down;
type = TopGhost;
}
);
layerId = UUID0;
paths = (
{
closed = 1;
nodes = (
"14 96 OFFCURVE",
"123 -14 OFFCURVE",
"259 -14 CURVE SMOOTH",
"395 -14 OFFCURVE",
"506 96 OFFCURVE",
"506 232 CURVE SMOOTH",
"506 368 OFFCURVE",
"395 479 OFFCURVE",
"259 479 CURVE SMOOTH",
"123 479 OFFCURVE",
"14 368 OFFCURVE",
"14 232 CURVE SMOOTH"
);
},
{
closed = 1;
nodes = (
"80 332 OFFCURVE",
"160 413 OFFCURVE",
"258 413 CURVE SMOOTH",
"359 413 OFFCURVE",
"440 332 OFFCURVE",
"440 231 CURVE SMOOTH",
"440 133 OFFCURVE",
"359 52 OFFCURVE",
"258 52 CURVE SMOOTH",
"160 52 OFFCURVE",
"80 133 OFFCURVE",
"80 231 CURVE SMOOTH"
);
}
);
width = 520;
}
);
unicode = 0030;
},
{
glyphname = one;
layers = (
{
hints = (
{
horizontal = 1;
place = "{26, 21}";
}
);
layerId = UUID0;
paths = (
{
closed = 1;
nodes = (
"367 24 OFFCURVE",
"316 31 OFFCURVE",
"315 67 CURVE",
"312 129 OFFCURVE",
"311 170 OFFCURVE",
"311 232 CURVE SMOOTH",
"311 294 OFFCURVE",
"312 335 OFFCURVE",
"315 397 CURVE",
"316 433 OFFCURVE",
"367 440 OFFCURVE",
"393 444 CURVE",
"395 448 OFFCURVE",
"396 452 OFFCURVE",
"396 456 CURVE SMOOTH",
"396 460 OFFCURVE",
"395 464 OFFCURVE",
"393 467 CURVE",
"350 465 OFFCURVE",
"300 464 OFFCURVE",
"259 464 CURVE SMOOTH",
"219 464 OFFCURVE",
"169 465 OFFCURVE",
"126 467 CURVE",
"125 463 OFFCURVE",
"124 460 OFFCURVE",
"124 456 CURVE SMOOTH",
"124 452 OFFCURVE",
"125 449 OFFCURVE",
"126 444 CURVE",
"156 440 OFFCURVE",
"213 433 OFFCURVE",
"214 397 CURVE",
"216 349 OFFCURVE",
"216 313 OFFCURVE",
"216 280 CURVE",
"216 184 LINE",
"216 151 OFFCURVE",
"216 115 OFFCURVE",
"214 67 CURVE",
"213 31 OFFCURVE",
"156 24 OFFCURVE",
"126 20 CURVE",
"125 15 OFFCURVE",
"124 12 OFFCURVE",
"124 8 CURVE SMOOTH",
"124 4 OFFCURVE",
"125 1 OFFCURVE",
"126 -3 CURVE",
"169 -1 OFFCURVE",
"219 0 OFFCURVE",
"259 0 CURVE SMOOTH",
"300 0 OFFCURVE",
"350 -1 OFFCURVE",
"393 -3 CURVE",
"395 0 OFFCURVE",
"396 4 OFFCURVE",
"396 8 CURVE SMOOTH",
"396 12 OFFCURVE",
"395 16 OFFCURVE",
"393 20 CURVE"
);
}
);
width = 520;
}
);
unicode = 0031;
},
{
glyphname = two;
layers = (
{
hints = (
{
horizontal = 1;
place = "{26, 21}";
},
{
horizontal = 1;
place = "{516, -20}";
target = down;
type = TopGhost;
}
);
layerId = UUID0;
paths = (
{
closed = 1;
nodes = (
"57 40 LINE",
"60 22 OFFCURVE",
"66 5 OFFCURVE",
"73 0 CURVE",
"416 0 LINE",
"460 161 LINE",
"455 165 OFFCURVE",
"446 168 OFFCURVE",
"436 168 CURVE",
"419 139 OFFCURVE",
"380 96 OFFCURVE",
"329 96 CURVE SMOOTH",
"213 96 LINE",
"213 101 LINE",
"333 175 LINE SMOOTH",
"380 204 OFFCURVE",
"445 251 OFFCURVE",
"445 338 CURVE SMOOTH",
"445 424 OFFCURVE",
"378 479 OFFCURVE",
"268 479 CURVE SMOOTH",
"171 479 OFFCURVE",
"85 435 OFFCURVE",
"85 342 CURVE SMOOTH",
"85 253 OFFCURVE",
"158 227 OFFCURVE",
"158 227 CURVE",
"171 228 OFFCURVE",
"177 236 OFFCURVE",
"179 245 CURVE",
"179 245 OFFCURVE",
"146 273 OFFCURVE",
"146 331 CURVE SMOOTH",
"146 389 OFFCURVE",
"191 420 OFFCURVE",
"256 420 CURVE SMOOTH",
"285 420 OFFCURVE",
"337 400 OFFCURVE",
"337 321 CURVE SMOOTH",
"337 252 OFFCURVE",
"311 216 OFFCURVE",
"252 175 CURVE SMOOTH"
);
}
);
width = 520;
}
);
unicode = 0032;
},
{
glyphname = three;
layers = (
{
hints = (
{
horizontal = 1;
place = "{-204, 21}";
},
{
horizontal = 1;
place = "{-205, 21}";
},
{
horizontal = 1;
place = "{516, -20}";
target = down;
type = TopGhost;
}
);
layerId = UUID0;
paths = (
{
closed = 1;
nodes = (
"129 151 LINE",
"141 122 LINE",
"158 129 OFFCURVE",
"190 139 OFFCURVE",
"217 139 CURVE SMOOTH",
"273 139 OFFCURVE",
"334 112 OFFCURVE",
"334 5 CURVE SMOOTH",
"334 -119 OFFCURVE",
"276 -201 OFFCURVE",
"191 -201 CURVE SMOOTH",
"135 -201 OFFCURVE",
"109 -175 OFFCURVE",
"109 -166 CURVE",
"125 -162 OFFCURVE",
"155 -141 OFFCURVE",
"155 -108 CURVE SMOOTH",
"155 -62 OFFCURVE",
"126 -42 OFFCURVE",
"86 -42 CURVE SMOOTH",
"51 -42 OFFCURVE",
"23 -70 OFFCURVE",
"23 -110 CURVE SMOOTH",
"23 -151 OFFCURVE",
"63 -232 OFFCURVE",
"192 -232 CURVE SMOOTH",
"302 -232 OFFCURVE",
"444 -132 OFFCURVE",
"444 18 CURVE SMOOTH",
"444 142 OFFCURVE",
"363 185 OFFCURVE",
"292 191 CURVE",
"292 196 LINE",
"360 217 OFFCURVE",
"418 275 OFFCURVE",
"418 341 CURVE SMOOTH",
"418 441 OFFCURVE",
"341 479 OFFCURVE",
"241 479 CURVE SMOOTH",
"123 479 OFFCURVE",
"66 421 OFFCURVE",
"66 346 CURVE SMOOTH",
"66 297 OFFCURVE",
"92 264 OFFCURVE",
"120 246 CURVE",
"128 247 OFFCURVE",
"135 251 OFFCURVE",
"139 259 CURVE",
"128 276 OFFCURVE",
"120 295 OFFCURVE",
"120 337 CURVE SMOOTH",
"120 384 OFFCURVE",
"151 420 OFFCURVE",
"222 420 CURVE",
"275 420 OFFCURVE",
"309 380 OFFCURVE",
"309 339 CURVE SMOOTH",
"309 284 OFFCURVE",
"292 231 OFFCURVE",
"209 190 CURVE SMOOTH"
);
}
);
width = 520;
}
);
unicode = 0033;
},
{
glyphname = four;
layers = (
{
hints = (
{
horizontal = 1;
place = "{26, 107}";
},
{
horizontal = 1;
place = "{-182, 21}";
},
{
horizontal = 1;
place = "{516, -20}";
target = down;
type = TopGhost;
}
);
layerId = UUID0;
paths = (
{
closed = 1;
nodes = (
"393 468 LINE",
"386 475 OFFCURVE",
"377 479 OFFCURVE",
"362 479 CURVE",
"4 29 LINE",
"4 17 OFFCURVE",
"9 4 OFFCURVE",
"17 0 CURVE",
"293 0 LINE",
"293 -214 LINE",
"393 -214 LINE",
"393 0 LINE",
"393 0 OFFCURVE",
"508 0 OFFCURVE",
"508 1 CURVE SMOOTH",
"508 2 OFFCURVE",
"522 91 OFFCURVE",
"522 91 CURVE",
"522 91 OFFCURVE",
"393 91 OFFCURVE",
"393 92 CURVE SMOOTH"
);
},
{
closed = 1;
nodes = (
"295 323 LINE",
"295 91 LINE",
"111 91 LINE"
);
}
);
width = 510;
}
);
unicode = 0034;
},
{
glyphname = five;
layers = (
{
hints = (
{
horizontal = 1;
place = "{-208, 21}";
},
{
horizontal = 1;
place = "{572, -20}";
target = down;
type = TopGhost;
}
);
layerId = UUID0;
paths = (
{
closed = 1;
nodes = (
"419 368 LINE",
"458 518 LINE",
"453 522 OFFCURVE",
"444 525 OFFCURVE",
"434 525 CURVE",
"420 496 OFFCURVE",
"403 464 OFFCURVE",
"332 464 CURVE SMOOTH",
"148 464 LINE",
"148 464 OFFCURVE",
"131 289 OFFCURVE",
"94 174 CURVE",
"103 155 OFFCURVE",
"110 149 OFFCURVE",
"125 146 CURVE",
"238 146 OFFCURVE",
"349 129 OFFCURVE",
"349 3 CURVE SMOOTH",
"349 -152 OFFCURVE",
"256 -200 OFFCURVE",
"174 -200 CURVE SMOOTH",
"107 -200 OFFCURVE",
"91 -174 OFFCURVE",
"89 -170 CURVE",
"89 -170 OFFCURVE",
"131 -153 OFFCURVE",
"131 -115 CURVE SMOOTH",
"131 -77 OFFCURVE",
"105 -51 OFFCURVE",
"68 -51 CURVE SMOOTH",
"27 -51 OFFCURVE",
"2 -80 OFFCURVE",
"2 -116 CURVE SMOOTH",
"2 -159 OFFCURVE",
"42 -232 OFFCURVE",
"179 -232 CURVE SMOOTH",
"316 -232 OFFCURVE",
"444 -125 OFFCURVE",
"444 23 CURVE SMOOTH",
"444 201 OFFCURVE",
"319 245 OFFCURVE",
"161 245 CURVE",
"182 368 LINE"
);
}
);
width = 520;
}
);
unicode = 0035;
},
{
glyphname = six;
layers = (
{
hints = (
{
horizontal = 1;
place = "{3, 21}";
},
{
horizontal = 1;
place = "{2, 21}";
},
{
horizontal = 1;
place = "{705, -20}";
target = down;
type = TopGhost;
}
);
layerId = UUID0;
paths = (
{
closed = 1;
nodes = (
"489 694 LINE",
"489 694 OFFCURVE",
"14 566 OFFCURVE",
"14 222 CURVE SMOOTH",
"14 29 OFFCURVE",
"158 -14 OFFCURVE",
"247 -14 CURVE SMOOTH",
"356 -14 OFFCURVE",
"473 66 OFFCURVE",
"473 218 CURVE SMOOTH",
"473 379 OFFCURVE",
"351 434 OFFCURVE",
"192 434 CURVE",
"269 534 OFFCURVE",
"380 616 OFFCURVE",
"501 675 CURVE"
);
},
{
closed = 1;
nodes = (
"363 50 OFFCURVE",
"291 18 OFFCURVE",
"246 18 CURVE",
"166 18 OFFCURVE",
"118 86 OFFCURVE",
"118 203 CURVE SMOOTH",
"118 307 OFFCURVE",
"147 372 OFFCURVE",
"173 399 CURVE",
"320 397 OFFCURVE",
"362 338 OFFCURVE",
"363 218 CURVE"
);
}
);
width = 520;
}
);
unicode = 0036;
},
{
glyphname = seven;
layers = (
{
hints = (
{
horizontal = 1;
place = "{352, 108}";
},
{
horizontal = 1;
place = "{-267, 21}";
},
{
horizontal = 1;
place = "{475, -20}";
target = down;
type = TopGhost;
}
);
layerId = UUID0;
paths = (
{
closed = 1;
nodes = (
"400 368 LINE",
"110 -69 LINE",
"110 -69 OFFCURVE",
"62 -129 OFFCURVE",
"62 -167 CURVE SMOOTH",
"62 -207 OFFCURVE",
"87 -232 OFFCURVE",
"129 -232 CURVE SMOOTH",
"175 -232 OFFCURVE",
"198 -204 OFFCURVE",
"198 -175 CURVE SMOOTH",
"198 -137 OFFCURVE",
"163 -117 OFFCURVE",
"145 -117 CURVE",
"152 -99 OFFCURVE",
"167 -76 OFFCURVE",
"178 -60 CURVE SMOOTH",
"507 439 LINE",
"506 448 OFFCURVE",
"498 464 OFFCURVE",
"486 464 CURVE",
"146 464 LINE",
"122 479 LINE",
"115 479 OFFCURVE",
"109 476 OFFCURVE",
"103 467 CURVE",
"102 426 OFFCURVE",
"90 344 OFFCURVE",
"73 300 CURVE SMOOTH",
"81 291 OFFCURVE",
"93 288 OFFCURVE",
"101 288 CURVE",
"116 316 OFFCURVE",
"137 369 OFFCURVE",
"209 369 CURVE SMOOTH"
);
}
);
width = 520;
}
);
unicode = 0037;
},
{
glyphname = eight;
layers = (
{
hints = (
{
horizontal = 1;
place = "{3, 21}";
},
{
horizontal = 1;
place = "{663, -20}";
target = down;
type = TopGhost;
}
);
layerId = UUID0;
paths = (
{
closed = 1;
nodes = (
"177 339 LINE",
"177 339 OFFCURVE",
"45 313 OFFCURVE",
"45 171 CURVE SMOOTH",
"45 33 OFFCURVE",
"178 -14 OFFCURVE",
"255 -14 CURVE SMOOTH",
"351 -14 OFFCURVE",
"475 40 OFFCURVE",
"475 180 CURVE SMOOTH",
"475 318 OFFCURVE",
"341 340 OFFCURVE",
"341 340 CURVE",
"341 346 LINE",
"341 346 OFFCURVE",
"453 385 OFFCURVE",
"453 517 CURVE SMOOTH",
"453 676 OFFCURVE",
"313 694 OFFCURVE",
"257 694 CURVE SMOOTH",
"229 694 OFFCURVE",
"56 685 OFFCURVE",
"56 506 CURVE SMOOTH",
"56 370 OFFCURVE",
"177 346 OFFCURVE",
"177 346 CURVE"
);
},
{
closed = 1;
nodes = (
"224 359 OFFCURVE",
"161 375 OFFCURVE",
"161 505 CURVE SMOOTH",
"161 612 OFFCURVE",
"199 662 OFFCURVE",
"255 662 CURVE SMOOTH",
"318 662 OFFCURVE",
"348 606 OFFCURVE",
"348 517 CURVE SMOOTH",
"348 452 OFFCURVE",
"331 359 OFFCURVE",
"256 359 CURVE SMOOTH"
);
},
{
closed = 1;
nodes = (
"285 327 OFFCURVE",
"370 319 OFFCURVE",
"370 178 CURVE SMOOTH",
"370 49 OFFCURVE",
"318 18 OFFCURVE",
"256 18 CURVE SMOOTH",
"208 18 OFFCURVE",
"150 49 OFFCURVE",
"150 171 CURVE SMOOTH",
"150 289 OFFCURVE",
"213 327 OFFCURVE",
"256 327 CURVE SMOOTH"
);
}
);
width = 520;
}
);
unicode = 0038;
},
{
glyphname = nine;
layers = (
{
hints = (
{
horizontal = 1;
place = "{-224, 21}";
},
{
horizontal = 1;
place = "{478, -20}";
target = down;
type = TopGhost;
}
);
layerId = UUID0;
paths = (
{
closed = 1;
nodes = (
"2 -229 LINE",
"2 -229 OFFCURVE",
"475 -101 OFFCURVE",
"475 243 CURVE SMOOTH",
"475 436 OFFCURVE",
"331 479 OFFCURVE",
"242 479 CURVE SMOOTH",
"133 479 OFFCURVE",
"16 399 OFFCURVE",
"16 247 CURVE SMOOTH",
"16 86 OFFCURVE",
"140 31 OFFCURVE",
"299 31 CURVE",
"222 -69 OFFCURVE",
"111 -151 OFFCURVE",
"-10 -210 CURVE"
);
},
{
closed = 1;
nodes = (
"126 415 OFFCURVE",
"198 447 OFFCURVE",
"243 447 CURVE",
"323 447 OFFCURVE",
"371 379 OFFCURVE",
"371 262 CURVE SMOOTH",
"371 158 OFFCURVE",
"344 93 OFFCURVE",
"318 66 CURVE",
"171 68 OFFCURVE",
"127 127 OFFCURVE",
"126 247 CURVE"
);
}
);
width = 520;
}
);
unicode = 0039;
},
{
glyphname = onesuperior;
layers = (
{
hints = (
{
place = "{212, 67}";
},
{
horizontal = 1;
place = "{237, 27}";
},
{
horizontal = 1;
place = "{791, -23}";
}
);
layerId = UUID0;
paths = (
{
closed = 1;
nodes = (
"279 703 OFFCURVE",
"279 706 OFFCURVE",
"279 709 CURVE SMOOTH",
"279 712 OFFCURVE",
"279 716 OFFCURVE",
"277 718 CURVE",
"244 716 OFFCURVE",
"206 716 OFFCURVE",
"174 716 CURVE SMOOTH",
"144 716 OFFCURVE",
"105 716 OFFCURVE",
"73 718 CURVE",
"72 715 OFFCURVE",
"71 712 OFFCURVE",
"71 709 CURVE SMOOTH",
"71 706 OFFCURVE",
"72 703 OFFCURVE",
"73 700 CURVE",
"96 697 OFFCURVE",
"140 692 OFFCURVE",
"140 664 CURVE SMOOTH",
"141 628 OFFCURVE",
"141 600 OFFCURVE",
"141 574 CURVE SMOOTH",
"141 538 LINE",
"141 476 OFFCURVE",
"141 448 OFFCURVE",
"140 412 CURVE SMOOTH",
"140 384 OFFCURVE",
"96 379 OFFCURVE",
"73 376 CURVE",
"72 373 OFFCURVE",
"71 370 OFFCURVE",
"71 367 CURVE SMOOTH",
"71 364 OFFCURVE",
"72 361 OFFCURVE",
"73 358 CURVE",
"105 360 OFFCURVE",
"144 360 OFFCURVE",
"174 360 CURVE SMOOTH",
"206 360 OFFCURVE",
"244 360 OFFCURVE",
"277 358 CURVE",
"279 360 OFFCURVE",
"279 364 OFFCURVE",
"279 367 CURVE SMOOTH",
"279 370 OFFCURVE",
"279 373 OFFCURVE",
"277 376 CURVE",
"257 379 OFFCURVE",
"219 384 OFFCURVE",
"218 412 CURVE",
"216 458 OFFCURVE",
"215 491 OFFCURVE",
"215 538 CURVE SMOOTH",
"215 585 OFFCURVE",
"216 618 OFFCURVE",
"218 664 CURVE",
"219 692 OFFCURVE",
"257 697 OFFCURVE",
"277 700 CURVE"
);
}
);
width = 350;
}
);
unicode = 00B9;
},
{
glyphname = twosuperior;
layers = (
{
hints = (
{
place = "{292, 79}";
},
{
horizontal = 1;
place = "{237, 68}";
},
{
horizontal = 1;
place = "{748, 50}";
}
);
layerId = UUID0;
paths = (
{
closed = 1;
nodes = (
"28 389 LINE",
"30 375 OFFCURVE",
"35 362 OFFCURVE",
"40 358 CURVE",
"280 358 LINE",
"304 475 LINE",
"300 479 OFFCURVE",
"294 481 OFFCURVE",
"287 481 CURVE",
"275 458 OFFCURVE",
"241 419 OFFCURVE",
"204 419 CURVE SMOOTH",
"128 419 LINE",
"128 423 LINE",
"218 495 LINE SMOOTH",
"250 520 OFFCURVE",
"299 559 OFFCURVE",
"299 623 CURVE SMOOTH",
"299 691 OFFCURVE",
"250 734 OFFCURVE",
"171 734 CURVE SMOOTH",
"100 734 OFFCURVE",
"48 699 OFFCURVE",
"48 626 CURVE SMOOTH",
"48 557 OFFCURVE",
"101 536 OFFCURVE",
"101 536 CURVE",
"110 537 OFFCURVE",
"115 543 OFFCURVE",
"117 550 CURVE",
"117 550 OFFCURVE",
"92 572 OFFCURVE",
"92 618 CURVE SMOOTH",
"92 663 OFFCURVE",
"114 688 OFFCURVE",
"152 688 CURVE SMOOTH",
"182 688 OFFCURVE",
"220 672 OFFCURVE",
"220 616 CURVE SMOOTH",
"220 556 OFFCURVE",
"201 529 OFFCURVE",
"159 495 CURVE SMOOTH"
);
}
);
width = 350;
}
);
unicode = 00B2;
},
{
glyphname = threesuperior;
layers = (
{
hints = (
{
place = "{257, 72}";
},
{
place = "{236, 63}";
},
{
horizontal = 1;
place = "{234, 27}";
},
{
horizontal = 1;
place = "{751, 44}";
},
{
horizontal = 1;
place = "{532, 44}";
}
);
layerId = UUID0;
paths = (
{
closed = 1;
nodes = (
"112 552 LINE",
"125 525 LINE",
"136 530 OFFCURVE",
"155 533 OFFCURVE",
"164 533 CURVE SMOOTH",
"194 533 OFFCURVE",
"225 520 OFFCURVE",
"225 476 CURVE SMOOTH",
"225 413 OFFCURVE",
"188 383 OFFCURVE",
"140 383 CURVE SMOOTH",
"119 383 OFFCURVE",
"106 391 OFFCURVE",
"103 396 CURVE",
"117 405 OFFCURVE",
"122 410 OFFCURVE",
"122 427 CURVE SMOOTH",
"122 454 OFFCURVE",
"101 465 OFFCURVE",
"73 465 CURVE SMOOTH",
"47 465 OFFCURVE",
"32 441 OFFCURVE",
"32 419 CURVE SMOOTH",
"32 396 OFFCURVE",
"54 354 OFFCURVE",
"148 354 CURVE SMOOTH",
"221 354 OFFCURVE",
"310 402 OFFCURVE",
"310 483 CURVE SMOOTH",
"310 535 OFFCURVE",
"269 561 OFFCURVE",
"224 569 CURVE",
"224 570 LINE",
"273 583 OFFCURVE",
"294 613 OFFCURVE",
"294 649 CURVE SMOOTH",
"294 705 OFFCURVE",
"240 734 OFFCURVE",
"180 734 CURVE SMOOTH",
"90 734 OFFCURVE",
"56 695 OFFCURVE",
"56 646 CURVE SMOOTH",
"56 627 OFFCURVE",
"63 615 OFFCURVE",
"80 594 CURVE",
"96 597 OFFCURVE",
"98 601 OFFCURVE",
"101 606 CURVE",
"98 615 OFFCURVE",
"97 625 OFFCURVE",
"97 639 CURVE SMOOTH",
"97 661 OFFCURVE",
"110 688 OFFCURVE",
"153 688 CURVE SMOOTH",
"187 688 OFFCURVE",
"209 664 OFFCURVE",
"209 639 CURVE SMOOTH",
"209 612 OFFCURVE",
"200 580 OFFCURVE",
"153 565 CURVE SMOOTH"
);
}
);
width = 350;
}
);
unicode = 00B3;
},
{
glyphname = foursuperior;
layers = (
{
hints = (
{
place = "{157, 66}";
},
{
horizontal = 1;
place = "{436, 34}";
},
{
horizontal = 1;
place = "{343, 21}";
target = up;
type = BottomGhost;
},
{
horizontal = 1;
place = "{709, -20}";
target = down;
type = TopGhost;
}
);
layerId = UUID0;
paths = (
{
closed = 1;
nodes = (
"0 456 LINE",
"162 456 LINE",
"162 358 LINE",
"239 358 LINE",
"239 456 LINE",
"293 456 LINE",
"293 500 LINE",
"239 500 LINE",
"239 718 LINE",
"208 718 LINE",
"0 477 LINE"
);
},
{
closed = 1;
nodes = (
"61 500 LINE",
"162 609 LINE",
"162 500 LINE"
);
}
);
width = 350;
}
);
unicode = 2074;
},
{
glyphname = fraction;
layers = (
{
hints = (
{
horizontal = 1;
place = "{-184, -24}";
},
{
horizontal = 1;
place = "{791, -23}";
}
);
layerId = UUID0;
paths = (
{
closed = 1;
nodes = (
"-105 -66 LINE",
"257 752 LINE",
"210 764 LINE",
"-150 -54 LINE"
);
}
);
width = 107;
}
);
unicode = 2044;
},
{
glyphname = onehalf;
layers = (
{
hints = (
{
place = "{164, 60}";
},
{
place = "{569, 61}";
},
{
horizontal = 1;
place = "{-41, 52}";
},
{
horizontal = 1;
place = "{209, 24}";
},
{
horizontal = 1;
place = "{-173, 21}";
target = up;
type = BottomGhost;
},
{
horizontal = 1;
place = "{699, -20}";
target = down;
type = TopGhost;
},
{
horizontal = 1;
place = "{306, -20}";
target = down;
type = TopGhost;
}
);
layerId = UUID0;
paths = (
{
closed = 1;
nodes = (
"446 31 LINE",
"448 17 OFFCURVE",
"453 4 OFFCURVE",
"458 0 CURVE",
"698 0 LINE",
"722 117 LINE",
"718 121 OFFCURVE",
"712 123 OFFCURVE",
"705 123 CURVE",
"693 100 OFFCURVE",
"659 61 OFFCURVE",
"622 61 CURVE SMOOTH",
"546 61 LINE",
"546 65 LINE",
"636 137 LINE SMOOTH",
"668 162 OFFCURVE",
"717 201 OFFCURVE",
"717 265 CURVE SMOOTH",
"717 333 OFFCURVE",
"668 376 OFFCURVE",
"589 376 CURVE SMOOTH",
"518 376 OFFCURVE",
"466 341 OFFCURVE",
"466 268 CURVE SMOOTH",
"466 199 OFFCURVE",
"519 178 OFFCURVE",
"519 178 CURVE",
"528 179 OFFCURVE",
"533 185 OFFCURVE",
"535 192 CURVE",
"535 192 OFFCURVE",
"510 214 OFFCURVE",
"510 260 CURVE SMOOTH",
"510 305 OFFCURVE",
"532 330 OFFCURVE",
"570 330 CURVE SMOOTH",
"600 330 OFFCURVE",
"638 314 OFFCURVE",
"638 258 CURVE SMOOTH",
"638 198 OFFCURVE",
"619 171 OFFCURVE",
"577 137 CURVE SMOOTH"
);
},
{
closed = 1;
nodes = (
"218 -66 LINE",
"580 752 LINE",
"533 764 LINE",
"173 -54 LINE"
);
},
{
closed = 1;
nodes = (
"282 703 OFFCURVE",
"282 706 OFFCURVE",
"282 709 CURVE SMOOTH",
"282 712 OFFCURVE",
"282 716 OFFCURVE",
"280 718 CURVE",
"247 716 OFFCURVE",
"209 716 OFFCURVE",
"177 716 CURVE SMOOTH",
"147 716 OFFCURVE",
"108 716 OFFCURVE",
"76 718 CURVE",
"75 715 OFFCURVE",
"74 712 OFFCURVE",
"74 709 CURVE SMOOTH",
"74 706 OFFCURVE",
"75 703 OFFCURVE",
"76 700 CURVE",
"99 697 OFFCURVE",
"143 692 OFFCURVE",
"143 664 CURVE SMOOTH",
"144 628 OFFCURVE",
"144 600 OFFCURVE",
"144 574 CURVE SMOOTH",
"144 502 LINE SMOOTH",
"144 476 OFFCURVE",
"144 448 OFFCURVE",
"143 412 CURVE",
"221 412 LINE",
"219 458 OFFCURVE",
"218 491 OFFCURVE",
"218 538 CURVE SMOOTH",
"218 585 OFFCURVE",
"219 618 OFFCURVE",
"221 664 CURVE",
"221 692 OFFCURVE",
"260 697 OFFCURVE",
"280 700 CURVE"
);
},
{
closed = 1;
nodes = (
"260 379 OFFCURVE",
"221 384 OFFCURVE",
"221 412 CURVE",
"143 412 LINE",
"143 384 OFFCURVE",
"99 379 OFFCURVE",
"76 376 CURVE",
"75 373 OFFCURVE",
"74 370 OFFCURVE",
"74 367 CURVE SMOOTH",
"74 364 OFFCURVE",
"75 361 OFFCURVE",
"76 358 CURVE",
"108 360 OFFCURVE",
"147 360 OFFCURVE",
"177 360 CURVE SMOOTH",
"209 360 OFFCURVE",
"247 360 OFFCURVE",
"280 358 CURVE",
"282 360 OFFCURVE",
"282 364 OFFCURVE",
"282 367 CURVE SMOOTH",
"282 370 OFFCURVE",
"282 373 OFFCURVE",
"280 376 CURVE"
);
}
);
width = 780;
}
);
unicode = 00BD;
},
{
glyphname = onequarter;
layers = (
{
hints = (
{
place = "{164, 60}";
},
{
place = "{569, 61}";
},
{
horizontal = 1;
place = "{-41, 52}";
},
{
horizontal = 1;
place = "{209, 24}";
},
{
horizontal = 1;
place = "{-173, 21}";
target = up;
type = BottomGhost;
},
{
horizontal = 1;
place = "{699, -20}";
target = down;
type = TopGhost;
},
{
horizontal = 1;
place = "{306, -20}";
target = down;
type = TopGhost;
}
);
layerId = UUID0;
paths = (
{
closed = 1;
nodes = (
"413 98 LINE",
"575 98 LINE",
"575 0 LINE",
"652 0 LINE",
"652 98 LINE",
"706 98 LINE",
"706 142 LINE",
"652 142 LINE",
"652 360 LINE",
"621 360 LINE",
"413 119 LINE"
);
},
{
closed = 1;
nodes = (
"218 -66 LINE",
"580 752 LINE",
"533 764 LINE",
"173 -54 LINE"
);
},
{
closed = 1;
nodes = (
"282 703 OFFCURVE",
"282 706 OFFCURVE",
"282 709 CURVE SMOOTH",
"282 712 OFFCURVE",
"282 716 OFFCURVE",
"280 718 CURVE",
"247 716 OFFCURVE",
"209 716 OFFCURVE",
"177 716 CURVE SMOOTH",
"147 716 OFFCURVE",
"108 716 OFFCURVE",
"76 718 CURVE",
"75 715 OFFCURVE",
"74 712 OFFCURVE",
"74 709 CURVE SMOOTH",
"74 706 OFFCURVE",
"75 703 OFFCURVE",
"76 700 CURVE",
"99 697 OFFCURVE",
"143 692 OFFCURVE",
"143 664 CURVE SMOOTH",
"144 628 OFFCURVE",
"144 600 OFFCURVE",
"144 574 CURVE SMOOTH",
"144 502 LINE SMOOTH",
"144 476 OFFCURVE",
"144 448 OFFCURVE",
"143 412 CURVE SMOOTH",
"143 384 OFFCURVE",
"99 379 OFFCURVE",
"76 376 CURVE",
"75 373 OFFCURVE",
"74 370 OFFCURVE",
"74 367 CURVE SMOOTH",
"74 364 OFFCURVE",
"75 361 OFFCURVE",
"76 358 CURVE",
"108 360 OFFCURVE",
"147 360 OFFCURVE",
"177 360 CURVE SMOOTH",
"209 360 OFFCURVE",
"247 360 OFFCURVE",
"280 358 CURVE",
"282 360 OFFCURVE",
"282 364 OFFCURVE",
"282 367 CURVE SMOOTH",
"282 370 OFFCURVE",
"282 373 OFFCURVE",
"280 376 CURVE",
"260 379 OFFCURVE",
"222 384 OFFCURVE",
"221 412 CURVE",
"219 458 OFFCURVE",
"218 491 OFFCURVE",
"218 538 CURVE SMOOTH",
"218 585 OFFCURVE",
"219 618 OFFCURVE",
"221 664 CURVE",
"222 692 OFFCURVE",
"260 697 OFFCURVE",
"280 700 CURVE"
);
},
{
closed = 1;
nodes = (
"474 142 LINE",
"575 251 LINE",
"575 142 LINE"
);
}
);
width = 780;
}
);
unicode = 00BC;
},
{
glyphname = threequarters;
layers = (
{
hints = (
{
place = "{175, 60}";
},
{
place = "{580, 61}";
},
{
horizontal = 1;
place = "{-41, 52}";
},
{
horizontal = 1;
place = "{209, 24}";
},
{
horizontal = 1;
place = "{-173, 21}";
target = up;
type = BottomGhost;
},
{
horizontal = 1;
place = "{699, -20}";
target = down;
type = TopGhost;
},
{
horizontal = 1;
place = "{306, -20}";
target = down;
type = TopGhost;
}
);
layerId = UUID0;
paths = (
{
closed = 1;
nodes = (
"241 -66 LINE",
"603 752 LINE",
"556 764 LINE",
"196 -54 LINE"
);
},
{
closed = 1;
nodes = (
"424 98 LINE",
"586 98 LINE",
"586 0 LINE",
"663 0 LINE",
"663 98 LINE",
"717 98 LINE",
"717 142 LINE",
"663 142 LINE",
"663 360 LINE",
"632 360 LINE",
"424 119 LINE"
);
},
{
closed = 1;
nodes = (
"485 142 LINE",
"586 251 LINE",
"586 142 LINE"
);
},
{
closed = 1;
nodes = (
"123 552 LINE",
"136 525 LINE",
"147 530 OFFCURVE",
"166 533 OFFCURVE",
"175 533 CURVE SMOOTH",
"205 533 OFFCURVE",
"236 520 OFFCURVE",
"236 476 CURVE SMOOTH",
"236 413 OFFCURVE",
"199 383 OFFCURVE",
"151 383 CURVE SMOOTH",
"130 383 OFFCURVE",
"117 391 OFFCURVE",
"114 396 CURVE",
"128 405 OFFCURVE",
"133 410 OFFCURVE",
"133 427 CURVE SMOOTH",
"133 454 OFFCURVE",
"112 465 OFFCURVE",
"84 465 CURVE SMOOTH",
"58 465 OFFCURVE",
"43 441 OFFCURVE",
"43 419 CURVE SMOOTH",
"43 396 OFFCURVE",
"65 354 OFFCURVE",
"159 354 CURVE SMOOTH",
"232 354 OFFCURVE",
"321 402 OFFCURVE",
"321 483 CURVE SMOOTH",
"321 535 OFFCURVE",
"280 561 OFFCURVE",
"235 569 CURVE",
"235 570 LINE",
"284 583 OFFCURVE",
"305 613 OFFCURVE",
"305 649 CURVE SMOOTH",
"305 705 OFFCURVE",
"251 734 OFFCURVE",
"191 734 CURVE SMOOTH",
"101 734 OFFCURVE",
"67 695 OFFCURVE",
"67 646 CURVE SMOOTH",
"67 627 OFFCURVE",
"74 615 OFFCURVE",
"91 594 CURVE",
"107 597 OFFCURVE",
"109 601 OFFCURVE",
"112 606 CURVE",
"109 615 OFFCURVE",
"108 625 OFFCURVE",
"108 639 CURVE SMOOTH",
"108 661 OFFCURVE",
"121 688 OFFCURVE",
"164 688 CURVE SMOOTH",
"198 688 OFFCURVE",
"220 664 OFFCURVE",
"220 639 CURVE SMOOTH",
"220 612 OFFCURVE",
"211 580 OFFCURVE",
"164 565 CURVE SMOOTH"
);
}
);
width = 780;
}
);
unicode = 00BE;
},
{
glyphname = asterisk;
layers = (
{
hints = (
{
place = "{207, 72}";
},
{
place = "{60, 366}";
},
{
horizontal = 1;
place = "{766, -412}";
}
);
layerId = UUID0;
paths = (
{
closed = 1;
nodes = (
"200 525 OFFCURVE",
"200 522 OFFCURVE",
"201 518 CURVE",
"117 497 LINE SMOOTH",
"78 487 OFFCURVE",
"60 465 OFFCURVE",
"60 439 CURVE SMOOTH",
"60 415 OFFCURVE",
"82 406 OFFCURVE",
"104 406 CURVE SMOOTH",
"119 406 OFFCURVE",
"136 420 OFFCURVE",
"152 436 CURVE SMOOTH",
"213 499 LINE",
"218 494 OFFCURVE",
"224 490 OFFCURVE",
"232 489 CURVE",
"207 405 LINE SMOOTH",
"204 394 OFFCURVE",
"202 383 OFFCURVE",
"202 373 CURVE SMOOTH",
"202 344 OFFCURVE",
"215 323 OFFCURVE",
"243 323 CURVE SMOOTH",
"269 323 OFFCURVE",
"283 346 OFFCURVE",
"283 376 CURVE SMOOTH",
"283 385 OFFCURVE",
"282 395 OFFCURVE",
"279 405 CURVE SMOOTH",
"253 490 LINE",
"260 492 OFFCURVE",
"266 495 OFFCURVE",
"271 500 CURVE",
"334 436 LINE SMOOTH",
"357 412 OFFCURVE",
"372 408 OFFCURVE",
"390 408 CURVE SMOOTH",
"416 408 OFFCURVE",
"426 424 OFFCURVE",
"426 442 CURVE SMOOTH",
"426 467 OFFCURVE",
"407 487 OFFCURVE",
"369 497 CURVE SMOOTH",
"282 519 LINE",
"283 522 OFFCURVE",
"283 525 OFFCURVE",
"283 529 CURVE SMOOTH",
"283 533 OFFCURVE",
"282 536 OFFCURVE",
"281 540 CURVE",
"369 561 LINE SMOOTH",
"403 569 OFFCURVE",
"426 590 OFFCURVE",
"426 619 CURVE SMOOTH",
"426 632 OFFCURVE",
"416 650 OFFCURVE",
"390 650 CURVE SMOOTH",
"363 650 OFFCURVE",
"349 636 OFFCURVE",
"334 621 CURVE SMOOTH",
"272 557 LINE",
"267 563 OFFCURVE",
"260 566 OFFCURVE",
"253 569 CURVE",
"279 654 LINE SMOOTH",
"282 665 OFFCURVE",
"283 675 OFFCURVE",
"283 684 CURVE SMOOTH",
"283 714 OFFCURVE",
"268 734 OFFCURVE",
"243 734 CURVE SMOOTH",
"217 734 OFFCURVE",
"202 715 OFFCURVE",
"202 686 CURVE SMOOTH",
"202 676 OFFCURVE",
"204 665 OFFCURVE",
"207 654 CURVE SMOOTH",
"232 570 LINE",
"224 568 OFFCURVE",
"217 564 OFFCURVE",
"212 559 CURVE",
"152 621 LINE SMOOTH",
"137 636 OFFCURVE",
"127 651 OFFCURVE",
"93 651 CURVE SMOOTH",
"74 651 OFFCURVE",
"60 632 OFFCURVE",
"60 619 CURVE SMOOTH",
"60 589 OFFCURVE",
"82 569 OFFCURVE",
"117 561 CURVE SMOOTH",
"201 540 LINE",
"200 537 OFFCURVE",
"200 533 OFFCURVE",
"200 529 CURVE SMOOTH"
);
}
);
width = 486;
}
);
unicode = 002A;
},
{
glyphname = backslash;
layers = (
{
hints = (
{
horizontal = 1;
place = "{-184, -24}";
},
{
horizontal = 1;
place = "{791, -23}";
}
);
layerId = UUID0;
paths = (
{
closed = 1;
nodes = (
"474 -208 LINE",
"539 -208 LINE",
"147 791 LINE",
"80 791 LINE"
);
}
);
width = 619;
}
);
unicode = 005C;
},
{
glyphname = periodcentered;
layers = (
{
hints = (
{
place = "{80, 122}";
},
{
horizontal = 1;
place = "{306, 122}";
}
);
layerId = UUID0;
paths = (
{
closed = 1;
nodes = (
"80 333 OFFCURVE",
"107 306 OFFCURVE",
"141 306 CURVE SMOOTH",
"175 306 OFFCURVE",
"202 333 OFFCURVE",
"202 367 CURVE SMOOTH",
"202 401 OFFCURVE",
"175 428 OFFCURVE",
"141 428 CURVE SMOOTH",
"107 428 OFFCURVE",
"80 401 OFFCURVE",
"80 367 CURVE SMOOTH"
);
}
);
width = 282;
}
);
unicode = 00B7;
},
{
glyphname = bullet;
layers = (
{
hints = (
{
place = "{80, 192}";
},
{
horizontal = 1;
place = "{270, 192}";
}
);
layerId = UUID0;
paths = (
{
closed = 1;
nodes = (
"80 303 OFFCURVE",
"121 260 OFFCURVE",
"176 260 CURVE SMOOTH",
"229 260 OFFCURVE",
"272 303 OFFCURVE",
"272 356 CURVE SMOOTH",
"272 411 OFFCURVE",
"229 452 OFFCURVE",
"176 452 CURVE SMOOTH",
"122 452 OFFCURVE",
"80 410 OFFCURVE",
"80 356 CURVE SMOOTH"
);
}
);
width = 352;
}
);
unicode = 2022;
},
{
glyphname = colon;
layers = (
{
hints = (
{
place = "{80, 122}";
},
{
horizontal = 1;
place = "{-9, 122}";
},
{
horizontal = 1;
place = "{325, 122}";
}
);
layerId = UUID0;
paths = (
{
closed = 1;
nodes = (
"80 343 OFFCURVE",
"107 315 OFFCURVE",
"141 315 CURVE SMOOTH",
"175 315 OFFCURVE",
"202 343 OFFCURVE",
"202 376 CURVE SMOOTH",
"202 410 OFFCURVE",
"175 437 OFFCURVE",
"141 437 CURVE SMOOTH",
"107 437 OFFCURVE",
"80 410 OFFCURVE",
"80 376 CURVE SMOOTH"
);
},
{
closed = 1;
nodes = (
"80 13 OFFCURVE",
"107 -14 OFFCURVE",
"141 -14 CURVE SMOOTH",
"175 -14 OFFCURVE",
"202 13 OFFCURVE",
"202 47 CURVE SMOOTH",
"202 81 OFFCURVE",
"175 108 OFFCURVE",
"141 108 CURVE SMOOTH",
"107 108 OFFCURVE",
"80 81 OFFCURVE",
"80 47 CURVE SMOOTH"
);
}
);
width = 282;
}
);
unicode = 003A;
},
{
glyphname = comma;
layers = (
{
hints = (
{
place = "{79, 135}";
},
{
horizontal = 1;
place = "{-115, -24}";
},
{
horizontal = 1;
place = "{-9, 120}";
}
);
layerId = UUID0;
paths = (
{
closed = 1;
nodes = (
"105 -128 LINE",
"157 -94 OFFCURVE",
"202 -20 OFFCURVE",
"202 42 CURVE SMOOTH",
"202 92 OFFCURVE",
"170 108 OFFCURVE",
"137 108 CURVE SMOOTH",
"103 108 OFFCURVE",
"80 77 OFFCURVE",
"80 48 CURVE SMOOTH",
"80 9 OFFCURVE",
"99 -10 OFFCURVE",
"143 -10 CURVE",
"145 -13 LINE",
"140 -33 OFFCURVE",
"132 -61 OFFCURVE",
"80 -106 CURVE"
);
}
);
width = 282;
}
);
unicode = 002C;
},
{
glyphname = exclam;
layers = (
{
hints = (
{
place = "{154, 43}";
},
{
place = "{114, 122}";
},
{
horizontal = 1;
place = "{-17, 122}";
}
);
layerId = UUID0;
paths = (
{
closed = 1;
nodes = (
"194 170 LINE",
"198 239 LINE SMOOTH",
"211 459 OFFCURVE",
"237 603 OFFCURVE",
"237 678 CURVE SMOOTH",
"237 729 OFFCURVE",
"192 734 OFFCURVE",
"175 734 CURVE SMOOTH",
"158 734 OFFCURVE",
"113 729 OFFCURVE",
"113 678 CURVE SMOOTH",
"113 603 OFFCURVE",
"145 460 OFFCURVE",
"153 239 CURVE SMOOTH",
"156 170 LINE"
);
},
{
closed = 1;
nodes = (
"114 13 OFFCURVE",
"141 -14 OFFCURVE",
"175 -14 CURVE SMOOTH",
"209 -14 OFFCURVE",
"236 13 OFFCURVE",
"236 47 CURVE SMOOTH",
"236 81 OFFCURVE",
"209 108 OFFCURVE",
"175 108 CURVE SMOOTH",
"141 108 OFFCURVE",
"114 81 OFFCURVE",
"114 47 CURVE SMOOTH"
);
}
);
width = 350;
}
);
unicode = 0021;
},
{
glyphname = exclamdown;
layers = (
{
hints = (
{
place = "{154, 43}";
},
{
place = "{114, 122}";
},
{
horizontal = 1;
place = "{-17, 122}";
}
);
layerId = UUID0;
paths = (
{
closed = 1;
nodes = (
"156 550 LINE",
"152 481 LINE SMOOTH",
"139 261 OFFCURVE",
"113 117 OFFCURVE",
"113 42 CURVE SMOOTH",
"113 -9 OFFCURVE",
"158 -14 OFFCURVE",
"175 -14 CURVE SMOOTH",
"192 -14 OFFCURVE",
"237 -9 OFFCURVE",
"237 42 CURVE SMOOTH",
"237 117 OFFCURVE",
"205 260 OFFCURVE",
"197 481 CURVE SMOOTH",
"194 550 LINE"
);
},
{
closed = 1;
nodes = (
"236 707 OFFCURVE",
"209 734 OFFCURVE",
"175 734 CURVE SMOOTH",
"141 734 OFFCURVE",
"114 707 OFFCURVE",
"114 673 CURVE SMOOTH",
"114 639 OFFCURVE",
"141 612 OFFCURVE",
"175 612 CURVE SMOOTH",
"209 612 OFFCURVE",
"236 639 OFFCURVE",
"236 673 CURVE SMOOTH"
);
}
);
width = 350;
}
);
unicode = 00A1;
},
{
glyphname = numbersign;
layers = (
{
hints = (
{
place = "{88, 159}";
},
{
place = "{291, 160}";
},
{
horizontal = 1;
place = "{223, 44}";
},
{
horizontal = 1;
place = "{472, 44}";
},
{
horizontal = 1;
place = "{69, -24}";
},
{
horizontal = 1;
place = "{685, -23}";
}
);
layerId = UUID0;
paths = (
{
closed = 1;
nodes = (
"348 0 LINE",
"380 201 LINE",
"509 201 LINE",
"516 249 LINE",
"387 249 LINE",
"423 479 LINE",
"551 479 LINE",
"559 529 LINE",
"432 529 LINE",
"463 718 LINE",
"399 718 LINE",
"371 529 LINE",
"206 529 LINE",
"237 718 LINE",
"176 718 LINE",
"145 529 LINE",
"10 529 LINE",
"4 479 LINE",
"139 479 LINE",
"101 249 LINE",
"-32 249 LINE",
"-39 201 LINE",
"93 201 LINE",
"63 0 LINE",
"124 0 LINE",
"158 201 LINE",
"320 201 LINE",
"288 0 LINE"
);
},
{
closed = 1;
nodes = (
"164 249 LINE",
"199 479 LINE",
"360 479 LINE",
"326 249 LINE"
);
}
);
width = 520;
}
);
unicode = 0023;
},
{
glyphname = period;
layers = (
{
hints = (
{
place = "{80, 122}";
},
{
horizontal = 1;
place = "{-10, 122}";
}
);
layerId = UUID0;
paths = (
{
closed = 1;
nodes = (
"80 13 OFFCURVE",
"107 -14 OFFCURVE",
"141 -14 CURVE SMOOTH",
"175 -14 OFFCURVE",
"202 13 OFFCURVE",
"202 47 CURVE SMOOTH",
"202 81 OFFCURVE",
"175 108 OFFCURVE",
"141 108 CURVE SMOOTH",
"107 108 OFFCURVE",
"80 81 OFFCURVE",
"80 47 CURVE SMOOTH"
);
}
);
width = 282;
}
);
unicode = 002E;
},
{
glyphname = question;
layers = (
{
hints = (
{
place = "{183, 28}";
},
{
place = "{360, 69}";
},
{
place = "{45, 100}";
},
{
place = "{45, 88}";
},
{
place = "{143, 108}";
},
{
horizontal = 1;
place = "{686, 28}";
},
{
horizontal = 1;
place = "{-15, 108}";
}
);
layerId = UUID0;
paths = (
{
closed = 1;
nodes = (
"216 170 LINE",
"216 224 LINE SMOOTH",
"216 276 OFFCURVE",
"257 332 OFFCURVE",
"314 373 CURVE SMOOTH",
"374 416 OFFCURVE",
"448 467 OFFCURVE",
"448 573 CURVE SMOOTH",
"448 679 OFFCURVE",
"349 734 OFFCURVE",
"232 734 CURVE SMOOTH",
"98 734 OFFCURVE",
"35 661 OFFCURVE",
"35 603 CURVE SMOOTH",
"35 563 OFFCURVE",
"58 543 OFFCURVE",
"95 543 CURVE SMOOTH",
"128 543 OFFCURVE",
"150 567 OFFCURVE",
"150 597 CURVE SMOOTH",
"150 611 OFFCURVE",
"144 632 OFFCURVE",
"120 642 CURVE SMOOTH",
"120 660 OFFCURVE",
"155 698 OFFCURVE",
"231 698 CURVE SMOOTH",
"312 698 OFFCURVE",
"336 636 OFFCURVE",
"336 584 CURVE SMOOTH",
"336 486 OFFCURVE",
"288 439 OFFCURVE",
"254 408 CURVE SMOOTH",
"198 357 OFFCURVE",
"178 322 OFFCURVE",
"178 239 CURVE SMOOTH",
"178 170 LINE"
);
},
{
closed = 1;
nodes = (
"148 10 OFFCURVE",
"172 -14 OFFCURVE",
"202 -14 CURVE SMOOTH",
"232 -14 OFFCURVE",
"256 10 OFFCURVE",
"256 40 CURVE SMOOTH",
"256 70 OFFCURVE",
"232 94 OFFCURVE",
"202 94 CURVE SMOOTH",
"172 94 OFFCURVE",
"148 70 OFFCURVE",
"148 40 CURVE SMOOTH"
);
}
);
width = 503;
}
);
unicode = 003F;
},
{
glyphname = questiondown;
layers = (
{
hints = (
{
place = "{198, 28}";
},
{
place = "{375, 69}";
},
{
place = "{60, 100}";
},
{
place = "{60, 88}";
},
{
place = "{158, 108}";
},
{
horizontal = 1;
place = "{686, 28}";
},
{
horizontal = 1;
place = "{-15, 108}";
}
);
layerId = UUID0;
paths = (
{
closed = 1;
nodes = (
"282 550 LINE",
"282 496 LINE SMOOTH",
"282 444 OFFCURVE",
"241 388 OFFCURVE",
"184 347 CURVE SMOOTH",
"124 304 OFFCURVE",
"50 253 OFFCURVE",
"50 147 CURVE SMOOTH",
"50 41 OFFCURVE",
"149 -14 OFFCURVE",
"266 -14 CURVE SMOOTH",
"400 -14 OFFCURVE",
"463 59 OFFCURVE",
"463 117 CURVE SMOOTH",
"463 157 OFFCURVE",
"440 177 OFFCURVE",
"403 177 CURVE SMOOTH",
"370 177 OFFCURVE",
"348 153 OFFCURVE",
"348 123 CURVE SMOOTH",
"348 109 OFFCURVE",
"354 88 OFFCURVE",
"378 78 CURVE SMOOTH",
"378 60 OFFCURVE",
"343 22 OFFCURVE",
"267 22 CURVE SMOOTH",
"186 22 OFFCURVE",
"162 84 OFFCURVE",
"162 136 CURVE SMOOTH",
"162 234 OFFCURVE",
"210 281 OFFCURVE",
"244 312 CURVE SMOOTH",
"300 363 OFFCURVE",
"320 398 OFFCURVE",
"320 481 CURVE SMOOTH",
"320 550 LINE"
);
},
{
closed = 1;
nodes = (
"350 710 OFFCURVE",
"326 734 OFFCURVE",
"296 734 CURVE SMOOTH",
"266 734 OFFCURVE",
"242 710 OFFCURVE",
"242 680 CURVE SMOOTH",
"242 650 OFFCURVE",
"266 626 OFFCURVE",
"296 626 CURVE SMOOTH",
"326 626 OFFCURVE",
"350 650 OFFCURVE",
"350 680 CURVE SMOOTH"
);
}
);
width = 503;
}
);
unicode = 00BF;
},
{
glyphname = quotedbl;
layers = (
{
hints = (
{
place = "{68, 101}";
},
{
place = "{254, 102}";
},
{
horizontal = 1;
place = "{791, -23}";
},
{
horizontal = 1;
place = "{584, -24}";
}
);
layerId = UUID0;
paths = (
{
closed = 1;
nodes = (
"100 503 LINE",
"137 503 LINE",
"166 697 LINE",
"166 722 OFFCURVE",
"144 734 OFFCURVE",
"118 734 CURVE SMOOTH",
"91 734 OFFCURVE",
"70 722 OFFCURVE",
"70 697 CURVE"
);
},
{
closed = 1;
nodes = (
"270 503 LINE",
"307 503 LINE",
"336 697 LINE",
"336 722 OFFCURVE",
"314 734 OFFCURVE",
"288 734 CURVE SMOOTH",
"261 734 OFFCURVE",
"240 722 OFFCURVE",
"240 697 CURVE"
);
}
);
width = 406;
}
);
unicode = 0022;
},
{
glyphname = quotesingle;
layers = (
{
hints = (
{
place = "{68, 101}";
},
{
place = "{254, 102}";
},
{
horizontal = 1;
place = "{791, -23}";
},
{
horizontal = 1;
place = "{584, -24}";
}
);
layerId = UUID0;
paths = (
{
closed = 1;
nodes = (
"100 503 LINE",
"137 503 LINE",
"166 697 LINE",
"166 722 OFFCURVE",
"144 734 OFFCURVE",
"118 734 CURVE SMOOTH",
"91 734 OFFCURVE",
"70 722 OFFCURVE",
"70 697 CURVE"
);
}
);
width = 236;
}
);
unicode = 0027;
},
{
glyphname = semicolon;
layers = (
{
hints = (
{
place = "{214, -135}";
},
{
horizontal = 1;
place = "{-9, 120}";
},
{
horizontal = 1;
place = "{447, -122}";
},
{
horizontal = 1;
place = "{-128, 21}";
target = up;
type = BottomGhost;
}
);
layerId = UUID0;
paths = (
{
closed = 1;
nodes = (
"105 -128 LINE",
"157 -94 OFFCURVE",
"202 -20 OFFCURVE",
"202 42 CURVE SMOOTH",
"202 92 OFFCURVE",
"170 108 OFFCURVE",
"137 108 CURVE SMOOTH",
"103 108 OFFCURVE",
"80 77 OFFCURVE",
"80 48 CURVE SMOOTH",
"80 9 OFFCURVE",
"99 -10 OFFCURVE",
"143 -10 CURVE",
"145 -13 LINE",
"140 -33 OFFCURVE",
"132 -61 OFFCURVE",
"80 -106 CURVE"
);
},
{
closed = 1;
nodes = (
"80 343 OFFCURVE",
"107 315 OFFCURVE",
"141 315 CURVE SMOOTH",
"175 315 OFFCURVE",
"202 343 OFFCURVE",
"202 376 CURVE SMOOTH",
"202 410 OFFCURVE",
"175 437 OFFCURVE",
"141 437 CURVE SMOOTH",
"107 437 OFFCURVE",
"80 410 OFFCURVE",
"80 376 CURVE SMOOTH"
);
}
);
width = 282;
}
);
unicode = 003B;
},
{
glyphname = slash;
layers = (
{
hints = (
{
horizontal = 1;
place = "{-184, -24}";
},
{
horizontal = 1;
place = "{791, -23}";
}
);
layerId = UUID0;
paths = (
{
closed = 1;
nodes = (
"145 -208 LINE",
"539 791 LINE",
"472 791 LINE",
"80 -208 LINE"
);
}
);
width = 619;
}
);
unicode = 002F;
},
{
glyphname = underscore;
layers = (
{
hints = (
{
horizontal = 1;
place = "{-263, 55}";
}
);
layerId = UUID0;
paths = (
{
closed = 1;
nodes = (
"0 -260 LINE",
"614 -260 LINE",
"614 -207 LINE",
"0 -207 LINE"
);
}
);
width = 614;
}
);
unicode = 005F;
},
{
glyphname = braceleft;
layers = (
{
hints = (
{
place = "{146, 86}";
},
{
horizontal = 1;
place = "{820, -22}";
},
{
horizontal = 1;
place = "{-146, -24}";
},
{
horizontal = 1;
place = "{347, -43}";
}
);
layerId = UUID0;
paths = (
{
closed = 1;
nodes = (
"50 295 LINE",
"50 273 LINE",
"165 257 OFFCURVE",
"169 147 OFFCURVE",
"169 85 CURVE SMOOTH",
"169 62 OFFCURVE",
"166 16 OFFCURVE",
"166 -11 CURVE SMOOTH",
"166 -96 OFFCURVE",
"171 -184 OFFCURVE",
"357 -209 CURVE",
"364 -185 LINE",
"322 -180 OFFCURVE",
"267 -154 OFFCURVE",
"267 -83 CURVE SMOOTH",
"267 -45 OFFCURVE",
"275 6 OFFCURVE",
"275 66 CURVE SMOOTH",
"275 121 OFFCURVE",
"269 235 OFFCURVE",
"115 295 CURVE",
"269 355 OFFCURVE",
"275 469 OFFCURVE",
"275 524 CURVE SMOOTH",
"275 584 OFFCURVE",
"267 635 OFFCURVE",
"267 673 CURVE SMOOTH",
"267 744 OFFCURVE",
"322 770 OFFCURVE",
"364 775 CURVE",
"357 799 LINE",
"171 774 OFFCURVE",
"166 686 OFFCURVE",
"166 601 CURVE SMOOTH",
"166 574 OFFCURVE",
"169 528 OFFCURVE",
"169 505 CURVE SMOOTH",
"169 443 OFFCURVE",
"165 333 OFFCURVE",
"50 317 CURVE"
);
}
);
width = 394;
}
);
unicode = 007B;
},
{
glyphname = braceright;
layers = (
{
hints = (
{
place = "{126, 86}";
},
{
horizontal = 1;
place = "{820, -22}";
},
{
horizontal = 1;
place = "{-146, -24}";
},
{
horizontal = 1;
place = "{347, -43}";
}
);
layerId = UUID0;
paths = (
{
closed = 1;
nodes = (
"125 235 OFFCURVE",
"119 121 OFFCURVE",
"119 66 CURVE SMOOTH",
"119 6 OFFCURVE",
"127 -45 OFFCURVE",
"127 -83 CURVE SMOOTH",
"127 -154 OFFCURVE",
"72 -180 OFFCURVE",
"30 -185 CURVE",
"37 -209 LINE",
"223 -184 OFFCURVE",
"228 -96 OFFCURVE",
"228 -11 CURVE SMOOTH",
"228 16 OFFCURVE",
"225 62 OFFCURVE",
"225 85 CURVE SMOOTH",
"225 147 OFFCURVE",
"229 257 OFFCURVE",
"344 273 CURVE",
"344 317 LINE",
"229 333 OFFCURVE",
"225 443 OFFCURVE",
"225 505 CURVE SMOOTH",
"225 528 OFFCURVE",
"228 574 OFFCURVE",
"228 601 CURVE SMOOTH",
"228 686 OFFCURVE",
"223 774 OFFCURVE",
"37 799 CURVE",
"30 775 LINE",
"72 770 OFFCURVE",
"127 744 OFFCURVE",
"127 673 CURVE SMOOTH",
"127 635 OFFCURVE",
"119 584 OFFCURVE",
"119 524 CURVE SMOOTH",
"119 469 OFFCURVE",
"125 355 OFFCURVE",
"279 295 CURVE"
);
}
);
width = 394;
}
);
unicode = 007D;
},
{
glyphname = bracketleft;
layers = (
{
hints = (
{
place = "{120, 97}";
},
{
horizontal = 1;
place = "{-208, 42}";
},
{
horizontal = 1;
place = "{749, 42}";
}
);
layerId = UUID0;
paths = (
{
closed = 1;
nodes = (
"362 791 LINE",
"120 791 LINE",
"120 -208 LINE",
"362 -208 LINE",
"362 -166 LINE",
"217 -166 LINE",
"217 749 LINE",
"362 749 LINE"
);
}
);
width = 402;
}
);
unicode = 005B;
},
{
glyphname = bracketright;
layers = (
{
hints = (
{
place = "{185, 97}";
},
{
horizontal = 1;
place = "{-208, 42}";
},
{
horizontal = 1;
place = "{749, 42}";
}
);
layerId = UUID0;
paths = (
{
closed = 1;
nodes = (
"40 791 LINE",
"40 749 LINE",
"185 749 LINE",
"185 -166 LINE",
"40 -166 LINE",
"40 -208 LINE",
"282 -208 LINE",
"282 791 LINE"
);
}
);
width = 402;
}
);
unicode = 005D;
},
{
glyphname = parenleft;
layers = (
{
hints = (
{
place = "{90, 113}";
},
{
horizontal = 1;
place = "{800, -23}";
},
{
horizontal = 1;
place = "{-184, -24}";
}
);
layerId = UUID0;
paths = (
{
closed = 1;
nodes = (
"383 -194 LINE",
"376 -185 OFFCURVE",
"356 -166 OFFCURVE",
"301 -80 CURVE SMOOTH",
"207 66 OFFCURVE",
"203 237 OFFCURVE",
"203 295 CURVE SMOOTH",
"203 353 OFFCURVE",
"210 522 OFFCURVE",
"301 670 CURVE SMOOTH",
"355 756 OFFCURVE",
"377 776 OFFCURVE",
"383 784 CURVE",
"367 799 LINE",
"118 630 OFFCURVE",
"90 381 OFFCURVE",
"90 295 CURVE SMOOTH",
"90 209 OFFCURVE",
"118 -40 OFFCURVE",
"367 -209 CURVE"
);
}
);
width = 424;
}
);
unicode = 0028;
},
{
glyphname = parenright;
layers = (
{
hints = (
{
place = "{39, 113}";
},
{
horizontal = 1;
place = "{800, -23}";
},
{
horizontal = 1;
place = "{-184, -24}";
}
);
layerId = UUID0;
paths = (
{
closed = 1;
nodes = (
"57 -209 LINE",
"306 -40 OFFCURVE",
"334 209 OFFCURVE",
"334 295 CURVE SMOOTH",
"334 381 OFFCURVE",
"306 630 OFFCURVE",
"57 799 CURVE",
"41 784 LINE",
"43 781 OFFCURVE",
"69 756 OFFCURVE",
"123 670 CURVE SMOOTH",
"214 522 OFFCURVE",
"221 353 OFFCURVE",
"221 295 CURVE SMOOTH",
"221 237 OFFCURVE",
"214 68 OFFCURVE",
"123 -80 CURVE SMOOTH",
"69 -166 OFFCURVE",
"45 -189 OFFCURVE",
"41 -194 CURVE"
);
}
);
width = 424;
}
);
unicode = 0029;
},
{
glyphname = emdash;
layers = (
{
hints = (
{
horizontal = 1;
place = "{181, 56}";
}
);
layerId = UUID0;
paths = (
{
closed = 1;
nodes = (
"80 201 LINE",
"1111 201 LINE",
"1111 257 LINE",
"80 257 LINE"
);
}
);
width = 1191;
}
);
unicode = 2014;
},
{
glyphname = endash;
layers = (
{
hints = (
{
horizontal = 1;
place = "{181, 56}";
}
);
layerId = UUID0;
paths = (
{
closed = 1;
nodes = (
"80 201 LINE",
"777 201 LINE",
"777 257 LINE",
"80 257 LINE"
);
}
);
width = 857;
}
);
unicode = 2013;
},
{
glyphname = hyphen;
layers = (
{
hints = (
{
horizontal = 1;
place = "{163, 74}";
}
);
layerId = UUID0;
paths = (
{
closed = 1;
nodes = (
"80 201 LINE",
"377 201 LINE",
"377 262 LINE",
"80 262 LINE"
);
}
);
width = 457;
}
);
unicode = 002D;
},
{
glyphname = softhyphen;
layers = (
{
hints = (
{
horizontal = 1;
place = "{163, 74}";
}
);
layerId = UUID0;
paths = (
{
closed = 1;
nodes = (
"80 201 LINE",
"377 201 LINE",
"377 262 LINE",
"80 262 LINE"
);
}
);
width = 457;
}
);
unicode = 00AD;
},
{
glyphname = guillemetleft;
layers = (
{
hints = (
{
horizontal = 1;
place = "{392, -22}";
},
{
horizontal = 1;
place = "{45, -24}";
},
{
origin = "{0, 3}";
target = "{1, 1}";
}
);
layerId = UUID0;
paths = (
{
closed = 1;
nodes = (
"175 207 LINE",
"279 370 LINE",
"251 392 LINE",
"79 207 LINE",
"251 21 LINE",
"279 44 LINE"
);
},
{
closed = 1;
nodes = (
"361 207 LINE",
"464 370 LINE",
"436 392 LINE",
"264 207 LINE",
"436 21 LINE",
"464 44 LINE"
);
}
);
width = 544;
}
);
unicode = 00AB;
},
{
glyphname = guillemetright;
layers = (
{
hints = (
{
horizontal = 1;
place = "{45, -24}";
},
{
horizontal = 1;
place = "{392, -22}";
},
{
origin = "{0, 1}";
target = "{1, 3}";
}
);
layerId = UUID0;
paths = (
{
closed = 1;
nodes = (
"184 207 LINE",
"80 44 LINE",
"108 21 LINE",
"280 207 LINE",
"108 392 LINE",
"80 370 LINE"
);
},
{
closed = 1;
nodes = (
"369 207 LINE",
"265 44 LINE",
"294 21 LINE",
"465 207 LINE",
"294 392 LINE",
"265 370 LINE"
);
}
);
width = 545;
}
);
unicode = 00BB;
},
{
glyphname = guilsinglleft;
layers = (
{
hints = (
{
place = "{80, 207}";
},
{
horizontal = 1;
place = "{415, -23}";
},
{
horizontal = 1;
place = "{68, -24}";
}
);
layerId = UUID0;
paths = (
{
closed = 1;
nodes = (
"178 207 LINE",
"280 370 LINE",
"252 392 LINE",
"80 207 LINE",
"252 21 LINE",
"280 44 LINE"
);
}
);
width = 360;
}
);
unicode = 2039;
},
{
glyphname = guilsinglright;
layers = (
{
hints = (
{
place = "{80, 207}";
},
{
horizontal = 1;
place = "{68, -24}";
},
{
horizontal = 1;
place = "{415, -23}";
}
);
layerId = UUID0;
paths = (
{
closed = 1;
nodes = (
"80 44 LINE",
"108 21 LINE",
"280 207 LINE",
"108 392 LINE",
"80 370 LINE",
"182 207 LINE"
);
}
);
width = 360;
}
);
unicode = 203A;
},
{
glyphname = quotedblbase;
layers = (
{
hints = (
{
place = "{79, 135}";
},
{
place = "{270, 135}";
},
{
horizontal = 1;
place = "{-9, 120}";
},
{
horizontal = 1;
place = "{-115, -24}";
}
);
layerId = UUID0;
paths = (
{
closed = 1;
nodes = (
"115 -128 LINE",
"167 -94 OFFCURVE",
"212 -20 OFFCURVE",
"212 42 CURVE SMOOTH",
"212 92 OFFCURVE",
"180 108 OFFCURVE",
"147 108 CURVE SMOOTH",
"113 108 OFFCURVE",
"90 77 OFFCURVE",
"90 48 CURVE SMOOTH",
"90 9 OFFCURVE",
"109 -10 OFFCURVE",
"153 -10 CURVE",
"155 -13 LINE",
"150 -33 OFFCURVE",
"142 -61 OFFCURVE",
"90 -106 CURVE"
);
},
{
closed = 1;
nodes = (
"296 -128 LINE",
"348 -94 OFFCURVE",
"393 -20 OFFCURVE",
"393 42 CURVE SMOOTH",
"393 92 OFFCURVE",
"361 108 OFFCURVE",
"328 108 CURVE SMOOTH",
"294 108 OFFCURVE",
"271 77 OFFCURVE",
"271 48 CURVE SMOOTH",
"271 9 OFFCURVE",
"290 -10 OFFCURVE",
"334 -10 CURVE",
"336 -13 LINE",
"331 -33 OFFCURVE",
"323 -61 OFFCURVE",
"271 -106 CURVE"
);
}
);
width = 483;
}
);
unicode = 201E;
},
{
glyphname = quotedblleft;
layers = (
{
hints = (
{
place = "{79, 135}";
},
{
place = "{259, 134}";
},
{
horizontal = 1;
place = "{680, 120}";
},
{
horizontal = 1;
place = "{574, -24}";
}
);
layerId = UUID0;
paths = (
{
closed = 1;
nodes = (
"368 734 LINE",
"316 700 OFFCURVE",
"271 626 OFFCURVE",
"271 564 CURVE SMOOTH",
"271 514 OFFCURVE",
"303 498 OFFCURVE",
"336 498 CURVE SMOOTH",
"370 498 OFFCURVE",
"393 529 OFFCURVE",
"393 558 CURVE SMOOTH",
"393 597 OFFCURVE",
"374 616 OFFCURVE",
"330 616 CURVE",
"328 619 LINE",
"333 639 OFFCURVE",
"341 667 OFFCURVE",
"393 712 CURVE"
);
},
{
closed = 1;
nodes = (
"187 734 LINE",
"135 700 OFFCURVE",
"90 626 OFFCURVE",
"90 564 CURVE SMOOTH",
"90 514 OFFCURVE",
"122 498 OFFCURVE",
"155 498 CURVE SMOOTH",
"189 498 OFFCURVE",
"212 529 OFFCURVE",
"212 558 CURVE SMOOTH",
"212 597 OFFCURVE",
"193 616 OFFCURVE",
"149 616 CURVE",
"147 619 LINE",
"152 639 OFFCURVE",
"160 667 OFFCURVE",
"212 712 CURVE"
);
}
);
width = 483;
}
);
unicode = 201C;
},
{
glyphname = quotedblright;
layers = (
{
hints = (
{
place = "{79, 135}";
},
{
place = "{259, 134}";
},
{
horizontal = 1;
place = "{680, 120}";
},
{
horizontal = 1;
place = "{574, -24}";
}
);
layerId = UUID0;
paths = (
{
closed = 1;
nodes = (
"115 498 LINE",
"167 532 OFFCURVE",
"212 606 OFFCURVE",
"212 668 CURVE SMOOTH",
"212 718 OFFCURVE",
"180 734 OFFCURVE",
"147 734 CURVE SMOOTH",
"113 734 OFFCURVE",
"90 703 OFFCURVE",
"90 674 CURVE SMOOTH",
"90 635 OFFCURVE",
"109 616 OFFCURVE",
"153 616 CURVE",
"155 613 LINE",
"150 593 OFFCURVE",
"142 565 OFFCURVE",
"90 520 CURVE"
);
},
{
closed = 1;
nodes = (
"296 498 LINE",
"348 532 OFFCURVE",
"393 606 OFFCURVE",
"393 668 CURVE SMOOTH",
"393 718 OFFCURVE",
"361 734 OFFCURVE",
"328 734 CURVE SMOOTH",
"294 734 OFFCURVE",
"271 703 OFFCURVE",
"271 674 CURVE SMOOTH",
"271 635 OFFCURVE",
"290 616 OFFCURVE",
"334 616 CURVE",
"336 613 LINE",
"331 593 OFFCURVE",
"323 565 OFFCURVE",
"271 520 CURVE"
);
}
);
width = 483;
}
);
unicode = 201D;
},
{
glyphname = quoteleft;
layers = (
{
hints = (
{
place = "{79, 135}";
},
{
place = "{259, 134}";
},
{
horizontal = 1;
place = "{680, 120}";
},
{
horizontal = 1;
place = "{574, -24}";
}
);
layerId = UUID0;
paths = (
{
closed = 1;
nodes = (
"187 734 LINE",
"135 700 OFFCURVE",
"90 626 OFFCURVE",
"90 564 CURVE SMOOTH",
"90 514 OFFCURVE",
"122 498 OFFCURVE",
"155 498 CURVE SMOOTH",
"189 498 OFFCURVE",
"212 529 OFFCURVE",
"212 558 CURVE SMOOTH",
"212 597 OFFCURVE",
"193 616 OFFCURVE",
"149 616 CURVE",
"147 619 LINE",
"152 639 OFFCURVE",
"160 667 OFFCURVE",
"212 712 CURVE"
);
}
);
width = 302;
}
);
unicode = 2018;
},
{
glyphname = quoteright;
layers = (
{
hints = (
{
place = "{79, 135}";
},
{
place = "{259, 134}";
},
{
horizontal = 1;
place = "{680, 120}";
},
{
horizontal = 1;
place = "{574, -24}";
}
);
layerId = UUID0;
paths = (
{
closed = 1;
nodes = (
"115 498 LINE",
"167 532 OFFCURVE",
"212 606 OFFCURVE",
"212 668 CURVE SMOOTH",
"212 718 OFFCURVE",
"180 734 OFFCURVE",
"147 734 CURVE SMOOTH",
"113 734 OFFCURVE",
"90 703 OFFCURVE",
"90 674 CURVE SMOOTH",
"90 635 OFFCURVE",
"109 616 OFFCURVE",
"153 616 CURVE",
"155 613 LINE",
"150 593 OFFCURVE",
"142 565 OFFCURVE",
"90 520 CURVE"
);
}
);
width = 302;
}
);
unicode = 2019;
},
{
glyphname = quotesinglbase;
layers = (
{
hints = (
{
place = "{89, 135}";
},
{
horizontal = 1;
place = "{-115, -24}";
},
{
horizontal = 1;
place = "{-9, 120}";
}
);
layerId = UUID0;
paths = (
{
closed = 1;
nodes = (
"115 -128 LINE",
"167 -94 OFFCURVE",
"212 -20 OFFCURVE",
"212 42 CURVE SMOOTH",
"212 92 OFFCURVE",
"180 108 OFFCURVE",
"147 108 CURVE SMOOTH",
"113 108 OFFCURVE",
"90 77 OFFCURVE",
"90 48 CURVE SMOOTH",
"90 9 OFFCURVE",
"109 -10 OFFCURVE",
"153 -10 CURVE",
"155 -13 LINE",
"150 -33 OFFCURVE",
"142 -61 OFFCURVE",
"90 -106 CURVE"
);
}
);
width = 302;
}
);
unicode = 201A;
},
{
glyphname = .notdef;
layers = (
{
background = {
paths = (
{
closed = 1;
nodes = (
"675 231 OFFCURVE",
"678 272 OFFCURVE",
"675 291 CURVE SMOOTH",
"674 296 OFFCURVE",
"673 293 OFFCURVE",
"673 291 CURVE SMOOTH",
"668 265 OFFCURVE",
"659 249 OFFCURVE",
"648 240 CURVE",
"640 252 OFFCURVE",
"637 266 OFFCURVE",
"637 284 CURVE",
"656 292 OFFCURVE",
"666 328 OFFCURVE",
"666 357 CURVE SMOOTH",
"666 389 OFFCURVE",
"658 402 OFFCURVE",
"628 407 CURVE",
"608 370 OFFCURVE",
"602 306 OFFCURVE",
"612 258 CURVE SMOOTH",
"613 255 LINE",
"610 251 OFFCURVE",
"605 239 OFFCURVE",
"599 240 CURVE",
"592 266 OFFCURVE",
"594 308 OFFCURVE",
"598 335 CURVE",
"594 340 OFFCURVE",
"581 344 OFFCURVE",
"575 343 CURVE",
"574 341 OFFCURVE",
"571 328 OFFCURVE",
"571 325 CURVE",
"564 327 OFFCURVE",
"557 328 OFFCURVE",
"552 328 CURVE",
"539 315 OFFCURVE",
"536 298 OFFCURVE",
"535 280 CURVE SMOOTH",
"535 266 LINE",
"531 257 OFFCURVE",
"525 246 OFFCURVE",
"516 241 CURVE",
"512 245 OFFCURVE",
"509 252 OFFCURVE",
"507 259 CURVE",
"521 264 OFFCURVE",
"529 283 OFFCURVE",
"529 300 CURVE SMOOTH",
"529 326 OFFCURVE",
"513 335 OFFCURVE",
"491 333 CURVE",
"485 323 OFFCURVE",
"481 300 OFFCURVE",
"480 281 CURVE SMOOTH",
"479 256 OFFCURVE",
"488 234 OFFCURVE",
"515 234 CURVE",
"527 235 OFFCURVE",
"534 242 OFFCURVE",
"538 249 CURVE",
"541 240 OFFCURVE",
"548 233 OFFCURVE",
"562 234 CURVE SMOOTH",
"568 234 OFFCURVE",
"577 239 OFFCURVE",
"579 247 CURVE",
"581 239 OFFCURVE",
"589 231 OFFCURVE",
"599 231 CURVE SMOOTH",
"608 231 OFFCURVE",
"614 238 OFFCURVE",
"616 247 CURVE",
"622 236 OFFCURVE",
"631 231 OFFCURVE",
"644 231 CURVE SMOOTH"
);
},
{
closed = 1;
nodes = (
"391 339 OFFCURVE",
"377 344 OFFCURVE",
"368 343 CURVE",
"370 323 OFFCURVE",
"378 285 OFFCURVE",
"371 253 CURVE SMOOTH",
"370 251 OFFCURVE",
"369 247 OFFCURVE",
"366 246 CURVE",
"359 270 OFFCURVE",
"359 296 OFFCURVE",
"360 323 CURVE",
"353 330 OFFCURVE",
"341 332 OFFCURVE",
"335 333 CURVE",
"333 328 OFFCURVE",
"331 318 OFFCURVE",
"331 306 CURVE SMOOTH",
"331 292 OFFCURVE",
"332 278 OFFCURVE",
"335 266 CURVE",
"332 257 OFFCURVE",
"323 243 OFFCURVE",
"309 238 CURVE",
"277 262 OFFCURVE",
"289 365 OFFCURVE",
"306 382 CURVE",
"310 376 OFFCURVE",
"316 355 OFFCURVE",
"314 341 CURVE",
"313 340 OFFCURVE",
"313 337 OFFCURVE",
"316 340 CURVE SMOOTH",
"326 348 OFFCURVE",
"333 359 OFFCURVE",
"333 371 CURVE SMOOTH",
"333 403 OFFCURVE",
"309 409 OFFCURVE",
"293 412 CURVE",
"265 388 OFFCURVE",
"255 345 OFFCURVE",
"256 304 CURVE SMOOTH",
"257 267 OFFCURVE",
"271 230 OFFCURVE",
"311 230 CURVE SMOOTH",
"328 230 OFFCURVE",
"336 241 OFFCURVE",
"340 252 CURVE",
"345 240 OFFCURVE",
"354 233 OFFCURVE",
"367 233 CURVE SMOOTH",
"369 233 OFFCURVE",
"373 236 OFFCURVE",
"374 238 CURVE",
"370 204 OFFCURVE",
"369 181 OFFCURVE",
"348 167 CURVE",
"345 178 OFFCURVE",
"347 190 OFFCURVE",
"349 200 CURVE",
"342 207 OFFCURVE",
"332 210 OFFCURVE",
"323 210 CURVE",
"321 203 OFFCURVE",
"319 195 OFFCURVE",
"319 187 CURVE SMOOTH",
"319 168 OFFCURVE",
"324 158 OFFCURVE",
"343 158 CURVE SMOOTH",
"393 158 OFFCURVE",
"408 249 OFFCURVE",
"398 331 CURVE"
);
},
{
closed = 1;
nodes = (
"402 335 LINE",
"413 308 OFFCURVE",
"414 263 OFFCURVE",
"416 232 CURVE",
"428 230 OFFCURVE",
"435 238 OFFCURVE",
"437 248 CURVE",
"440 255 OFFCURVE",
"440 271 OFFCURVE",
"440 279 CURVE",
"443 289 OFFCURVE",
"449 296 OFFCURVE",
"453 303 CURVE",
"454 289 OFFCURVE",
"463 283 OFFCURVE",
"477 287 CURVE",
"475 299 OFFCURVE",
"476 316 OFFCURVE",
"479 329 CURVE",
"474 335 OFFCURVE",
"464 339 OFFCURVE",
"453 339 CURVE",
"452 335 OFFCURVE",
"449 327 OFFCURVE",
"449 323 CURVE",
"447 315 OFFCURVE",
"444 308 OFFCURVE",
"437 297 CURVE",
"436 311 OFFCURVE",
"434 321 OFFCURVE",
"429 328 CURVE",
"426 332 LINE",
"419 333 LINE",
"412 335 LINE"
);
},
{
closed = 1;
nodes = (
"555 264 OFFCURVE",
"561 304 OFFCURVE",
"569 313 CURVE",
"568 304 OFFCURVE",
"568 280 OFFCURVE",
"573 261 CURVE",
"572 254 OFFCURVE",
"565 247 OFFCURVE",
"561 243 CURVE"
);
},
{
closed = 1;
nodes = (
"638 323 OFFCURVE",
"643 353 OFFCURVE",
"648 374 CURVE",
"652 354 OFFCURVE",
"648 313 OFFCURVE",
"637 296 CURVE"
);
},
{
closed = 1;
nodes = (
"516 311 OFFCURVE",
"519 305 OFFCURVE",
"519 297 CURVE SMOOTH",
"519 284 OFFCURVE",
"514 270 OFFCURVE",
"507 268 CURVE",
"507 285 OFFCURVE",
"509 300 OFFCURVE",
"513 314 CURVE"
);
},
{
closed = 1;
nodes = (
"445 98 LINE",
"444 94 OFFCURVE",
"436 79 OFFCURVE",
"426 79 CURVE",
"432 74 OFFCURVE",
"437 69 OFFCURVE",
"437 64 CURVE SMOOTH",
"437 57 OFFCURVE",
"393 49 OFFCURVE",
"350 26 CURVE",
"370 20 OFFCURVE",
"380 19 OFFCURVE",
"393 5 CURVE",
"392 -1 OFFCURVE",
"390 1 OFFCURVE",
"387 -1 CURVE",
"364 10 OFFCURVE",
"358 12 OFFCURVE",
"336 13 CURVE SMOOTH",
"311 14 OFFCURVE",
"290 -1 OFFCURVE",
"272 -19 CURVE",
"269 -18 OFFCURVE",
"265 -17 OFFCURVE",
"263 -13 CURVE",
"273 3 OFFCURVE",
"287 11 OFFCURVE",
"300 17 CURVE",
"275 19 OFFCURVE",
"260 13 OFFCURVE",
"242 4 CURVE",
"239 6 OFFCURVE",
"238 6 OFFCURVE",
"238 11 CURVE",
"268 33 OFFCURVE",
"300 29 OFFCURVE",
"321 29 CURVE",
"351 44 OFFCURVE",
"386 57 OFFCURVE",
"416 67 CURVE",
"404 79 LINE",
"390 79 OFFCURVE",
"386 97 OFFCURVE",
"386 103 CURVE",
"253 122 OFFCURVE",
"182 190 OFFCURVE",
"174 311 CURVE SMOOTH",
"169 387 OFFCURVE",
"165 441 OFFCURVE",
"121 467 CURVE",
"36 483 LINE",
"36 483 OFFCURVE",
"30 483 OFFCURVE",
"33 488 CURVE",
"95 517 LINE",
"95 566 OFFCURVE",
"138 619 OFFCURVE",
"203 619 CURVE SMOOTH",
"260 619 OFFCURVE",
"299 591 OFFCURVE",
"339 521 CURVE",
"368 479 OFFCURVE",
"567 471 OFFCURVE",
"794 426 CURVE",
"836 428 OFFCURVE",
"1114 458 OFFCURVE",
"1121 458 CURVE",
"1131 460 OFFCURVE",
"1136 444 OFFCURVE",
"1127 436 CURVE SMOOTH",
"1066 380 OFFCURVE",
"912 388 OFFCURVE",
"870 345 CURVE SMOOTH",
"808 281 OFFCURVE",
"719 163 OFFCURVE",
"586 117 CURVE",
"587 109 OFFCURVE",
"588 94 OFFCURVE",
"579 85 CURVE",
"587 79 OFFCURVE",
"592 77 OFFCURVE",
"592 71 CURVE SMOOTH",
"592 60 OFFCURVE",
"551 43 OFFCURVE",
"517 14 CURVE",
"538 13 OFFCURVE",
"558 12 OFFCURVE",
"574 2 CURVE",
"574 -1 OFFCURVE",
"574 -2 OFFCURVE",
"571 -6 CURVE",
"546 0 OFFCURVE",
"524 2 OFFCURVE",
"501 -1 CURVE",
"477 -6 OFFCURVE",
"461 -27 OFFCURVE",
"448 -48 CURVE",
"443 -49 OFFCURVE",
"441 -48 OFFCURVE",
"440 -44 CURVE",
"445 -26 OFFCURVE",
"454 -13 OFFCURVE",
"467 -5 CURVE",
"441 -9 OFFCURVE",
"434 -14 OFFCURVE",
"418 -28 CURVE",
"415 -26 OFFCURVE",
"413 -26 OFFCURVE",
"413 -21 CURVE",
"436 10 OFFCURVE",
"464 7 OFFCURVE",
"485 12 CURVE",
"513 34 OFFCURVE",
"543 52 OFFCURVE",
"569 69 CURVE",
"567 72 OFFCURVE",
"561 75 OFFCURVE",
"554 79 CURVE",
"538 77 OFFCURVE",
"529 94 OFFCURVE",
"527 102 CURVE",
"509 99 OFFCURVE",
"491 98 OFFCURVE",
"472 98 CURVE SMOOTH"
);
}
);
};
layerId = UUID0;
paths = (
{
closed = 1;
nodes = (
"662 158 LINE",
"667 159 OFFCURVE",
"690 187 OFFCURVE",
"689 192 CURVE",
"673 207 OFFCURVE",
"638 235 OFFCURVE",
"599 270 CURVE",
"631 313 OFFCURVE",
"659 348 OFFCURVE",
"672 367 CURVE",
"664 374 OFFCURVE",
"648 387 OFFCURVE",
"635 393 CURVE",
"561 300 LINE",
"521 332 OFFCURVE",
"483 360 OFFCURVE",
"464 373 CURVE",
"457 365 OFFCURVE",
"444 350 OFFCURVE",
"438 334 CURVE",
"529 262 LINE",
"457 169 LINE",
"458 163 OFFCURVE",
"486 141 OFFCURVE",
"491 142 CURVE",
"569 230 LINE"
);
},
{
closed = 1;
nodes = (
"881 471 LINE",
"880 472 LINE",
"879 373 OFFCURVE",
"849 216 OFFCURVE",
"639 73 CURVE",
"639 66 OFFCURVE",
"636 49 OFFCURVE",
"621 49 CURVE",
"609 37 LINE",
"640 26 OFFCURVE",
"673 14 OFFCURVE",
"704 -1 CURVE",
"725 -1 OFFCURVE",
"756 4 OFFCURVE",
"787 -19 CURVE",
"787 -24 OFFCURVE",
"786 -23 OFFCURVE",
"783 -26 CURVE",
"764 -17 OFFCURVE",
"750 -10 OFFCURVE",
"725 -13 CURVE",
"738 -20 OFFCURVE",
"751 -27 OFFCURVE",
"762 -43 CURVE",
"761 -46 OFFCURVE",
"758 -48 OFFCURVE",
"753 -49 CURVE",
"734 -30 OFFCURVE",
"714 -16 OFFCURVE",
"689 -17 CURVE SMOOTH",
"667 -17 OFFCURVE",
"661 -21 OFFCURVE",
"638 -31 CURVE",
"635 -28 OFFCURVE",
"633 -32 OFFCURVE",
"632 -25 CURVE",
"645 -10 OFFCURVE",
"655 -11 OFFCURVE",
"675 -4 CURVE",
"632 20 OFFCURVE",
"588 26 OFFCURVE",
"588 34 CURVE SMOOTH",
"588 38 OFFCURVE",
"592 43 OFFCURVE",
"599 49 CURVE",
"588 49 OFFCURVE",
"581 64 OFFCURVE",
"580 68 CURVE",
"553 68 LINE SMOOTH",
"534 68 OFFCURVE",
"517 69 OFFCURVE",
"498 72 CURVE",
"495 64 OFFCURVE",
"487 46 OFFCURVE",
"471 49 CURVE",
"464 45 OFFCURVE",
"459 42 OFFCURVE",
"456 39 CURVE",
"483 22 OFFCURVE",
"512 5 OFFCURVE",
"540 -18 CURVE",
"562 -23 OFFCURVE",
"589 -20 OFFCURVE",
"612 -51 CURVE",
"612 -56 OFFCURVE",
"610 -55 OFFCURVE",
"607 -58 CURVE",
"591 -43 OFFCURVE",
"585 -39 OFFCURVE",
"558 -35 CURVE",
"571 -43 OFFCURVE",
"580 -56 OFFCURVE",
"585 -74 CURVE",
"584 -77 OFFCURVE",
"582 -79 OFFCURVE",
"577 -78 CURVE",
"564 -57 OFFCURVE",
"548 -36 OFFCURVE",
"524 -31 CURVE",
"503 -28 OFFCURVE",
"479 -30 OFFCURVE",
"454 -36 CURVE",
"452 -33 OFFCURVE",
"451 -31 OFFCURVE",
"451 -28 CURVE",
"467 -17 OFFCURVE",
"487 -17 OFFCURVE",
"508 -16 CURVE",
"474 12 OFFCURVE",
"433 30 OFFCURVE",
"433 41 CURVE SMOOTH",
"433 48 OFFCURVE",
"438 48 OFFCURVE",
"446 55 CURVE",
"437 64 OFFCURVE",
"438 79 OFFCURVE",
"439 87 CURVE",
"322 151 OFFCURVE",
"262 254 OFFCURVE",
"225 315 CURVE",
"154 339 OFFCURVE",
"82 361 OFFCURVE",
"39 396 CURVE SMOOTH",
"30 404 OFFCURVE",
"32 418 OFFCURVE",
"45 418 CURVE",
"301 396 LINE",
"529 442 OFFCURVE",
"609 448 OFFCURVE",
"638 491 CURVE",
"678 562 OFFCURVE",
"717 589 OFFCURVE",
"774 589 CURVE SMOOTH",
"792 589 OFFCURVE",
"808 586 OFFCURVE",
"821 582 CURVE",
"821 583 LINE",
"895 609 LINE",
"896 609 OFFCURVE",
"898 609 OFFCURVE",
"898 607 CURVE",
"898 606 LINE",
"873 537 LINE",
"943 540 LINE SMOOTH",
"945 540 OFFCURVE",
"946 539 OFFCURVE",
"945 537 CURVE SMOOTH"
);
}
);
width = 965;
}
);
},
{
glyphname = cent;
layers = (
{
hints = (
{
place = "{304, 36}";
},
{
place = "{119, 94}";
},
{
place = "{390, 86}";
},
{
horizontal = 1;
place = "{444, -35}";
},
{
horizontal = 1;
place = "{516, -22}";
},
{
horizontal = 1;
place = "{-9, 53}";
},
{
horizontal = 1;
place = "{-53, -24}";
}
);
layerId = UUID0;
paths = (
{
closed = 1;
nodes = (
"423 97 OFFCURVE",
"385 45 OFFCURVE",
"300 45 CURVE",
"300 412 LINE",
"350 411 OFFCURVE",
"374 387 OFFCURVE",
"377 377 CURVE",
"358 372 OFFCURVE",
"345 358 OFFCURVE",
"345 329 CURVE SMOOTH",
"345 303 OFFCURVE",
"361 279 OFFCURVE",
"398 279 CURVE SMOOTH",
"431 279 OFFCURVE",
"457 304 OFFCURVE",
"457 339 CURVE SMOOTH",
"457 399 OFFCURVE",
"391 443 OFFCURVE",
"300 444 CURVE",
"300 513 LINE",
"262 513 LINE",
"262 441 LINE",
"153 425 OFFCURVE",
"75 337 OFFCURVE",
"75 207 CURVE SMOOTH",
"75 57 OFFCURVE",
"170 -7 OFFCURVE",
"262 -13 CURVE",
"262 -80 LINE",
"300 -80 LINE",
"300 -13 LINE",
"367 -6 OFFCURVE",
"434 33 OFFCURVE",
"465 116 CURVE",
"461 121 OFFCURVE",
"455 125 OFFCURVE",
"446 127 CURVE"
);
},
{
closed = 1;
nodes = (
"262 52 LINE",
"199 72 OFFCURVE",
"174 135 OFFCURVE",
"174 207 CURVE SMOOTH",
"174 345 OFFCURVE",
"218 393 OFFCURVE",
"262 407 CURVE"
);
}
);
width = 520;
}
);
unicode = 00A2;
},
{
glyphname = currency;
layers = (
{
hints = (
{
place = "{28, 48}";
},
{
place = "{465, 48}";
},
{
horizontal = 1;
place = "{86, 48}";
},
{
horizontal = 1;
place = "{523, 48}";
}
);
layerId = UUID0;
paths = (
{
closed = 1;
nodes = (
"455 575 LINE",
"384 504 LINE",
"345 535 OFFCURVE",
"296 545 OFFCURVE",
"260 545 CURVE SMOOTH",
"214 545 OFFCURVE",
"171 530 OFFCURVE",
"134 503 CURVE",
"64 575 LINE",
"24 536 LINE",
"96 464 LINE",
"65 424 OFFCURVE",
"53 376 OFFCURVE",
"53 340 CURVE SMOOTH",
"53 296 OFFCURVE",
"71 251 OFFCURVE",
"96 215 CURVE",
"24 143 LINE",
"64 104 LINE",
"134 176 LINE",
"170 151 OFFCURVE",
"215 133 OFFCURVE",
"260 133 CURVE SMOOTH",
"296 133 OFFCURVE",
"345 144 OFFCURVE",
"384 176 CURVE",
"455 104 LINE",
"496 143 LINE",
"423 215 LINE",
"457 257 OFFCURVE",
"466 304 OFFCURVE",
"466 340 CURVE SMOOTH",
"466 377 OFFCURVE",
"459 424 OFFCURVE",
"424 465 CURVE",
"496 536 LINE"
);
},
{
closed = 1;
nodes = (
"109 424 OFFCURVE",
"176 491 OFFCURVE",
"260 491 CURVE SMOOTH",
"344 491 OFFCURVE",
"411 424 OFFCURVE",
"411 340 CURVE SMOOTH",
"411 256 OFFCURVE",
"344 188 OFFCURVE",
"260 188 CURVE SMOOTH",
"176 188 OFFCURVE",
"109 256 OFFCURVE",
"109 340 CURVE SMOOTH"
);
}
);
width = 520;
}
);
unicode = 00A4;
},
{
glyphname = dollar;
layers = (
{
hints = (
{
place = "{244, 37}";
},
{
place = "{67, 68}";
},
{
place = "{416, 72}";
},
{
place = "{47, 34}";
},
{
place = "{418, 33}";
},
{
horizontal = 1;
place = "{707, -38}";
},
{
horizontal = 1;
place = "{776, -20}";
target = down;
type = TopGhost;
},
{
horizontal = 1;
place = "{-8, 40}";
},
{
horizontal = 1;
place = "{-65, 21}";
target = up;
type = BottomGhost;
}
);
layerId = UUID0;
paths = (
{
closed = 1;
nodes = (
"437 522 OFFCURVE",
"440 521 OFFCURVE",
"444 521 CURVE SMOOTH",
"448 521 OFFCURVE",
"450 522 OFFCURVE",
"453 523 CURVE",
"447 550 OFFCURVE",
"444 585 OFFCURVE",
"444 621 CURVE SMOOTH",
"444 644 OFFCURVE",
"445 667 OFFCURVE",
"448 689 CURVE",
"412 705 OFFCURVE",
"353 730 OFFCURVE",
"283 733 CURVE",
"283 796 LINE",
"243 796 LINE",
"243 733 LINE",
"156 726 OFFCURVE",
"54 678 OFFCURVE",
"54 533 CURVE SMOOTH",
"54 413 OFFCURVE",
"131 362 OFFCURVE",
"243 329 CURVE",
"243 16 LINE",
"166 18 OFFCURVE",
"80 62 OFFCURVE",
"55 233 CURVE",
"51 235 OFFCURVE",
"48 236 OFFCURVE",
"44 236 CURVE SMOOTH",
"41 236 OFFCURVE",
"38 235 OFFCURVE",
"34 233 CURVE",
"41 185 OFFCURVE",
"44 148 OFFCURVE",
"44 108 CURVE SMOOTH",
"44 86 OFFCURVE",
"43 61 OFFCURVE",
"42 36 CURVE",
"88 12 OFFCURVE",
"162 -18 OFFCURVE",
"243 -20 CURVE",
"243 -85 LINE",
"283 -85 LINE",
"283 -17 LINE",
"379 -4 OFFCURVE",
"488 66 OFFCURVE",
"488 205 CURVE SMOOTH",
"488 342 OFFCURVE",
"380 390 OFFCURVE",
"283 417 CURVE",
"283 698 LINE",
"357 690 OFFCURVE",
"411 634 OFFCURVE",
"433 523 CURVE"
);
},
{
closed = 1;
nodes = (
"392 88 OFFCURVE",
"354 32 OFFCURVE",
"283 19 CURVE",
"283 317 LINE",
"370 287 OFFCURVE",
"392 240 OFFCURVE",
"392 161 CURVE SMOOTH"
);
},
{
closed = 1;
nodes = (
"136 644 OFFCURVE",
"174 689 OFFCURVE",
"243 697 CURVE",
"243 428 LINE",
"139 462 OFFCURVE",
"136 512 OFFCURVE",
"136 581 CURVE SMOOTH"
);
}
);
width = 520;
}
);
unicode = 0024;
},
{
glyphname = euro;
layers = (
{
hints = (
{
place = "{437, 25}";
},
{
place = "{36, 99}";
},
{
horizontal = 1;
place = "{-8, 39}";
},
{
horizontal = 1;
place = "{294, 39}";
},
{
horizontal = 1;
place = "{393, 39}";
},
{
horizontal = 1;
place = "{669, 39}";
}
);
layerId = UUID0;
paths = (
{
closed = 1;
nodes = (
"-30 376 LINE",
"38 376 LINE",
"38 352 LINE SMOOTH",
"38 340 OFFCURVE",
"38 329 OFFCURVE",
"39 318 CURVE",
"19 318 OFFCURVE",
"0 319 OFFCURVE",
"-18 320 CURVE",
"-30 280 LINE",
"41 280 LINE",
"64 48 OFFCURVE",
"197 -20 OFFCURVE",
"297 -20 CURVE SMOOTH",
"356 -20 OFFCURVE",
"447 20 OFFCURVE",
"490 114 CURVE",
"490 122 OFFCURVE",
"476 126 OFFCURVE",
"469 126 CURVE",
"435 66 OFFCURVE",
"386 40 OFFCURVE",
"327 40 CURVE SMOOTH",
"210 40 OFFCURVE",
"157 143 OFFCURVE",
"142 281 CURVE",
"170 281 LINE SMOOTH",
"234 281 OFFCURVE",
"273 281 OFFCURVE",
"337 279 CURVE",
"349 320 LINE",
"285 317 OFFCURVE",
"246 317 OFFCURVE",
"182 317 CURVE SMOOTH",
"140 317 LINE",
"139 328 OFFCURVE",
"139 340 OFFCURVE",
"139 352 CURVE SMOOTH",
"139 377 LINE",
"185 377 LINE SMOOTH",
"249 377 OFFCURVE",
"304 377 OFFCURVE",
"368 375 CURVE",
"380 416 LINE",
"316 413 OFFCURVE",
"261 413 OFFCURVE",
"197 413 CURVE SMOOTH",
"141 413 LINE",
"153 550 OFFCURVE",
"207 699 OFFCURVE",
"315 699 CURVE SMOOTH",
"407 699 OFFCURVE",
"427 644 OFFCURVE",
"460 527 CURVE",
"465 527 OFFCURVE",
"477 528 OFFCURVE",
"485 532 CURVE",
"480 563 OFFCURVE",
"478 593 OFFCURVE",
"478 619 CURVE SMOOTH",
"478 659 OFFCURVE",
"482 690 OFFCURVE",
"486 708 CURVE",
"429 719 OFFCURVE",
"399 734 OFFCURVE",
"315 734 CURVE SMOOTH",
"218 734 OFFCURVE",
"63 658 OFFCURVE",
"41 414 CURVE",
"20 414 OFFCURVE",
"0 415 OFFCURVE",
"-18 416 CURVE"
);
}
);
width = 520;
}
);
unicode = 20AC;
},
{
glyphname = sterling;
layers = (
{
hints = (
{
place = "{-65, 44}";
},
{
place = "{64, 80}";
},
{
place = "{121, 83}";
},
{
place = "{289, 111}";
},
{
place = "{358, 111}";
},
{
horizontal = 1;
place = "{400, 44}";
},
{
horizontal = 1;
place = "{141, 47}";
},
{
horizontal = 1;
place = "{-9, 51}";
},
{
horizontal = 1;
place = "{756, 44}";
}
);
layerId = UUID0;
paths = (
{
closed = 1;
nodes = (
"170 409 LINE",
"170 559 OFFCURVE",
"182 699 OFFCURVE",
"316 699 CURVE SMOOTH",
"414 699 OFFCURVE",
"433 637 OFFCURVE",
"467 534 CURVE",
"472 535 OFFCURVE",
"487 534 OFFCURVE",
"488 540 CURVE",
"478 583 OFFCURVE",
"475 618 OFFCURVE",
"475 646 CURVE SMOOTH",
"475 672 OFFCURVE",
"478 693 OFFCURVE",
"481 707 CURVE",
"419 717 OFFCURVE",
"406 734 OFFCURVE",
"316 734 CURVE SMOOTH",
"211 734 OFFCURVE",
"74 700 OFFCURVE",
"74 409 CURVE SMOOTH",
"74 378 LINE",
"41 378 OFFCURVE",
"8 379 OFFCURVE",
"-25 381 CURVE",
"-25 340 LINE",
"8 341 OFFCURVE",
"41 342 OFFCURVE",
"74 342 CURVE",
"74 251 OFFCURVE",
"72 143 OFFCURVE",
"69 67 CURVE SMOOTH",
"68 31 OFFCURVE",
"7 24 OFFCURVE",
"-29 20 CURVE",
"-30 15 OFFCURVE",
"-31 11 OFFCURVE",
"-31 7 CURVE SMOOTH",
"-31 4 OFFCURVE",
"-30 0 OFFCURVE",
"-29 -3 CURVE",
"26 -1 OFFCURVE",
"116 0 OFFCURVE",
"174 0 CURVE SMOOTH",
"470 0 LINE",
"478 73 OFFCURVE",
"494 126 OFFCURVE",
"520 182 CURVE",
"517 188 OFFCURVE",
"511 187 OFFCURVE",
"504 190 CURVE",
"466 108 OFFCURVE",
"422 43 OFFCURVE",
"277 30 CURVE",
"174 30 LINE",
"171 158 OFFCURVE",
"170 249 OFFCURVE",
"170 339 CURVE SMOOTH",
"170 342 LINE",
"233 342 OFFCURVE",
"285 342 OFFCURVE",
"349 340 CURVE",
"349 381 LINE",
"285 378 OFFCURVE",
"233 378 OFFCURVE",
"170 378 CURVE"
);
}
);
width = 520;
}
);
unicode = 00A3;
},
{
glyphname = yen;
layers = (
{
hints = (
{
place = "{190, 86}";
},
{
horizontal = 1;
place = "{700, -34}";
},
{
horizontal = 1;
place = "{373, 39}";
},
{
horizontal = 1;
place = "{264, 39}";
},
{
horizontal = 1;
place = "{0, 34}";
}
);
layerId = UUID0;
paths = (
{
closed = 1;
nodes = (
"173 638 LINE",
"168 651 OFFCURVE",
"168 653 OFFCURVE",
"168 659 CURVE SMOOTH",
"168 684 OFFCURVE",
"194 692 OFFCURVE",
"261 695 CURVE",
"262 698 OFFCURVE",
"263 703 OFFCURVE",
"263 707 CURVE SMOOTH",
"263 711 OFFCURVE",
"262 714 OFFCURVE",
"261 718 CURVE",
"209 715 OFFCURVE",
"171 714 OFFCURVE",
"118 714 CURVE SMOOTH",
"63 714 OFFCURVE",
"23 716 OFFCURVE",
"-29 718 CURVE",
"-30 715 OFFCURVE",
"-31 711 OFFCURVE",
"-31 707 CURVE SMOOTH",
"-31 703 OFFCURVE",
"-30 699 OFFCURVE",
"-29 695 CURVE",
"10 691 OFFCURVE",
"35 683 OFFCURVE",
"61 648 CURVE",
"195 350 LINE",
"152 350 OFFCURVE",
"109 351 OFFCURVE",
"67 353 CURVE",
"67 312 LINE",
"115 313 OFFCURVE",
"163 314 OFFCURVE",
"211 314 CURVE",
"211 254 LINE",
"163 254 OFFCURVE",
"115 255 OFFCURVE",
"67 257 CURVE",
"67 216 LINE",
"115 217 OFFCURVE",
"162 218 OFFCURVE",
"210 218 CURVE",
"209 168 OFFCURVE",
"208 119 OFFCURVE",
"206 67 CURVE",
"205 31 OFFCURVE",
"139 24 OFFCURVE",
"99 20 CURVE",
"97 15 OFFCURVE",
"97 11 OFFCURVE",
"97 7 CURVE SMOOTH",
"97 4 OFFCURVE",
"98 0 OFFCURVE",
"99 -3 CURVE",
"151 -1 OFFCURVE",
"203 0 OFFCURVE",
"258 0 CURVE SMOOTH",
"311 0 OFFCURVE",
"366 -1 OFFCURVE",
"418 -3 CURVE",
"419 0 OFFCURVE",
"420 4 OFFCURVE",
"420 7 CURVE SMOOTH",
"420 11 OFFCURVE",
"420 14 OFFCURVE",
"418 20 CURVE",
"378 24 OFFCURVE",
"312 31 OFFCURVE",
"311 67 CURVE",
"309 119 OFFCURVE",
"308 168 OFFCURVE",
"307 218 CURVE",
"355 218 OFFCURVE",
"403 217 OFFCURVE",
"451 216 CURVE",
"451 257 LINE",
"403 255 OFFCURVE",
"355 254 OFFCURVE",
"307 254 CURVE",
"307 314 LINE",
"355 314 OFFCURVE",
"403 313 OFFCURVE",
"451 312 CURVE",
"451 353 LINE",
"409 351 OFFCURVE",
"367 350 OFFCURVE",
"325 350 CURVE",
"468 641 LINE SMOOTH",
"483 671 OFFCURVE",
"510 691 OFFCURVE",
"549 695 CURVE",
"551 700 OFFCURVE",
"551 704 OFFCURVE",
"551 708 CURVE SMOOTH",
"551 711 OFFCURVE",
"550 715 OFFCURVE",
"549 718 CURVE",
"514 716 OFFCURVE",
"483 715 OFFCURVE",
"459 715 CURVE SMOOTH",
"433 715 OFFCURVE",
"397 716 OFFCURVE",
"357 718 CURVE",
"356 715 OFFCURVE",
"355 711 OFFCURVE",
"355 708 CURVE SMOOTH",
"355 704 OFFCURVE",
"356 700 OFFCURVE",
"357 695 CURVE",
"399 690 OFFCURVE",
"425 683 OFFCURVE",
"425 661 CURVE SMOOTH",
"425 655 OFFCURVE",
"422 646 OFFCURVE",
"419 641 CURVE SMOOTH",
"294 368 LINE",
"288 368 LINE"
);
}
);
width = 520;
}
);
unicode = 00A5;
},
{
glyphname = plus;
layers = (
{
hints = (
{
place = "{329, 57}";
},
{
horizontal = 1;
place = "{329, 56}";
}
);
layerId = UUID0;
paths = (
{
closed = 1;
nodes = (
"386 70 LINE",
"386 319 LINE",
"635 319 LINE",
"635 375 LINE",
"386 375 LINE",
"386 625 LINE",
"329 625 LINE",
"329 375 LINE",
"80 375 LINE",
"80 319 LINE",
"329 319 LINE",
"329 70 LINE"
);
}
);
width = 715;
}
);
unicode = 002B;
},
{
glyphname = minus;
layers = (
{
hints = (
{
place = "{329, 57}";
},
{
horizontal = 1;
place = "{329, 56}";
}
);
layerId = UUID0;
paths = (
{
closed = 1;
nodes = (
"635 319 LINE",
"635 375 LINE",
"80 375 LINE",
"80 319 LINE"
);
}
);
width = 715;
}
);
unicode = 2212;
},
{
glyphname = multiply;
layers = (
{
hints = (
{
place = "{329, 57}";
},
{
horizontal = 1;
place = "{329, 56}";
}
);
layerId = UUID0;
paths = (
{
closed = 1;
nodes = (
"181 131 LINE",
"357 307 LINE",
"534 131 LINE",
"573 171 LINE",
"397 347 LINE",
"574 524 LINE",
"534 564 LINE",
"357 387 LINE",
"181 563 LINE",
"141 524 LINE",
"317 347 LINE",
"141 171 LINE"
);
}
);
width = 715;
}
);
unicode = 00D7;
},
{
glyphname = divide;
layers = (
{
hints = (
{
place = "{296, 131}";
},
{
horizontal = 1;
place = "{150, 131}";
},
{
horizontal = 1;
place = "{349, 48}";
},
{
horizontal = 1;
place = "{464, 132}";
}
);
layerId = UUID0;
paths = (
{
closed = 1;
nodes = (
"296 473 OFFCURVE",
"325 443 OFFCURVE",
"361 443 CURVE SMOOTH",
"398 443 OFFCURVE",
"427 473 OFFCURVE",
"427 509 CURVE SMOOTH",
"427 545 OFFCURVE",
"398 575 OFFCURVE",
"361 575 CURVE SMOOTH",
"325 575 OFFCURVE",
"296 545 OFFCURVE",
"296 509 CURVE SMOOTH"
);
},
{
closed = 1;
nodes = (
"296 150 OFFCURVE",
"325 120 OFFCURVE",
"361 120 CURVE SMOOTH",
"398 120 OFFCURVE",
"427 150 OFFCURVE",
"427 186 CURVE SMOOTH",
"427 222 OFFCURVE",
"398 251 OFFCURVE",
"361 251 CURVE SMOOTH",
"325 251 OFFCURVE",
"296 222 OFFCURVE",
"296 186 CURVE SMOOTH"
);
},
{
closed = 1;
nodes = (
"635 319 LINE",
"635 375 LINE",
"80 375 LINE",
"80 319 LINE"
);
}
);
width = 715;
}
);
unicode = 00F7;
},
{
glyphname = equal;
layers = (
{
hints = (
{
horizontal = 1;
place = "{244, 48}";
},
{
horizontal = 1;
place = "{425, 47}";
}
);
layerId = UUID0;
paths = (
{
closed = 1;
nodes = (
"635 229 LINE",
"635 285 LINE",
"80 285 LINE",
"80 229 LINE"
);
},
{
closed = 1;
nodes = (
"635 409 LINE",
"635 465 LINE",
"80 465 LINE",
"80 409 LINE"
);
}
);
width = 715;
}
);
unicode = 003D;
},
{
glyphname = greater;
layers = (
{
hints = (
{
place = "{80, 663}";
},
{
horizontal = 1;
place = "{644, -551}";
}
);
layerId = UUID0;
paths = (
{
closed = 1;
nodes = (
"80 150 LINE",
"104 97 LINE",
"683 348 LINE",
"104 599 LINE",
"80 546 LINE",
"542 349 LINE"
);
}
);
width = 763;
}
);
unicode = 003E;
},
{
glyphname = less;
layers = (
{
hints = (
{
place = "{80, 663}";
},
{
horizontal = 1;
place = "{644, -551}";
}
);
layerId = UUID0;
paths = (
{
closed = 1;
nodes = (
"221 349 LINE",
"683 546 LINE",
"659 599 LINE",
"80 348 LINE",
"659 97 LINE",
"683 150 LINE"
);
}
);
width = 763;
}
);
unicode = 003C;
},
{
glyphname = plusminus;
layers = (
{
hints = (
{
place = "{338, 47}";
},
{
horizontal = 1;
place = "{59, 48}";
},
{
horizontal = 1;
place = "{344, 47}";
}
);
layerId = UUID0;
paths = (
{
closed = 1;
nodes = (
"386 160 LINE",
"386 359 LINE",
"635 359 LINE",
"635 415 LINE",
"386 415 LINE",
"386 615 LINE",
"329 615 LINE",
"329 415 LINE",
"80 415 LINE",
"80 359 LINE",
"329 359 LINE",
"329 160 LINE"
);
},
{
closed = 1;
nodes = (
"635 59 LINE",
"635 115 LINE",
"80 115 LINE",
"80 59 LINE"
);
}
);
width = 715;
}
);
unicode = 00B1;
},
{
glyphname = asciitilde;
layers = (
{
hints = (
{
place = "{79, 51}";
},
{
place = "{688, 52}";
},
{
horizontal = 1;
place = "{286, 163}";
}
);
layerId = UUID0;
paths = (
{
closed = 1;
nodes = (
"119 196 LINE",
"140 239 OFFCURVE",
"164 265 OFFCURVE",
"209 265 CURVE SMOOTH",
"247 265 OFFCURVE",
"284 242 OFFCURVE",
"323 225 CURVE SMOOTH",
"357 209 OFFCURVE",
"390 196 OFFCURVE",
"425 196 CURVE SMOOTH",
"501 196 OFFCURVE",
"572 257 OFFCURVE",
"593 355 CURVE",
"553 355 LINE",
"536 293 OFFCURVE",
"501 277 OFFCURVE",
"466 277 CURVE SMOOTH",
"437 277 OFFCURVE",
"408 290 OFFCURVE",
"390 299 CURVE SMOOTH",
"319 336 OFFCURVE",
"278 343 OFFCURVE",
"250 343 CURVE SMOOTH",
"146 343 OFFCURVE",
"97 241 OFFCURVE",
"80 196 CURVE"
);
}
);
width = 673;
}
);
unicode = 007E;
},
{
glyphname = logicalnot;
layers = (
{
hints = (
{
place = "{647, 56}";
},
{
horizontal = 1;
place = "{182, 55}";
},
{
horizontal = 1;
place = "{88, -24}";
}
);
layerId = UUID0;
paths = (
{
closed = 1;
nodes = (
"80 202 LINE",
"647 202 LINE",
"647 84 LINE",
"703 84 LINE",
"703 257 LINE",
"80 257 LINE"
);
}
);
width = 783;
}
);
unicode = 00AC;
},
{
glyphname = micro;
layers = (
{
hints = (
{
place = "{106, 83}";
},
{
place = "{373, 82}";
},
{
horizontal = 1;
place = "{-9, 66}";
},
{
horizontal = 1;
place = "{435, -23}";
},
{
horizontal = 1;
place = "{-195, -24}";
}
);
layerId = UUID0;
paths = (
{
closed = 1;
nodes = (
"572 31 OFFCURVE",
"573 35 OFFCURVE",
"573 38 CURVE SMOOTH",
"573 42 OFFCURVE",
"572 46 OFFCURVE",
"571 51 CURVE",
"529 53 OFFCURVE",
"497 59 OFFCURVE",
"477 71 CURVE",
"477 148 OFFCURVE",
"475 193 OFFCURVE",
"475 246 CURVE SMOOTH",
"475 282 OFFCURVE",
"477 375 OFFCURVE",
"482 418 CURVE",
"479 425 OFFCURVE",
"479 428 OFFCURVE",
"470 433 CURVE",
"430 431 OFFCURVE",
"411 429 OFFCURVE",
"394 429 CURVE SMOOTH",
"374 429 OFFCURVE",
"356 431 OFFCURVE",
"312 433 CURVE",
"311 429 OFFCURVE",
"310 426 OFFCURVE",
"310 422 CURVE SMOOTH",
"310 418 OFFCURVE",
"311 414 OFFCURVE",
"312 410 CURVE",
"338 406 OFFCURVE",
"384 399 OFFCURVE",
"385 363 CURVE",
"388 277 OFFCURVE",
"389 221 OFFCURVE",
"389 104 CURVE",
"352 71 OFFCURVE",
"315 47 OFFCURVE",
"277 47 CURVE SMOOTH",
"242 47 OFFCURVE",
"196 86 OFFCURVE",
"196 155 CURVE SMOOTH",
"197 397 OFFCURVE",
"200 405 OFFCURVE",
"201 418 CURVE",
"198 425 OFFCURVE",
"196 430 OFFCURVE",
"187 433 CURVE",
"147 431 OFFCURVE",
"128 429 OFFCURVE",
"111 429 CURVE SMOOTH",
"91 429 OFFCURVE",
"73 431 OFFCURVE",
"29 433 CURVE",
"28 429 OFFCURVE",
"27 426 OFFCURVE",
"27 422 CURVE SMOOTH",
"27 418 OFFCURVE",
"28 414 OFFCURVE",
"29 410 CURVE",
"55 406 OFFCURVE",
"102 399 OFFCURVE",
"102 363 CURVE",
"103 363 LINE",
"108 116 LINE",
"106 -55 OFFCURVE",
"71 -119 OFFCURVE",
"71 -200 CURVE SMOOTH",
"71 -255 OFFCURVE",
"102 -276 OFFCURVE",
"129 -276 CURVE SMOOTH",
"151 -276 OFFCURVE",
"186 -261 OFFCURVE",
"186 -196 CURVE SMOOTH",
"186 -128 OFFCURVE",
"151 -73 OFFCURVE",
"147 58 CURVE",
"153 58 LINE",
"172 -1 OFFCURVE",
"207 -12 OFFCURVE",
"253 -12 CURVE SMOOTH",
"316 -12 OFFCURVE",
"350 19 OFFCURVE",
"389 67 CURVE",
"389 1 LINE",
"392 -5 OFFCURVE",
"398 -9 OFFCURVE",
"406 -12 CURVE",
"452 8 OFFCURVE",
"509 22 OFFCURVE",
"571 28 CURVE"
);
}
);
width = 608;
}
);
unicode = 00B5;
},
{
glyphname = percent;
layers = (
{
hints = (
{
place = "{74, 96}";
},
{
place = "{340, 96}";
},
{
place = "{537, 96}";
},
{
place = "{803, 96}";
},
{
horizontal = 1;
place = "{-9, 43}";
},
{
horizontal = 1;
place = "{356, 43}";
},
{
horizontal = 1;
place = "{391, 43}";
},
{
horizontal = 1;
place = "{756, 43}";
},
{
horizontal = 1;
place = "{800, -23}";
}
);
layerId = UUID0;
paths = (
{
closed = 1;
nodes = (
"269 -30 LINE",
"312 -48 LINE",
"682 745 LINE",
"639 761 LINE"
);
},
{
closed = 1;
nodes = (
"65 448 OFFCURVE",
"146 367 OFFCURVE",
"247 367 CURVE SMOOTH",
"348 367 OFFCURVE",
"431 448 OFFCURVE",
"431 549 CURVE SMOOTH",
"431 651 OFFCURVE",
"348 733 OFFCURVE",
"247 733 CURVE SMOOTH",
"146 733 OFFCURVE",
"65 651 OFFCURVE",
"65 549 CURVE SMOOTH"
);
},
{
closed = 1;
nodes = (
"115 623 OFFCURVE",
"175 683 OFFCURVE",
"246 683 CURVE SMOOTH",
"320 683 OFFCURVE",
"381 623 OFFCURVE",
"381 548 CURVE SMOOTH",
"381 476 OFFCURVE",
"320 415 OFFCURVE",
"246 415 CURVE SMOOTH",
"175 415 OFFCURVE",
"115 476 OFFCURVE",
"115 548 CURVE SMOOTH"
);
},
{
closed = 1;
nodes = (
"529 67 OFFCURVE",
"610 -14 OFFCURVE",
"711 -14 CURVE SMOOTH",
"812 -14 OFFCURVE",
"895 67 OFFCURVE",
"895 168 CURVE SMOOTH",
"895 270 OFFCURVE",
"812 352 OFFCURVE",
"711 352 CURVE SMOOTH",
"610 352 OFFCURVE",
"529 270 OFFCURVE",
"529 168 CURVE SMOOTH"
);
},
{
closed = 1;
nodes = (
"579 242 OFFCURVE",
"639 302 OFFCURVE",
"710 302 CURVE SMOOTH",
"784 302 OFFCURVE",
"845 242 OFFCURVE",
"845 167 CURVE SMOOTH",
"845 95 OFFCURVE",
"784 34 OFFCURVE",
"710 34 CURVE SMOOTH",
"639 34 OFFCURVE",
"579 95 OFFCURVE",
"579 167 CURVE SMOOTH"
);
}
);
width = 960;
}
);
unicode = 0025;
},
{
glyphname = at;
layers = (
{
hints = (
{
place = "{66, 61}";
},
{
place = "{289, 91}";
},
{
place = "{870, 59}";
},
{
horizontal = 1;
place = "{-119, 53}";
},
{
horizontal = 1;
place = "{88, 48}";
},
{
horizontal = 1;
place = "{112, 34}";
},
{
horizontal = 1;
place = "{519, 30}";
},
{
horizontal = 1;
place = "{721, 47}";
}
);
layerId = UUID0;
paths = (
{
closed = 1;
nodes = (
"722 474 LINE",
"696 473 LINE",
"633 427 LINE",
"597 480 OFFCURVE",
"544 491 OFFCURVE",
"523 491 CURVE SMOOTH",
"386 491 OFFCURVE",
"289 375 OFFCURVE",
"289 243 CURVE SMOOTH",
"289 129 OFFCURVE",
"361 73 OFFCURVE",
"433 73 CURVE SMOOTH",
"487 73 OFFCURVE",
"522 91 OFFCURVE",
"554 121 CURVE",
"576 73 OFFCURVE",
"625 60 OFFCURVE",
"665 60 CURVE SMOOTH",
"766 60 OFFCURVE",
"929 149 OFFCURVE",
"929 353 CURVE SMOOTH",
"929 559 OFFCURVE",
"764 733 OFFCURVE",
"522 733 CURVE SMOOTH",
"252 733 OFFCURVE",
"66 538 OFFCURVE",
"66 282 CURVE SMOOTH",
"66 59 OFFCURVE",
"239 -154 OFFCURVE",
"529 -154 CURVE SMOOTH",
"633 -154 OFFCURVE",
"697 -128 OFFCURVE",
"785 -63 CURVE",
"756 -14 LINE",
"695 -70 OFFCURVE",
"600 -101 OFFCURVE",
"524 -101 CURVE SMOOTH",
"285 -101 OFFCURVE",
"127 85 OFFCURVE",
"127 287 CURVE SMOOTH",
"127 472 OFFCURVE",
"256 686 OFFCURVE",
"522 686 CURVE SMOOTH",
"725 686 OFFCURVE",
"870 541 OFFCURVE",
"870 353 CURVE SMOOTH",
"870 169 OFFCURVE",
"733 108 OFFCURVE",
"675 108 CURVE SMOOTH",
"654 108 OFFCURVE",
"631 120 OFFCURVE",
"631 162 CURVE SMOOTH",
"631 185 OFFCURVE",
"644 225 OFFCURVE",
"647 238 CURVE SMOOTH"
);
},
{
closed = 1;
nodes = (
"547 161 LINE",
"535 145 OFFCURVE",
"506 106 OFFCURVE",
"451 106 CURVE SMOOTH",
"399 106 OFFCURVE",
"381 148 OFFCURVE",
"381 184 CURVE SMOOTH",
"381 211 OFFCURVE",
"384 259 OFFCURVE",
"391 292 CURVE SMOOTH",
"416 402 OFFCURVE",
"467 462 OFFCURVE",
"521 462 CURVE SMOOTH",
"563 462 OFFCURVE",
"599 427 OFFCURVE",
"608 376 CURVE"
);
}
);
width = 995;
}
);
unicode = 0040;
},
{
glyphname = ampersand;
layers = (
{
hints = (
{
horizontal = 1;
place = "{-4, 21}";
},
{
horizontal = 1;
place = "{0, -20}";
target = down;
type = TopGhost;
},
{
horizontal = 1;
place = "{665, -20}";
target = down;
type = TopGhost;
}
);
layerId = UUID0;
paths = (
{
closed = 1;
nodes = (
"558 418 OFFCURVE",
"573 409 OFFCURVE",
"573 392 CURVE SMOOTH",
"573 387 OFFCURVE",
"573 383 OFFCURVE",
"572 377 CURVE SMOOTH",
"567 317 OFFCURVE",
"533 244 OFFCURVE",
"494 184 CURVE",
"437 266 OFFCURVE",
"398 321 OFFCURVE",
"320 400 CURVE",
"391 440 OFFCURVE",
"439 485 OFFCURVE",
"439 561 CURVE SMOOTH",
"439 653 OFFCURVE",
"381 694 OFFCURVE",
"297 694 CURVE SMOOTH",
"206 694 OFFCURVE",
"134 630 OFFCURVE",
"134 548 CURVE SMOOTH",
"134 474 OFFCURVE",
"169 436 OFFCURVE",
"221 385 CURVE",
"86 321 OFFCURVE",
"60 219 OFFCURVE",
"60 165 CURVE SMOOTH",
"60 90 OFFCURVE",
"107 -15 OFFCURVE",
"249 -15 CURVE SMOOTH",
"296 -15 OFFCURVE",
"364 -5 OFFCURVE",
"458 83 CURVE",
"522 -15 OFFCURVE",
"572 -15 OFFCURVE",
"603 -15 CURVE SMOOTH",
"694 -15 OFFCURVE",
"720 48 OFFCURVE",
"734 105 CURVE",
"728 110 OFFCURVE",
"719 111 OFFCURVE",
"711 111 CURVE",
"696 73 OFFCURVE",
"677 47 OFFCURVE",
"639 47 CURVE SMOOTH",
"581 47 OFFCURVE",
"546 116 OFFCURVE",
"514 154 CURVE",
"586 258 OFFCURVE",
"593 295 OFFCURVE",
"645 377 CURVE SMOOTH",
"660 401 OFFCURVE",
"676 417 OFFCURVE",
"723 423 CURVE",
"724 428 OFFCURVE",
"725 432 OFFCURVE",
"725 436 CURVE SMOOTH",
"725 439 OFFCURVE",
"724 443 OFFCURVE",
"723 446 CURVE",
"675 444 OFFCURVE",
"637 443 OFFCURVE",
"604 443 CURVE SMOOTH",
"588 443 OFFCURVE",
"540 445 OFFCURVE",
"518 446 CURVE",
"517 443 OFFCURVE",
"516 438 OFFCURVE",
"516 434 CURVE SMOOTH",
"516 430 OFFCURVE",
"517 427 OFFCURVE",
"518 423 CURVE"
);
},
{
closed = 1;
nodes = (
"390 67 OFFCURVE",
"339 58 OFFCURVE",
"294 58 CURVE SMOOTH",
"217 58 OFFCURVE",
"155 101 OFFCURVE",
"155 189 CURVE SMOOTH",
"155 275 OFFCURVE",
"200 336 OFFCURVE",
"249 357 CURVE",
"336 266 OFFCURVE",
"380 210 OFFCURVE",
"437 117 CURVE"
);
},
{
closed = 1;
nodes = (
"256 455 OFFCURVE",
"219 497 OFFCURVE",
"219 549 CURVE SMOOTH",
"219 604 OFFCURVE",
"247 650 OFFCURVE",
"302 650 CURVE SMOOTH",
"343 650 OFFCURVE",
"383 624 OFFCURVE",
"383 559 CURVE SMOOTH",
"383 488 OFFCURVE",
"331 443 OFFCURVE",
"294 424 CURVE"
);
}
);
width = 754;
}
);
unicode = 0026;
},
{
glyphname = paragraph;
layers = (
{
hints = (
{
place = "{249, 68}";
},
{
place = "{448, 67}";
},
{
horizontal = 1;
place = "{741, 44}";
},
{
horizontal = 1;
place = "{-199, -24}";
}
);
layerId = UUID0;
paths = (
{
closed = 1;
nodes = (
"257 -223 LINE",
"322 -223 LINE",
"322 698 LINE",
"433 698 LINE",
"433 -223 LINE",
"497 -223 LINE",
"497 698 LINE",
"560 698 LINE",
"560 734 LINE",
"240 734 LINE SMOOTH",
"149 734 OFFCURVE",
"60 704 OFFCURVE",
"60 585 CURVE SMOOTH",
"60 450 OFFCURVE",
"188 434 OFFCURVE",
"257 434 CURVE"
);
}
);
width = 650;
}
);
unicode = 00B6;
},
{
glyphname = section;
layers = (
{
hints = (
{
place = "{122, 103}";
},
{
place = "{367, 108}";
},
{
origin = "{0, 21}";
target = "{1, 10}";
},
{
origin = "{0, 15}";
target = "{0, 62}";
},
{
origin = "{1, 3}";
target = "{0, 55}";
},
{
horizontal = 1;
origin = "{0, 65}";
target = "{0, 12}";
},
{
horizontal = 1;
origin = "{0, 46}";
target = "{0, 31}";
}
);
layerId = UUID0;
paths = (
{
closed = 1;
nodes = (
"396 654 LINE",
"378 646 OFFCURVE",
"367 626 OFFCURVE",
"367 605 CURVE SMOOTH",
"367 578 OFFCURVE",
"387 556 OFFCURVE",
"416 556 CURVE SMOOTH",
"458 556 OFFCURVE",
"475 580 OFFCURVE",
"475 613 CURVE SMOOTH",
"475 675 OFFCURVE",
"407 734 OFFCURVE",
"307 734 CURVE SMOOTH",
"203 734 OFFCURVE",
"142 671 OFFCURVE",
"142 588 CURVE SMOOTH",
"142 576 OFFCURVE",
"145 522 OFFCURVE",
"192 468 CURVE",
"117 424 OFFCURVE",
"80 378 OFFCURVE",
"80 309 CURVE SMOOTH",
"80 236 OFFCURVE",
"128 191 OFFCURVE",
"167 159 CURVE SMOOTH",
"305 44 LINE SMOOTH",
"352 4 OFFCURVE",
"388 -32 OFFCURVE",
"388 -82 CURVE SMOOTH",
"388 -147 OFFCURVE",
"324 -174 OFFCURVE",
"287 -174 CURVE SMOOTH",
"249 -174 OFFCURVE",
"219 -160 OFFCURVE",
"203 -129 CURVE",
"221 -121 OFFCURVE",
"232 -101 OFFCURVE",
"232 -80 CURVE SMOOTH",
"232 -53 OFFCURVE",
"212 -31 OFFCURVE",
"183 -31 CURVE SMOOTH",
"141 -31 OFFCURVE",
"124 -55 OFFCURVE",
"124 -88 CURVE SMOOTH",
"124 -150 OFFCURVE",
"187 -209 OFFCURVE",
"287 -209 CURVE SMOOTH",
"380 -209 OFFCURVE",
"455 -135 OFFCURVE",
"455 -50 CURVE SMOOTH",
"455 5 OFFCURVE",
"429 44 OFFCURVE",
"407 67 CURVE",
"454 94 OFFCURVE",
"522 151 OFFCURVE",
"522 233 CURVE SMOOTH",
"522 312 OFFCURVE",
"454 367 OFFCURVE",
"391 417 CURVE SMOOTH",
"276 509 LINE SMOOTH",
"235 541 OFFCURVE",
"210 577 OFFCURVE",
"210 622 CURVE SMOOTH",
"210 662 OFFCURVE",
"251 699 OFFCURVE",
"307 699 CURVE SMOOTH",
"345 699 OFFCURVE",
"380 685 OFFCURVE",
"396 654 CURVE"
);
},
{
closed = 1;
nodes = (
"365 321 LINE",
"411 283 OFFCURVE",
"454 246 OFFCURVE",
"454 197 CURVE SMOOTH",
"454 156 OFFCURVE",
"430 122 OFFCURVE",
"384 94 CURVE",
"225 231 LINE SMOOTH",
"189 262 OFFCURVE",
"147 298 OFFCURVE",
"147 350 CURVE SMOOTH",
"147 389 OFFCURVE",
"179 421 OFFCURVE",
"220 443 CURVE"
);
}
);
width = 602;
}
);
unicode = 00A7;
},
{
glyphname = copyright;
layers = (
{
hints = (
{
place = "{50, 48}";
},
{
place = "{244, 77}";
},
{
place = "{582, 27}";
},
{
place = "{812, 47}";
},
{
horizontal = 1;
place = "{753, 47}";
},
{
horizontal = 1;
place = "{-9, 47}";
},
{
horizontal = 1;
origin = "{2, 28}";
target = "{2, 3}";
},
{
horizontal = 1;
origin = "{2, 9}";
target = "{2, 22}";
}
);
layerId = UUID0;
paths = (
{
closed = 1;
nodes = (
"50 386 LINE SMOOTH",
"50 162 OFFCURVE",
"231 -19 OFFCURVE",
"455 -19 CURVE SMOOTH",
"678 -19 OFFCURVE",
"859 162 OFFCURVE",
"859 386 CURVE SMOOTH",
"859 609 OFFCURVE",
"678 790 OFFCURVE",
"455 790 CURVE SMOOTH",
"231 790 OFFCURVE",
"50 609 OFFCURVE",
"50 386 CURVE SMOOTH"
);
},
{
closed = 1;
nodes = (
"98 386 LINE SMOOTH",
"98 594 OFFCURVE",
"268 743 OFFCURVE",
"455 743 CURVE SMOOTH",
"641 743 OFFCURVE",
"812 591 OFFCURVE",
"812 386 CURVE SMOOTH",
"812 178 OFFCURVE",
"641 28 OFFCURVE",
"455 28 CURVE SMOOTH",
"268 28 OFFCURVE",
"98 177 OFFCURVE",
"98 386 CURVE SMOOTH"
);
},
{
closed = 1;
nodes = (
"611 266 LINE",
"547 207 OFFCURVE",
"492 204 OFFCURVE",
"471 204 CURVE SMOOTH",
"389 204 OFFCURVE",
"332 256 OFFCURVE",
"332 388 CURVE SMOOTH",
"332 439 OFFCURVE",
"336 582 OFFCURVE",
"454 582 CURVE SMOOTH",
"507 582 OFFCURVE",
"557 554 OFFCURVE",
"600 452 CURVE",
"615 457 LINE",
"606 485 OFFCURVE",
"596 529 OFFCURVE",
"596 567 CURVE SMOOTH",
"596 573 OFFCURVE",
"596 580 OFFCURVE",
"597 586 CURVE",
"540 598 OFFCURVE",
"523 609 OFFCURVE",
"451 609 CURVE SMOOTH",
"329 609 OFFCURVE",
"244 518 OFFCURVE",
"244 385 CURVE SMOOTH",
"244 336 OFFCURVE",
"265 169 OFFCURVE",
"450 169 CURVE SMOOTH",
"492 169 OFFCURVE",
"567 187 OFFCURVE",
"627 251 CURVE"
);
}
);
width = 909;
}
);
unicode = 00A9;
},
